<?xml version="1.0" standalone="no"?>
<!DOCTYPE svg PUBLIC "-//W3C//DTD SVG 20010904//EN"
 "http://www.w3.org/TR/2001/REC-SVG-20010904/DTD/svg10.dtd">
<svg version="1.0" xmlns="http://www.w3.org/2000/svg"
 width="718.000000pt" height="731.000000pt" viewBox="0 0 718.000000 731.000000"
 preserveAspectRatio="xMidYMid meet">
<metadata>
Created by potrace 1.15, written by Peter Selinger 2001-2017
</metadata>
<g transform="translate(0.000000,731.000000) scale(0.100000,-0.100000)"
fill="#000000" stroke="none">
<path d="M3295 7267 c-11 -18 -29 -51 -40 -74 -19 -40 -45 -58 -45 -31 0 6 -3
9 -6 5 -4 -3 -27 5 -52 19 -24 14 -54 24 -66 22 -18 -3 -21 -11 -24 -66 -2
-35 1 -69 6 -75 5 -7 11 -19 15 -28 5 -14 0 -15 -31 -8 -102 24 -207 -8 -238
-71 -38 -79 -12 -141 71 -165 54 -16 95 -15 136 5 25 11 29 20 31 67 0 20 1
21 43 6 24 -8 56 -26 70 -39 l27 -25 -39 -28 c-53 -39 -65 -56 -61 -88 2 -20
14 -34 43 -50 22 -12 44 -24 49 -26 8 -3 -26 -70 -50 -98 -19 -21 -85 -21
-147 2 -59 22 -164 20 -199 -3 -14 -9 -36 -14 -53 -11 -17 3 -58 7 -92 10 -58
5 -63 4 -63 -15 0 -12 5 -24 10 -27 6 -3 10 -21 10 -38 0 -18 7 -45 15 -61 8
-15 13 -32 10 -36 -11 -18 -98 21 -112 50 -3 8 -9 65 -12 125 l-6 110 -30 -3
c-40 -4 -76 -31 -97 -73 -10 -19 -18 -28 -18 -20 0 8 -14 36 -30 62 -28 43
-83 79 -119 79 -21 0 -33 -69 -22 -121 17 -78 14 -93 -19 -112 l-30 -18 0 85
c0 80 -2 88 -28 117 -26 29 -28 35 -21 88 15 110 31 141 89 171 l37 19 32 -35
c28 -32 31 -43 31 -98 0 -58 2 -64 26 -75 32 -14 89 -1 144 34 l38 24 28 -31
c68 -70 170 -118 189 -87 14 22 9 122 -11 197 -16 64 -17 74 -4 82 8 5 12 10
8 10 -4 0 1 15 12 33 12 19 20 50 20 78 0 51 -7 64 -27 48 -28 -24 -139 -29
-398 -17 -151 6 -205 -9 -302 -86 -84 -66 -129 -186 -125 -328 1 -32 -1 -58
-4 -58 -3 0 -24 18 -46 40 -43 44 -41 32 -22 153 2 15 0 36 -5 46 -9 16 -18
57 -20 91 -3 39 -17 43 -59 16 -23 -14 -44 -26 -48 -26 -3 0 -19 14 -36 30
-16 17 -50 40 -75 51 -59 27 -65 19 -60 -88 l3 -82 -31 -12 c-75 -27 -73 -26
-44 -37 14 -6 40 -24 57 -41 17 -17 35 -31 41 -31 6 0 11 -5 11 -10 0 -18 111
-62 141 -56 25 5 29 1 40 -32 7 -20 14 -39 14 -42 1 -3 5 -13 10 -23 12 -29 3
-27 -55 8 -73 45 -172 95 -187 95 -7 0 -13 5 -13 10 0 6 -3 9 -7 8 -9 -1 -40
9 -65 23 -10 5 -22 9 -27 9 -5 0 -20 4 -33 9 -13 5 -27 9 -31 9 -4 0 -19 8
-33 16 -13 9 -24 14 -24 12 0 -2 -28 6 -61 20 -34 13 -65 22 -69 19 -4 -2 -8
-36 -9 -74 -2 -66 9 -105 34 -123 6 -4 -48 -8 -120 -9 -138 -1 -280 -10 -280
-19 0 -1 -11 -3 -25 -5 -67 -11 -152 -41 -210 -73 -65 -36 -129 -85 -130 -98
0 -7 -7 -14 -15 -18 -25 -9 -6 -34 45 -59 l48 -24 -60 -43 c-172 -126 -242
-250 -252 -445 -1 -16 5 -20 29 -19 17 0 38 4 47 8 19 9 19 2 -5 -76 -8 -27
-13 -48 -11 -48 3 0 0 -10 -7 -21 -6 -12 -12 -31 -14 -43 -5 -38 -16 -89 -20
-96 -3 -4 -7 -29 -10 -56 -4 -26 -8 -51 -11 -55 -21 -35 -21 -553 0 -588 3 -4
8 -27 11 -51 3 -23 7 -45 10 -49 4 -8 14 -50 20 -86 1 -11 10 -38 20 -60 9
-22 18 -47 20 -55 2 -8 4 -16 5 -17 2 -2 3 -6 4 -10 1 -5 19 -42 40 -83 86
-167 193 -296 294 -355 28 -16 52 -35 52 -42 0 -19 49 -65 118 -112 34 -23 62
-48 62 -57 0 -8 7 -17 15 -20 8 -4 13 -9 10 -13 -2 -4 -7 -23 -10 -42 -3 -19
-8 -42 -11 -52 -3 -11 -7 -29 -8 -40 -2 -12 -6 -32 -10 -43 -5 -18 -2 -22 21
-27 16 -2 41 -4 58 -3 18 0 37 -7 50 -20 12 -12 27 -23 34 -25 22 -8 36 -271
16 -323 -15 -41 -59 -69 -111 -70 -24 -1 -44 -3 -44 -6 0 -15 102 -80 132 -84
27 -4 10 -69 -23 -86 -10 -6 -27 -29 -38 -52 -19 -40 -20 -47 -7 -88 l14 -45
50 1 c50 2 80 13 136 49 l29 19 -6 -91 c-3 -50 -10 -99 -15 -109 -6 -11 -11
-23 -12 -29 -11 -46 -60 -95 -96 -95 -42 0 -62 17 -69 59 l-6 39 -30 -15 c-18
-9 -37 -31 -46 -53 l-17 -38 -18 23 c-10 13 -18 30 -18 39 0 9 -7 16 -15 16
-8 0 -15 5 -15 10 0 6 -4 10 -10 10 -5 0 -10 -6 -10 -12 0 -7 -25 -64 -56
-127 -46 -94 -55 -120 -49 -148 l6 -33 -51 31 c-29 18 -57 42 -62 55 -6 13
-14 24 -18 24 -4 0 -14 19 -23 43 -19 52 -16 126 6 160 27 41 89 46 141 12 30
-20 49 -15 71 18 14 22 14 28 0 68 -17 48 -49 86 -109 130 l-39 29 40 39 c55
55 67 85 68 168 l0 71 -31 5 c-43 7 -110 -9 -163 -39 -24 -13 -47 -24 -51 -24
-4 0 -20 18 -35 40 -18 25 -46 49 -79 64 -53 25 -160 43 -169 29 -3 -5 1 -24
10 -43 24 -54 31 -73 39 -100 15 -50 14 -31 29 -310 8 -138 10 -165 17 -176 3
-5 9 -25 12 -44 3 -19 8 -46 11 -59 7 -36 72 -171 101 -208 13 -17 24 -35 24
-40 0 -4 14 -17 30 -28 16 -11 30 -23 30 -27 0 -5 5 -8 10 -8 6 0 27 -11 48
-23 20 -13 48 -27 62 -31 104 -31 260 -27 344 8 20 8 40 16 44 17 17 3 90 51
107 69 10 11 23 20 29 20 7 0 18 10 26 21 8 12 24 31 35 43 12 11 21 23 20 26
0 3 11 23 24 45 14 22 26 45 27 50 2 6 17 48 33 95 17 46 29 86 26 88 -2 2 1
18 7 35 13 41 18 270 7 311 -8 32 -19 85 -24 121 -1 11 -3 20 -4 20 -2 0 -7
57 -15 175 -3 36 -11 84 -20 108 -8 23 -15 43 -14 45 3 4 -37 62 -51 73 -11 9
-7 12 19 18 78 15 80 59 6 110 -11 7 -20 22 -21 32 -2 25 -47 114 -57 114 -4
0 -16 8 -26 17 -10 10 -38 31 -62 47 -44 28 -120 98 -120 109 0 4 17 9 38 12
58 9 144 36 171 54 81 52 170 191 188 291 5 28 4 155 -1 185 -7 46 -28 108
-46 138 -11 18 -24 41 -29 52 -5 11 -23 45 -41 75 -18 30 -43 73 -55 95 -12
22 -37 65 -57 95 -19 30 -36 58 -37 63 0 4 -8 24 -16 44 -9 20 -18 47 -21 60
-4 13 -10 23 -14 23 -18 0 -58 -61 -69 -105 -10 -39 -14 -44 -26 -33 -33 30
-45 38 -45 32 0 -4 -8 -1 -17 8 -29 23 -67 36 -87 28 -40 -14 -18 -98 49 -186
14 -18 25 -36 25 -41 0 -5 -25 -23 -55 -41 -56 -34 -81 -61 -87 -96 -3 -17 9
-21 92 -36 130 -24 178 -43 231 -93 81 -75 94 -107 93 -222 0 -101 -18 -170
-47 -180 -7 -3 -37 4 -67 14 -61 20 -68 36 -43 99 l13 32 -78 -1 c-44 -1 -84
1 -91 5 -6 4 -20 9 -31 11 -39 8 -106 44 -148 80 -46 40 -115 135 -138 190
-14 34 -13 35 11 41 14 3 34 4 45 1 21 -5 84 13 101 30 7 7 -6 21 -40 44 -63
43 -69 58 -37 86 14 12 26 24 26 27 0 3 -19 10 -42 16 -61 16 -98 31 -98 41 0
5 -4 8 -9 6 -10 -3 -77 76 -98 117 -26 51 -33 96 -18 120 7 12 16 41 20 65 l7
44 25 -32 c30 -38 145 -107 194 -116 22 -4 46 -2 59 5 20 11 22 17 17 68 -3
31 -10 58 -16 60 -6 2 -11 10 -11 18 0 8 -6 14 -13 14 -18 0 -87 82 -87 103 0
3 27 7 60 10 47 4 65 10 80 29 26 31 25 35 -16 54 -20 9 -39 24 -42 33 -3 9
-13 21 -22 28 -23 16 -57 114 -69 194 -8 60 -1 147 16 189 3 8 7 20 8 27 2 6
8 19 14 30 8 14 11 0 12 -62 2 -97 3 -102 12 -140 4 -16 9 -39 11 -50 3 -11
12 -37 20 -57 9 -21 14 -38 11 -38 -2 0 11 -25 30 -55 19 -30 35 -56 35 -58 0
-5 122 -128 153 -154 15 -13 32 -23 37 -23 6 0 10 -4 10 -9 0 -4 30 -24 66
-42 37 -19 75 -45 85 -57 l18 -24 31 22 c41 29 48 46 45 105 -3 62 -17 107
-44 142 l-21 26 51 26 c28 14 72 44 98 66 75 63 115 169 92 246 -19 62 -49 54
-150 -43 -90 -86 -118 -105 -134 -89 -7 7 -7 11 -1 11 19 0 36 74 31 131 -5
63 -26 149 -36 149 -12 0 -101 -61 -101 -70 0 -12 -53 -31 -78 -27 -28 4 -41
17 -49 48 -7 27 -9 126 -2 149 11 38 32 80 40 80 5 0 9 5 9 12 0 14 50 68 63
68 4 0 6 -9 2 -19 -3 -11 -8 -28 -10 -38 -2 -10 -12 -40 -22 -68 -20 -54 -19
-105 1 -105 31 0 105 63 142 122 22 35 43 71 47 80 13 37 100 159 126 177 25
18 104 51 124 51 4 0 -14 -22 -41 -50 -27 -27 -54 -50 -61 -50 -6 0 -11 -4
-11 -8 0 -5 -11 -15 -25 -22 -14 -7 -23 -16 -20 -18 3 -3 -1 -12 -8 -21 -20
-23 -40 -127 -33 -166 7 -37 28 -58 58 -60 23 -2 79 50 162 148 70 84 109 101
230 103 54 1 117 -3 140 -8 22 -5 50 -11 61 -14 65 -13 81 -17 93 -26 6 -6 12
-7 12 -4 0 4 9 2 21 -4 11 -6 28 -13 37 -15 9 -2 37 -10 62 -19 43 -14 201
-53 247 -61 12 -2 36 -7 55 -11 18 -4 40 -8 48 -10 22 -3 122 -24 129 -26 3
-2 -232 -5 -524 -8 l-530 -5 -2 -1846 c-2 -1192 1 -1858 7 -1880 9 -29 14 -60
24 -129 1 -8 13 -46 26 -85 13 -38 22 -72 21 -74 -2 -2 1 -7 6 -10 5 -3 22
-33 38 -66 15 -33 35 -70 44 -81 9 -12 23 -32 31 -44 29 -43 132 -140 176
-166 24 -14 44 -30 44 -35 0 -5 3 -8 8 -7 4 1 32 -11 62 -27 30 -15 91 -41
135 -57 76 -28 89 -32 143 -42 13 -3 33 -8 44 -12 11 -3 30 -7 41 -9 180 -25
235 -32 252 -32 11 0 83 -5 160 -11 77 -6 210 -11 296 -10 161 1 256 -13 266
-38 3 -8 9 -11 14 -8 5 3 9 0 9 -5 0 -6 6 -11 14 -11 17 0 65 -61 89 -113 l18
-39 30 61 c17 33 42 70 57 81 15 11 33 24 39 30 16 13 62 31 93 36 14 2 186 6
382 8 196 2 361 6 365 9 5 3 33 8 63 11 30 2 78 10 105 16 28 7 59 14 70 15
33 6 167 51 218 74 60 27 189 110 200 128 4 7 14 13 22 13 7 0 15 4 17 9 2 5
23 31 48 58 52 55 120 146 120 160 0 6 11 27 25 47 14 20 28 49 31 64 4 15 9
32 13 37 6 11 12 32 13 53 1 6 4 12 8 12 4 0 7 6 7 13 1 12 7 48 19 100 3 16
8 41 11 55 9 49 12 1568 5 2667 l-7 1080 -530 5 c-303 3 -516 8 -498 13 28 7
46 11 120 22 12 2 36 6 53 10 17 4 41 8 53 10 12 2 45 8 72 14 28 7 57 13 65
14 8 2 48 13 87 26 40 13 74 22 75 20 2 -1 12 3 24 9 11 6 32 13 45 16 13 3
44 10 69 17 25 6 53 12 63 14 9 2 22 7 29 11 6 4 54 8 106 10 144 3 203 -25
280 -134 84 -119 151 -149 184 -82 21 43 22 63 4 115 -25 75 -39 101 -66 121
-51 36 -130 106 -130 115 0 12 45 1 85 -19 36 -18 111 -96 132 -137 36 -70
126 -215 134 -215 4 0 16 -9 26 -19 10 -11 33 -23 51 -26 l33 -6 -4 44 c-3 24
-9 53 -15 63 -5 10 -11 22 -11 26 -2 12 -12 41 -22 67 -15 37 -2 38 35 2 55
-54 81 -115 81 -196 0 -93 -18 -129 -64 -131 -21 -1 -41 6 -52 17 -11 11 -23
19 -28 19 -5 0 -18 11 -29 24 -10 14 -31 28 -45 32 -23 5 -27 3 -27 -15 0 -30
1 -27 -15 -70 -21 -60 -14 -152 14 -180 12 -12 21 -25 18 -27 -11 -11 -55 9
-83 37 -79 79 -108 105 -145 127 -55 33 -66 21 -66 -71 0 -60 5 -80 29 -119
15 -27 25 -48 22 -48 -13 0 104 -88 138 -104 34 -17 36 -20 26 -44 -54 -135
-58 -160 -32 -211 13 -26 72 -71 77 -59 18 36 68 71 176 124 7 4 26 19 42 33
15 14 34 31 41 37 80 65 186 236 203 329 5 22 10 47 12 55 3 13 8 83 12 165 1
29 16 7 36 -53 23 -73 13 -243 -17 -279 -6 -7 -8 -13 -4 -13 4 0 0 -13 -8 -28
-19 -37 -94 -112 -112 -112 -25 0 -15 -38 15 -59 20 -15 45 -21 80 -21 l52 0
-24 -42 c-12 -23 -31 -46 -42 -52 -24 -14 -58 -55 -63 -75 -2 -9 -5 -34 -7
-57 -3 -32 0 -41 13 -43 86 -13 152 14 232 91 53 53 59 52 63 -13 1 -19 6 -39
10 -46 15 -23 9 -59 -17 -115 -42 -91 -113 -154 -183 -164 -37 -4 -63 -15 -63
-24 0 -5 14 -17 30 -27 35 -21 36 -24 10 -48 -11 -10 -20 -16 -20 -12 0 3 -16
-9 -35 -26 -19 -17 -35 -34 -35 -37 0 -12 80 -39 96 -33 8 3 29 2 48 -1 l34
-6 -26 -53 c-63 -129 -176 -234 -271 -252 -12 -2 -26 -7 -32 -11 -7 -4 -48 -6
-91 -5 -46 0 -77 -3 -73 -8 3 -5 7 -22 9 -38 2 -15 7 -35 10 -44 7 -15 -24
-31 -101 -54 -26 -7 -55 6 -59 26 -2 8 -5 21 -6 29 -2 8 -6 20 -9 25 -11 18
-10 129 0 178 11 48 77 151 91 142 4 -3 10 2 13 10 6 14 107 71 107 60 0 -3 9
-1 20 5 10 6 32 12 47 14 121 16 131 19 136 36 8 31 -30 74 -93 105 -59 30
-60 31 -43 51 46 52 85 131 87 175 1 31 -3 39 -19 42 -26 4 -59 -10 -113 -46
-24 -16 -45 -27 -46 -25 -1 1 -8 23 -15 47 -12 41 -67 108 -79 96 -3 -3 -7
-19 -9 -35 -4 -39 -35 -107 -86 -190 -171 -278 -213 -380 -215 -514 0 -89 33
-208 74 -262 13 -17 24 -34 24 -37 0 -19 130 -114 168 -122 12 -3 30 -7 40 -9
9 -2 37 -7 61 -11 36 -6 42 -10 30 -19 -8 -6 -18 -19 -22 -29 -4 -9 -15 -20
-24 -24 -10 -4 -31 -20 -48 -35 -16 -15 -39 -31 -50 -34 -41 -13 -107 -103
-117 -159 -1 -11 -16 -29 -33 -40 -53 -36 -44 -87 18 -101 25 -5 28 -8 16 -18
-12 -9 -57 -93 -60 -111 0 -2 -5 -19 -10 -37 -9 -31 -14 -75 -23 -213 -3 -33
-5 -60 -6 -60 -1 0 -3 -9 -5 -20 -3 -11 -6 -31 -9 -45 -22 -107 -29 -224 -18
-283 7 -34 14 -78 17 -97 7 -52 13 -77 24 -98 6 -11 8 -21 6 -23 -5 -6 74
-159 100 -194 48 -64 172 -163 215 -170 3 0 21 -6 41 -13 148 -51 326 -30 442
50 26 18 96 88 88 88 -3 0 -1 4 4 8 6 4 16 17 23 30 6 12 16 30 22 40 11 19
28 64 27 72 0 3 5 15 12 28 7 13 15 33 18 45 16 68 25 115 29 142 17 137 23
213 23 295 -1 100 17 176 59 252 14 24 17 40 11 44 -10 6 -69 0 -122 -12 -12
-3 -28 -6 -35 -8 -23 -4 -98 -69 -115 -98 l-16 -28 -43 29 c-24 16 -59 32 -78
37 -44 10 -140 11 -140 2 0 -5 5 -8 11 -8 8 0 10 -16 6 -52 -7 -63 13 -116 68
-181 33 -38 35 -43 19 -54 -10 -7 -23 -13 -28 -13 -6 -1 -28 -23 -49 -51 -88
-113 -63 -211 40 -158 46 23 57 24 94 2 33 -20 53 -61 51 -107 -3 -74 -69
-173 -138 -209 l-31 -16 2 43 c3 41 -29 127 -61 167 -6 8 -17 32 -24 54 -18
56 -19 57 -45 38 -12 -10 -21 -21 -19 -25 3 -4 -5 -17 -17 -29 -21 -21 -22
-21 -32 -3 -16 30 -60 74 -74 74 -7 0 -13 -9 -13 -20 0 -34 -30 -70 -57 -70
-87 0 -140 108 -135 273 l2 48 28 -19 c30 -22 113 -52 141 -52 30 0 45 28 45
84 1 46 -4 58 -35 97 -49 60 -56 85 -27 95 32 10 128 74 128 86 0 5 -9 6 -20
3 -22 -7 -87 13 -108 32 -27 26 -45 115 -37 183 13 108 13 114 14 148 1 20 6
32 14 32 8 0 22 9 32 20 10 11 30 20 45 20 15 0 41 3 58 6 27 6 30 9 25 38 -9
57 -10 61 -17 94 -14 59 -14 82 0 93 8 6 14 17 14 25 0 7 9 16 20 19 11 3 26
12 32 18 7 7 32 24 55 39 23 16 50 42 59 60 21 40 32 51 70 71 16 8 38 24 48
36 11 12 25 21 32 21 7 0 15 9 19 19 3 11 21 33 39 49 18 15 36 35 40 43 3 8
24 41 46 74 80 123 146 286 176 435 2 14 7 32 10 40 29 81 25 572 -5 678 -5
17 -7 33 -4 35 2 3 0 14 -5 24 -6 10 -13 34 -16 53 -12 73 -36 164 -56 217 -8
20 -7 21 23 12 66 -19 70 -15 64 49 -8 75 -15 107 -32 148 -8 19 -12 34 -9 34
12 0 -65 100 -116 150 -57 55 -79 74 -135 110 l-30 20 28 0 c15 0 27 3 27 8 0
4 10 12 22 17 53 23 24 73 -84 145 -51 34 -147 75 -201 86 -10 2 -26 6 -35 8
-38 12 -95 17 -257 23 -93 3 -172 7 -174 9 -2 2 4 13 15 25 15 16 19 37 20 90
1 83 -10 97 -58 76 -38 -17 -69 -29 -83 -32 -53 -13 -320 -129 -390 -170 -22
-12 -44 -23 -49 -23 -5 0 -13 -7 -18 -16 -13 -22 -31 -21 -19 2 5 9 9 19 10
22 0 3 6 21 13 40 7 19 11 38 10 42 -1 4 11 5 27 2 31 -6 121 22 121 37 0 5 4
9 8 9 5 0 30 20 55 45 26 25 54 45 62 45 27 0 16 27 -14 33 -38 8 -63 34 -56
58 11 35 9 129 -2 140 -9 9 -23 5 -57 -15 -25 -15 -46 -24 -46 -21 0 3 -9 -3
-19 -12 -51 -46 -48 -46 -95 -13 -25 16 -47 26 -51 21 -3 -6 -7 -29 -10 -52
-2 -23 -9 -63 -16 -89 -12 -45 -10 -59 15 -121 5 -11 -8 -31 -39 -62 l-46 -47
2 43 c1 36 -3 78 -15 147 -18 111 -136 243 -236 265 -8 2 -26 7 -40 12 -14 5
-63 8 -110 6 -188 -7 -356 -8 -375 -2 -11 3 -33 11 -48 17 -16 7 -29 12 -30
12 -1 0 -2 -22 -2 -49 1 -47 31 -131 48 -131 9 0 3 -38 -16 -101 -16 -53 -19
-146 -5 -171 5 -10 15 -18 23 -18 19 0 88 32 97 45 4 6 8 7 8 3 0 -5 18 10 40
32 22 22 44 40 49 40 6 0 25 -9 43 -19 18 -11 51 -25 74 -31 35 -11 45 -10 66
4 23 15 26 25 30 87 3 62 7 72 32 94 27 23 29 23 55 8 50 -31 70 -56 86 -104
19 -56 13 -107 -18 -159 -17 -28 -21 -52 -21 -118 0 -45 -2 -81 -5 -79 -3 1
-19 9 -34 17 -23 11 -27 18 -22 38 14 57 17 162 5 177 -15 18 -48 16 -68 -2
-7 -7 -19 -13 -25 -13 -7 0 -25 -22 -40 -50 -25 -44 -51 -75 -45 -53 3 12 -33
76 -39 69 -4 -3 -11 -1 -18 4 -6 5 -26 11 -43 12 l-32 3 -3 -112 c-2 -106 -4
-114 -28 -138 -17 -17 -42 -28 -77 -34 l-53 -8 21 22 c19 20 55 125 44 125 -3
0 0 9 6 21 11 20 10 21 -57 16 -37 -3 -81 -7 -98 -10 -16 -3 -32 -3 -35 1 -24
31 -151 39 -215 12 -38 -16 -115 -21 -137 -9 -10 5 -28 32 -41 59 l-24 49 36
12 c39 13 70 45 71 72 0 19 -37 61 -80 88 l-25 17 20 22 c20 23 73 50 98 50 8
0 17 -13 20 -30 13 -62 117 -87 194 -47 38 20 44 29 54 80 8 47 -16 91 -70
128 -31 21 -45 24 -123 23 -82 -2 -87 0 -78 17 6 10 10 49 10 88 0 86 -10 91
-93 44 -33 -18 -62 -33 -65 -33 -4 0 -27 34 -52 75 -25 41 -49 75 -55 75 -5
-1 -19 -15 -30 -33z m69 -81 c14 -30 26 -62 26 -71 0 -22 28 -31 43 -13 19 22
64 48 86 48 22 0 37 -30 20 -41 -6 -4 -9 -11 -6 -17 13 -19 -25 -91 -54 -104
-16 -7 -29 -17 -29 -21 0 -4 -13 -20 -28 -35 -27 -26 -62 -88 -62 -111 0 -6
-14 -11 -30 -11 -24 0 -33 6 -41 28 -20 54 -34 82 -41 82 -4 0 -31 24 -61 53
-54 51 -70 85 -71 147 0 38 34 37 88 -5 41 -31 47 -33 52 -18 3 10 8 25 11 33
4 8 7 20 8 26 7 31 39 84 50 84 8 0 25 -24 39 -54z m-696 -186 c-12 -35 -56
-73 -75 -66 -7 3 3 -18 22 -45 19 -28 35 -54 36 -58 0 -3 2 -15 4 -26 5 -27 7
-63 6 -102 -1 -26 -4 -31 -18 -26 -26 9 -85 54 -79 60 3 3 17 -4 32 -16 15
-11 33 -21 41 -21 14 0 -2 18 -67 75 l-23 20 5 -23 c10 -39 -10 -14 -48 61
-44 86 -56 104 -82 123 -32 22 -34 1 -4 -32 45 -48 56 -78 42 -105 -12 -23
-67 -78 -79 -80 -3 0 -15 -2 -26 -5 -31 -6 -49 4 -37 19 14 17 1 72 -28 124
-28 51 -75 68 -133 51 -33 -10 -79 -54 -83 -80 -1 -5 -2 -12 -3 -17 0 -5 -13
-13 -28 -19 -42 -15 -68 -42 -100 -105 -16 -31 -32 -55 -35 -52 -5 5 -2 26 18
124 17 84 66 150 138 185 70 34 89 36 336 41 199 3 256 7 268 19 11 11 11 6 0
-24z m1582 4 c113 -2 221 -5 240 -8 80 -9 133 -40 193 -112 27 -32 56 -126 62
-196 l6 -63 -35 70 c-46 92 -67 115 -111 119 -5 1 -20 22 -32 49 -25 51 -51
67 -116 72 -34 2 -42 -2 -74 -41 -39 -46 -47 -67 -47 -126 0 -33 -3 -38 -23
-38 -53 0 -118 61 -118 110 0 35 6 45 52 95 17 18 19 24 8 28 -22 9 -61 -38
-102 -124 -20 -43 -42 -79 -46 -79 -5 0 -7 6 -4 14 10 26 -5 25 -29 -2 -13
-15 -34 -37 -46 -49 -32 -32 -4 -30 41 3 l36 27 -30 -31 c-16 -17 -41 -33 -55
-34 -24 -3 -25 -1 -25 50 0 30 3 56 8 59 4 2 5 8 2 13 -6 10 20 67 41 88 15
14 19 43 7 40 -18 -3 -45 16 -58 43 -20 38 -20 39 18 32 17 -3 124 -7 237 -9z
m-1212 -20 c66 -15 99 -32 144 -76 29 -28 68 -87 68 -101 0 -12 -21 -4 -23 8
0 6 -11 21 -24 35 -13 14 -23 28 -23 33 0 4 -4 6 -9 2 -5 -3 -12 -1 -15 4 -12
19 -119 43 -163 36 -41 -6 -70 -25 -39 -25 9 0 17 1 19 2 1 1 12 -4 24 -11 19
-10 21 -15 11 -36 -32 -70 -158 -24 -158 57 0 38 58 83 109 85 9 1 44 -5 79
-13z m722 -4 c21 -11 44 -46 45 -70 1 -28 -29 -69 -58 -80 -46 -16 -66 -12
-93 17 -23 25 -24 28 -9 39 9 7 22 11 28 8 16 -5 43 13 33 23 -8 8 -117 9
-146 1 -48 -13 -130 -81 -130 -108 0 -5 -7 -10 -15 -10 -8 0 -15 2 -15 5 0 6
41 67 51 75 3 3 8 13 12 23 4 9 15 20 24 24 10 4 27 15 37 25 10 9 44 22 75
29 31 6 61 13 66 14 18 5 74 -4 95 -15z m-365 -214 c87 -19 135 -41 135 -64 0
-19 -23 -40 -53 -47 -31 -8 -44 10 -17 25 11 6 20 18 20 27 0 9 -3 13 -7 10
-3 -4 -12 -2 -19 4 -8 7 -58 11 -124 11 -88 1 -115 -3 -137 -17 -25 -17 -26
-18 -8 -31 10 -8 22 -14 27 -14 4 0 8 -4 8 -9 0 -14 -46 -6 -75 13 -20 13 -23
20 -15 35 11 22 79 51 135 57 22 3 42 8 45 10 4 5 29 1 85 -10z m1246 -29 c75
-71 93 -187 46 -287 l-26 -55 -2 65 c-2 36 -4 81 -5 101 0 19 -6 51 -13 71 -6
19 -14 46 -17 59 -3 13 -8 34 -11 47 -7 28 -2 28 28 -1z m-2604 -9 c-3 -13 -8
-33 -11 -46 -2 -12 -8 -27 -11 -32 -11 -17 -16 -53 -19 -138 -2 -46 -6 -85 -9
-88 -3 -3 -14 14 -25 38 -14 30 -19 61 -17 103 3 78 9 100 40 147 28 43 61 53
52 16z m-829 -34 c12 -8 22 -13 22 -10 0 3 30 -8 68 -23 37 -15 81 -31 97 -36
17 -5 32 -9 35 -10 3 -1 19 -5 35 -10 17 -4 42 -14 57 -22 15 -7 29 -13 30
-12 11 3 202 -121 195 -127 -2 -2 -19 1 -38 7 -19 5 -52 12 -73 15 -22 3 -43
7 -47 9 -3 3 -28 7 -55 10 -27 3 -57 8 -66 11 -9 3 -25 7 -35 9 -84 20 -110
28 -146 46 -65 34 -117 98 -117 144 0 19 10 19 38 -1z m4275 4 c11 -31 -80
-148 -114 -148 -6 0 -25 -6 -42 -14 -30 -13 -80 -28 -102 -31 -5 -1 -26 -5
-45 -10 -19 -4 -44 -9 -55 -11 -115 -16 -191 -30 -205 -39 -6 -3 -10 -2 -10 3
0 9 56 49 85 61 6 2 24 14 40 26 32 24 143 71 187 79 14 2 35 9 45 14 10 6 20
10 23 10 18 2 153 54 165 64 13 11 23 10 28 -4z m-2209 -67 c-3 -129 -40 -221
-115 -293 -22 -21 -39 -41 -39 -45 -1 -17 -200 -134 -200 -117 0 4 -6 1 -14
-5 -8 -7 -22 -13 -32 -16 -11 -2 -50 -10 -89 -17 -38 -8 -92 -14 -120 -13 -85
3 -219 66 -282 132 -12 13 -26 23 -30 23 -4 0 -25 18 -46 39 -33 33 -43 38
-78 35 -22 -1 -46 -7 -52 -12 -24 -19 -88 -52 -102 -52 -30 0 -40 51 -40 202
1 111 13 140 39 89 11 -20 17 -62 19 -121 2 -105 4 -106 92 -63 46 23 54 30
48 48 -13 40 -19 152 -9 162 5 6 66 -54 66 -65 0 -7 4 -12 8 -12 5 0 27 -29
50 -65 41 -65 71 -87 58 -42 -4 12 -10 47 -13 77 -6 59 2 75 42 82 16 2 20 -3
20 -22 0 -14 -3 -33 -8 -43 -16 -35 -17 -86 -2 -124 12 -31 26 -43 68 -63 45
-21 69 -25 170 -27 114 -2 154 9 81 23 -38 7 -104 64 -104 89 0 25 -1 30 -11
42 -7 7 -6 14 1 18 11 7 68 -3 85 -14 35 -25 147 -62 177 -59 27 3 30 5 13 12
-11 4 -40 17 -65 29 l-45 21 35 6 c19 3 55 0 80 -7 67 -18 188 -13 228 10 49
29 67 59 87 147 20 89 31 93 29 11z m131 14 c1 -23 18 -83 32 -115 22 -50 79
-77 168 -78 39 -1 90 5 115 12 25 7 60 11 78 8 l33 -4 -35 -24 c-19 -13 -42
-24 -50 -24 -8 0 -18 -4 -21 -10 -10 -15 58 -12 99 5 20 8 38 15 41 15 3 0 22
10 42 21 21 12 53 24 71 26 32 5 32 4 27 -28 -3 -19 -10 -36 -14 -39 -5 -3
-11 -15 -15 -27 -4 -13 -14 -23 -22 -23 -8 0 -14 -4 -14 -8 0 -5 -18 -15 -40
-22 -22 -7 -40 -17 -40 -21 0 -12 207 -8 243 5 75 27 112 59 122 106 4 16 2
37 -3 47 -6 10 -10 20 -9 23 0 3 -6 22 -12 43 -16 48 -5 63 32 46 23 -10 27
-19 28 -53 1 -23 1 -44 0 -48 -7 -53 -10 -88 -7 -88 3 0 30 39 62 88 56 86
100 136 113 127 4 -2 5 -30 3 -62 -2 -32 -4 -65 -4 -73 0 -8 -5 -21 -11 -28
-5 -7 -8 -14 -6 -15 15 -9 117 -56 132 -61 15 -5 17 3 17 81 0 83 15 163 31
163 25 0 43 -164 27 -252 -15 -84 -25 -87 -111 -35 -58 36 -110 42 -133 16 -9
-10 -21 -16 -25 -13 -5 3 -9 -1 -9 -8 0 -7 -22 -29 -48 -48 -26 -19 -49 -37
-52 -40 -44 -49 -203 -108 -280 -104 -86 4 -145 16 -210 41 -8 4 -17 7 -20 8
-154 52 -309 208 -336 337 -19 93 -23 122 -17 149 5 28 7 29 17 13 5 -11 11
-23 11 -29z m1513 -7 c-6 -13 -13 -29 -14 -35 -3 -18 -69 -134 -91 -160 -10
-12 -29 -35 -43 -52 -14 -17 -30 -31 -37 -31 -7 0 -13 -4 -13 -9 0 -5 -7 -12
-16 -15 -8 -3 -13 -2 -11 2 3 4 15 30 27 57 20 44 35 66 80 122 6 7 10 17 10
23 0 6 7 13 15 16 8 4 15 11 15 16 0 8 79 88 87 88 2 0 -2 -10 -9 -22z m-3127
-30 c21 -24 46 -58 56 -75 10 -18 21 -33 26 -33 4 0 5 -4 2 -10 -3 -5 -2 -10
4 -10 13 0 84 -127 79 -142 -5 -14 -121 100 -142 140 -8 15 -26 52 -41 82 -14
30 -30 63 -36 73 -18 33 13 18 52 -25z m1549 -55 c0 -69 141 -303 208 -345 50
-32 177 -103 187 -105 6 -1 30 -8 55 -16 41 -14 -2 -15 -460 -15 -278 -1 -496
3 -485 7 11 5 45 17 75 26 30 10 85 39 123 64 37 25 81 55 97 66 16 11 29 23
30 27 0 4 20 35 44 70 47 69 66 106 91 186 16 51 35 70 35 35z m-2345 -34
c-16 -6 -37 -12 -47 -14 -52 -12 -245 -117 -328 -179 -40 -30 -180 -164 -180
-172 0 -3 -15 -24 -34 -47 -39 -49 -116 -188 -116 -211 0 -18 -57 -76 -75 -76
-30 0 17 155 69 223 33 44 178 187 189 187 13 0 107 100 107 113 0 5 -14 6
-32 2 -18 -3 -51 -9 -73 -11 -36 -5 -38 -4 -23 9 10 8 15 16 13 19 -18 17 144
99 240 122 47 12 100 20 200 31 27 3 51 8 54 10 2 3 18 5 35 4 l31 -1 -30 -9z
m4765 -4 c24 -3 50 -7 135 -20 22 -4 56 -11 75 -17 38 -12 52 -15 60 -15 13
-1 130 -67 130 -75 0 -4 5 -8 11 -8 12 0 38 -29 39 -43 0 -20 -124 7 -155 33
-43 36 -48 31 -10 -10 85 -90 115 -120 124 -120 11 0 166 -152 199 -195 13
-16 32 -50 44 -74 22 -48 36 -151 21 -151 -5 0 -22 14 -38 30 -16 17 -26 30
-22 30 15 0 -98 198 -151 263 -53 64 -157 167 -169 167 -3 0 -15 9 -27 21 -40
38 -227 140 -315 170 -86 30 -86 30 -31 23 30 -3 66 -8 80 -9z m-4336 -40 c21
-3 47 -10 57 -16 11 -5 19 -7 19 -4 0 3 16 -1 35 -9 20 -9 39 -15 43 -16 4 0
25 -6 47 -12 22 -6 45 -12 50 -13 50 -11 455 -198 455 -211 0 -3 -4 -3 -9 0
-4 3 -27 8 -50 11 -23 3 -50 9 -59 14 -9 5 -21 10 -27 10 -5 1 -26 6 -45 11
-19 5 -38 10 -42 10 -4 0 -28 9 -53 20 -25 11 -45 17 -45 14 0 -2 -13 2 -30
11 -16 9 -30 13 -30 10 0 -3 -9 -1 -21 5 -11 7 -33 13 -47 15 -15 2 -57 8 -94
14 -118 17 -282 -37 -318 -104 -7 -14 -17 -25 -22 -25 -5 0 -6 -5 -3 -10 3 -6
-1 -13 -9 -16 -9 -3 -16 -10 -16 -16 0 -11 -70 -88 -80 -88 -13 0 -29 48 -23
71 8 31 45 85 92 134 47 49 87 85 94 85 3 0 18 11 33 25 23 22 36 25 95 25 41
0 69 4 69 10 0 16 -28 22 -175 36 -65 7 -149 -17 -199 -57 -32 -25 -106 -122
-158 -208 -22 -36 -45 -69 -50 -72 -5 -3 -10 -10 -10 -15 0 -5 -12 -20 -25
-34 l-25 -25 6 43 c3 24 9 49 13 55 4 7 8 17 10 22 1 6 14 43 28 83 15 41 24
76 22 78 -2 3 -20 -10 -39 -28 -146 -137 -168 -162 -180 -200 -7 -23 -14 -36
-16 -29 -5 15 27 101 46 124 8 9 11 17 7 17 -5 0 -4 5 3 12 16 16 15 48 -1 48
-18 0 -200 -189 -220 -230 -10 -19 -22 -42 -27 -50 -23 -37 -55 -129 -67 -190
-17 -88 0 -248 28 -266 5 -3 9 -12 9 -19 0 -16 85 -105 100 -105 23 0 7 -20
-22 -28 -67 -18 -139 51 -156 150 -11 68 -2 253 13 278 3 5 7 21 9 37 7 44 14
70 24 90 6 10 10 23 11 28 4 36 34 114 51 133 11 12 18 22 14 22 -11 0 47 71
107 133 31 31 61 57 66 57 6 0 13 6 16 13 6 16 134 95 162 100 11 1 30 9 43
15 12 7 22 10 22 7 0 -3 9 -1 19 5 11 5 36 12 57 15 20 2 39 7 42 10 7 7 319
-2 376 -10z m4226 -1 c36 -8 73 -17 84 -19 10 -2 24 -9 32 -16 8 -6 14 -9 14
-6 0 10 136 -66 176 -98 47 -37 112 -102 139 -138 11 -15 25 -33 31 -40 19
-22 60 -101 69 -132 4 -16 9 -34 11 -40 49 -160 59 -222 59 -355 0 -120 -12
-159 -63 -207 -35 -34 -40 -37 -82 -33 -44 3 -43 17 7 63 76 71 97 122 99 241
1 59 -3 116 -11 143 -7 24 -13 46 -13 49 0 6 -20 60 -35 94 -27 60 -94 149
-149 195 -32 28 -60 57 -63 65 -3 8 -19 23 -35 32 -30 17 -30 17 -26 -6 2 -13
16 -47 31 -75 29 -58 30 -90 0 -45 -22 35 -123 134 -135 134 -5 0 -19 13 -31
30 -28 36 -44 29 -24 -10 9 -17 15 -32 15 -35 -1 -3 8 -31 20 -63 12 -31 24
-65 26 -75 2 -10 6 -27 9 -38 4 -10 2 -19 -3 -19 -14 0 -92 92 -92 107 0 7 -5
13 -11 13 -5 0 -7 5 -4 10 3 6 2 10 -3 10 -5 0 -28 31 -50 69 -61 101 -126
158 -207 180 -42 11 -200 2 -257 -15 -40 -12 -14 -24 50 -24 61 0 71 -3 107
-32 22 -18 42 -36 43 -40 2 -5 9 -8 16 -8 15 0 96 -82 96 -98 0 -7 4 -12 9
-12 14 0 45 -72 46 -103 0 -44 -18 -51 -48 -19 -56 57 -97 107 -107 132 -12
28 -99 78 -170 97 -22 6 -161 4 -190 -2 -14 -3 -37 -7 -52 -10 -14 -2 -36 -8
-47 -15 -12 -6 -21 -8 -21 -5 0 3 -13 -1 -30 -10 -16 -9 -30 -13 -30 -9 0 4
-6 2 -12 -3 -7 -6 -26 -14 -43 -18 -37 -10 -35 -9 -66 -22 -14 -6 -39 -13 -55
-16 -16 -3 -41 -10 -56 -16 -16 -6 -28 -9 -28 -6 0 2 -14 -1 -32 -6 -17 -5
-27 -5 -22 0 12 11 113 65 150 79 16 7 36 16 44 22 13 8 63 30 80 35 3 0 28
11 55 24 59 27 242 88 287 96 17 3 34 8 38 10 3 2 29 7 56 11 27 3 50 7 52 9
11 10 298 1 352 -11z m-3365 -201 c20 -18 75 -55 123 -84 126 -77 126 -76 -2
-53 -40 7 -276 104 -276 114 0 15 76 59 97 56 13 -1 39 -16 58 -33z m2203 10
c23 -15 42 -30 42 -33 0 -7 -139 -70 -162 -74 -7 -1 -23 -8 -35 -14 -13 -7
-23 -10 -23 -7 0 3 -10 1 -21 -6 -12 -6 -31 -12 -43 -14 -11 -2 -38 -6 -58 -9
-21 -3 -38 -4 -38 -2 0 3 39 28 88 57 48 28 101 64 117 79 33 30 64 49 80 50
6 0 30 -12 53 -27z m-3834 -261 c2 -31 10 -70 16 -87 6 -16 10 -31 8 -32 -2
-1 11 -20 27 -42 47 -63 98 -68 174 -16 28 19 55 35 59 35 16 0 23 -78 11
-124 -21 -84 -69 -110 -147 -81 -48 19 -142 104 -142 130 0 8 -4 16 -9 20 -12
7 -9 -26 8 -85 15 -51 74 -146 109 -173 12 -11 43 -39 68 -63 26 -24 50 -44
55 -44 4 0 14 -9 22 -21 8 -11 17 -16 21 -11 6 10 -77 102 -109 119 -34 19
-10 25 56 13 37 -7 82 -8 109 -4 l45 8 -70 7 c-134 14 -147 18 -207 72 -36 32
-36 44 0 19 36 -27 106 -46 167 -47 74 -2 130 26 202 102 67 71 93 77 93 24 0
-39 -41 -130 -72 -158 -19 -17 -124 -71 -143 -73 -3 0 -15 0 -27 0 -50 0 -52
-15 -5 -61 49 -49 60 -73 60 -137 0 -63 -12 -68 -72 -33 -28 17 -51 28 -51 25
0 -3 -21 10 -47 28 -65 44 -226 208 -205 208 4 0 2 4 -4 8 -14 9 -68 102 -60
102 4 0 0 10 -8 23 -23 35 -47 195 -36 242 5 22 7 41 5 43 -2 3 2 17 11 33 8
16 12 29 10 29 -6 0 12 35 39 74 18 28 19 28 27 7 4 -12 10 -48 12 -79z m5413
25 c31 -62 33 -74 34 -172 1 -121 -13 -182 -69 -285 -66 -121 -185 -235 -319
-305 -86 -44 -106 -39 -102 29 3 52 23 89 77 142 48 47 47 48 -38 59 -24 3
-47 10 -51 16 -3 6 -10 11 -15 11 -36 1 -90 45 -121 98 -25 43 -32 140 -10
140 14 0 24 -8 102 -89 50 -52 95 -73 164 -76 55 -3 135 19 191 53 16 10 11 2
-14 -22 -35 -34 -72 -56 -101 -62 -5 -1 -14 -3 -20 -4 -22 -5 -42 -7 -95 -9
-48 -2 -52 -4 -30 -13 24 -9 76 -7 165 8 l40 6 -67 -67 c-38 -37 -68 -69 -68
-71 0 -12 22 1 63 39 60 55 75 68 83 67 3 -1 13 8 22 19 45 52 52 62 52 67 0
3 8 18 19 32 17 25 61 150 61 176 0 6 -11 -2 -24 -19 -13 -16 -22 -33 -20 -36
6 -11 -87 -89 -125 -105 -46 -20 -94 -11 -120 22 -25 31 -36 101 -25 149 l9
36 55 -35 c57 -37 115 -47 138 -24 7 7 12 8 12 3 0 -5 13 9 29 31 29 40 41 74
47 134 2 19 6 51 8 70 3 19 5 41 5 49 1 23 30 -7 58 -62z m-827 -1849 c-1
-1209 -4 -1827 -11 -1858 -6 -25 -12 -61 -14 -80 -2 -19 -6 -44 -9 -55 -18
-79 -99 -265 -116 -265 -6 0 -8 -5 -5 -10 3 -6 2 -10 -4 -10 -5 0 -13 -10 -17
-22 -8 -28 -180 -198 -200 -198 -8 0 -14 -4 -14 -10 0 -5 -4 -10 -10 -10 -5 0
-32 -14 -60 -31 -44 -27 -210 -93 -210 -84 0 2 -16 -3 -35 -11 -19 -8 -35 -12
-35 -9 0 2 -11 0 -25 -5 -38 -14 -114 -21 -281 -24 -82 -2 -212 -6 -289 -9
-77 -4 -185 -7 -240 -8 -55 -1 -117 -8 -138 -15 -20 -7 -38 -13 -40 -13 -13 0
-67 -25 -67 -30 0 -4 -15 -16 -34 -26 -19 -11 -37 -27 -39 -37 -7 -25 -19 -22
-41 10 -19 29 -23 32 -97 69 -71 36 -133 45 -339 49 -333 6 -514 16 -561 30
-9 2 -34 7 -55 10 -22 2 -47 7 -57 10 -11 3 -29 7 -40 9 -38 6 -65 13 -84 23
-10 6 -22 11 -28 11 -56 7 -245 94 -245 113 0 4 -7 8 -15 8 -16 0 -149 128
-188 182 -32 44 -104 185 -112 219 -3 13 -14 58 -25 99 -12 41 -23 102 -26
135 -3 32 -8 64 -11 69 -4 5 -8 814 -10 1798 l-3 1788 1915 0 1915 0 0 -1812z
m-4862 1707 c-5 -28 -11 -60 -13 -72 -2 -11 -6 -30 -9 -41 -9 -26 -15 -57 -23
-107 -22 -151 26 -279 155 -413 57 -59 86 -110 76 -136 -7 -19 -6 -19 -50 -1
-20 8 -33 18 -30 23 3 5 -11 24 -30 43 -37 36 -87 114 -89 139 -1 8 -7 24 -13
35 -11 17 -12 14 -10 -25 1 -25 9 -56 18 -70 9 -14 19 -32 23 -41 3 -10 24
-27 46 -40 23 -12 41 -29 41 -36 0 -36 -111 64 -136 122 -20 47 -44 164 -37
182 3 6 0 20 -6 30 -8 13 -10 -25 -10 -142 1 -137 -2 -167 -18 -200 -12 -28
-26 -41 -42 -43 l-24 -4 7 119 c4 65 9 136 11 158 6 54 13 100 15 100 1 0 3 9
4 20 7 52 17 98 22 106 3 5 7 19 9 31 15 77 110 326 121 315 1 -1 -2 -25 -8
-52z m5954 -80 c16 -38 28 -70 27 -70 0 0 4 -20 11 -45 7 -25 12 -47 12 -50 0
-3 4 -15 9 -28 9 -24 13 -42 30 -142 17 -99 19 -125 26 -257 6 -121 6 -123
-16 -123 -20 0 -34 20 -48 70 -3 8 -5 89 -4 179 0 163 -12 206 -23 81 -12
-131 -50 -211 -125 -262 -29 -20 -41 -22 -41 -9 0 5 16 19 35 32 20 13 45 40
57 59 24 39 24 39 34 94 9 48 -11 42 -21 -7 -8 -36 -71 -124 -119 -164 -17
-15 -23 -24 -13 -20 25 9 21 -10 -5 -24 -13 -7 -23 -11 -23 -10 0 1 -8 -1 -19
-5 -27 -10 -37 14 -21 53 14 34 65 103 76 103 18 0 91 114 120 185 36 90 44
177 23 257 -6 26 -10 49 -8 51 3 2 0 16 -6 31 -11 30 -18 64 -25 116 l-4 35
16 -30 c9 -16 29 -61 45 -100z m-6075 -797 c5 -7 29 -49 53 -93 51 -96 72
-121 117 -136 19 -6 32 -13 29 -16 -14 -14 -64 -10 -93 7 -18 10 -35 15 -38
11 -7 -13 12 -25 113 -76 51 -25 90 -50 87 -55 -12 -20 -66 -9 -139 29 -42 22
-76 36 -75 33 0 -4 11 -27 24 -52 13 -25 30 -56 37 -70 83 -164 215 -304 312
-332 52 -15 42 -13 109 -22 34 -4 57 -12 57 -20 0 -7 -15 -27 -32 -45 -33 -33
-33 -34 -108 -28 -74 5 -100 2 -100 -12 0 -10 28 -12 190 -15 83 -2 158 -8
174 -15 l29 -12 -36 -34 c-45 -42 -71 -50 -167 -50 -66 0 -84 5 -153 38 -43
21 -81 45 -84 53 -3 8 -11 14 -18 14 -8 0 -17 9 -20 20 -3 11 -12 20 -19 20
-7 0 -25 18 -42 40 -16 22 -39 53 -51 67 -12 15 -28 41 -34 58 -7 16 -20 41
-29 55 -37 54 -97 232 -114 337 -2 11 -7 31 -11 43 -4 12 -8 38 -10 58 -21
213 -19 240 13 223 10 -5 23 -16 29 -23z m6190 -87 c-8 -147 -18 -205 -61
-346 -2 -5 -6 -23 -11 -40 -4 -16 -11 -34 -15 -40 -4 -5 -13 -27 -19 -47 -7
-21 -23 -57 -36 -80 -13 -24 -31 -57 -40 -74 -9 -17 -25 -41 -35 -52 -11 -12
-20 -25 -20 -29 0 -19 -140 -140 -191 -166 -75 -37 -93 -41 -179 -41 -79 1
-124 16 -168 59 l-22 22 32 14 c24 10 70 13 163 11 122 -2 192 8 180 28 -2 4
-39 6 -82 4 -69 -3 -82 -1 -105 19 -14 12 -29 32 -33 44 -5 20 -1 22 52 29 32
4 63 8 68 9 20 1 91 28 115 44 44 29 140 131 160 172 11 21 26 39 32 39 6 0 9
3 5 6 -3 3 12 34 33 69 50 82 82 145 74 145 -4 0 -29 -14 -55 -30 -48 -32 -76
-42 -119 -44 -50 -2 -30 19 61 66 51 26 97 52 103 58 16 16 -18 12 -57 -6 -26
-13 -42 -14 -63 -7 l-29 10 31 7 c49 11 89 54 135 146 44 87 74 124 92 113 6
-3 7 -46 4 -112z m-5411 -50 c26 -42 54 -87 64 -101 62 -90 127 -243 139 -325
12 -88 1 -223 -21 -236 -5 -3 -10 -10 -10 -15 0 -15 -39 -87 -65 -122 -27 -35
-134 -91 -190 -99 -44 -6 -42 2 6 26 65 34 131 114 147 180 2 9 8 36 14 61 14
55 4 160 -21 217 -48 112 -144 188 -264 209 -5 1 -12 2 -15 3 -3 1 -27 4 -54
6 -55 5 -67 11 -41 22 10 3 27 15 38 26 10 10 22 16 25 12 4 -3 0 -10 -7 -14
-19 -12 -4 -18 69 -25 l65 -6 -35 20 c-19 10 -46 20 -60 20 -16 1 -6 7 28 16
41 11 57 12 68 3 8 -6 14 -9 14 -5 0 9 -28 41 -96 110 -33 34 -66 76 -72 94
-6 18 -9 32 -7 32 16 0 85 -34 85 -42 0 -5 4 -7 8 -4 5 3 24 -10 42 -29 19
-19 37 -35 40 -35 4 0 5 24 2 53 -2 28 1 65 8 82 l11 29 20 -43 c10 -24 40
-78 65 -120z m4677 131 c14 -28 14 -60 3 -114 -4 -16 -4 -28 -2 -28 2 0 17 12
33 28 35 33 85 72 95 73 4 1 12 2 17 3 5 0 13 4 17 9 11 11 22 8 20 -5 -5 -29
-18 -58 -26 -58 -4 0 -10 -9 -13 -20 -3 -11 -18 -27 -35 -37 -33 -19 -77 -77
-68 -91 3 -5 27 -13 53 -17 27 -4 44 -9 38 -10 -53 -13 -95 -30 -95 -38 0 -5
14 -7 31 -3 17 3 47 6 66 6 26 0 34 4 30 14 -4 9 0 12 13 9 19 -5 35 -31 25
-41 -3 -3 -22 -6 -42 -8 -21 -1 -38 -3 -38 -4 0 -2 -18 -6 -50 -12 -40 -8
-122 -56 -160 -94 -32 -34 -67 -94 -83 -144 -2 -8 -6 -58 -8 -110 -2 -72 1
-108 14 -144 24 -68 90 -139 165 -176 42 -21 52 -29 32 -25 -16 3 -43 8 -60
11 -16 3 -34 9 -40 14 -5 4 -12 8 -15 8 -46 2 -134 84 -171 158 -11 24 -20 46
-20 48 0 3 -6 21 -14 39 -16 38 -18 208 -3 247 6 14 12 36 15 50 10 53 106
230 199 365 19 28 39 67 45 88 5 20 12 37 14 37 2 0 10 -13 18 -28z m-4622
-1518 c17 -16 58 -93 64 -124 3 -11 7 -30 10 -42 2 -13 8 -36 11 -53 7 -33 7
-191 0 -242 -11 -82 -93 -183 -167 -208 -39 -13 -89 -7 -89 10 0 27 34 91 83
159 56 76 91 143 79 150 -4 2 -18 -11 -32 -30 -29 -39 -58 -50 -102 -38 l-31
9 41 28 c68 44 82 84 76 213 -2 60 -6 129 -8 152 -5 43 -4 44 22 37 15 -4 34
-13 43 -21z m4543 18 c3 -5 0 -40 -5 -78 -16 -109 -15 -229 3 -256 25 -37 51
-62 82 -78 l29 -15 -37 -8 c-47 -12 -87 4 -110 44 -10 17 -20 29 -22 26 -10
-10 38 -109 66 -137 22 -21 81 -121 83 -138 1 -12 6 -22 11 -22 21 0 -21 -30
-44 -32 -67 -4 -179 88 -195 161 -3 11 -7 31 -10 44 -24 96 -24 169 0 290 22
114 120 245 149 199z m-5336 -389 c13 -10 23 -21 21 -25 -2 -4 5 -14 16 -22
11 -9 16 -16 11 -16 -5 0 -3 -7 4 -15 6 -8 12 -30 12 -50 0 -19 2 -35 5 -35 3
0 25 20 49 45 50 51 108 84 155 87 32 3 32 2 32 -39 -1 -44 -37 -133 -55 -133
-6 0 -5 6 2 15 9 10 9 15 1 15 -10 0 -15 -14 -12 -33 1 -5 -23 -36 -54 -69
-53 -57 -89 -120 -82 -142 2 -5 16 5 33 23 35 39 90 64 123 56 43 -11 83 -59
88 -107 5 -35 3 -40 -8 -31 -31 25 -86 26 -131 1 -58 -31 -62 -35 -83 -92 -16
-41 -17 -55 -7 -92 13 -49 45 -104 85 -146 26 -28 127 -86 162 -92 81 -15 106
-16 122 -8 14 8 8 11 -30 17 -62 9 -87 32 -87 79 0 20 4 44 10 54 23 42 60
127 60 140 0 7 5 12 11 10 12 -4 28 -32 64 -111 21 -46 34 -60 63 -73 29 -12
34 -17 22 -24 -34 -22 -72 -11 -112 32 -39 42 -47 44 -27 6 17 -31 68 -76 96
-82 13 -4 37 1 56 10 40 20 97 74 97 91 0 15 -16 17 -25 3 -3 -5 -23 -10 -44
-10 -31 0 -43 6 -65 32 -27 34 -35 85 -15 105 9 9 22 5 50 -14 31 -20 47 -24
75 -20 62 10 135 83 150 149 21 90 27 170 17 214 -10 42 -8 52 12 90 13 24 26
58 30 75 10 43 12 40 33 -66 12 -58 4 -217 -12 -243 -4 -7 -5 -15 -3 -19 4 -7
-8 -74 -27 -153 -8 -32 -50 -120 -58 -120 -4 0 -8 -7 -8 -15 0 -9 -31 -47 -69
-86 -75 -75 -143 -112 -241 -134 -56 -12 -171 -12 -190 0 -6 4 -24 8 -41 10
-59 8 -221 128 -212 157 2 5 -1 8 -5 8 -8 0 -53 73 -53 85 0 5 -2 13 -19 65
-21 64 -27 127 -29 285 -1 94 -4 177 -6 185 -2 8 -6 33 -9 55 -6 44 -10 64
-25 112 -9 31 -9 31 22 27 18 -2 42 -12 55 -21z m6144 12 c-4 -5 -8 -14 -9
-20 -1 -5 -7 -30 -14 -55 -17 -71 -19 -85 -24 -265 -8 -250 -10 -262 -47 -365
-27 -77 -54 -118 -107 -169 -43 -40 -167 -108 -178 -97 -3 2 -21 -1 -41 -8
-75 -26 -218 -5 -311 46 -87 47 -216 191 -225 250 -1 7 -5 18 -8 24 -4 6 -9
22 -12 37 -3 15 -7 35 -10 45 -3 9 -8 33 -11 52 -3 19 -8 55 -12 80 -13 73 -9
292 4 315 9 14 12 16 13 5 0 -8 12 -37 27 -65 24 -45 26 -61 28 -170 2 -124 3
-136 28 -195 38 -89 157 -153 197 -105 7 8 18 15 25 15 8 0 15 6 18 13 6 16
36 -21 37 -46 0 -20 -17 -52 -42 -79 -20 -20 -69 -24 -99 -7 -33 17 -40 6 -17
-28 30 -42 111 -87 143 -79 31 8 95 69 95 90 0 12 -10 6 -31 -19 -24 -27 -39
-35 -64 -35 -49 0 -51 16 -7 42 27 15 44 34 52 57 25 71 52 123 59 115 4 -5
18 -34 31 -64 13 -30 29 -61 34 -69 6 -7 11 -18 13 -25 15 -63 15 -65 -10 -90
-16 -16 -42 -27 -73 -32 -43 -6 -46 -8 -24 -16 19 -7 61 -5 120 7 26 5 62 22
98 46 24 16 45 29 48 29 10 0 34 28 34 39 0 6 4 11 8 11 9 0 44 57 50 80 23
88 6 157 -47 197 -47 36 -91 45 -148 30 -52 -14 -24 82 34 116 49 28 90 15
161 -51 71 -67 11 47 -74 139 -74 82 -118 167 -109 211 6 27 9 28 43 22 36 -7
102 -43 130 -70 7 -8 19 -17 26 -21 7 -5 20 -19 29 -33 l17 -24 0 36 c0 88 65
163 142 164 9 0 14 -5 10 -11z"/>
<path d="M2260 6487 c0 -12 8 -37 18 -54 19 -36 99 -123 112 -123 5 0 15 -6
23 -14 7 -8 38 -26 68 -41 30 -14 65 -32 80 -39 32 -16 189 -22 173 -6 -6 6
-24 12 -40 14 -16 3 -49 9 -74 15 -25 7 -53 13 -63 16 -32 7 -109 50 -114 62
-3 7 -8 11 -13 8 -15 -9 -86 64 -120 124 -37 65 -50 75 -50 38z"/>
<path d="M4352 6457 c-21 -43 -101 -127 -121 -127 -5 0 -11 -4 -13 -8 -14 -34
-183 -94 -285 -101 -7 -1 -13 -5 -13 -11 0 -14 104 -13 154 2 121 35 261 140
301 225 32 68 11 87 -23 20z"/>
<path d="M1547 5883 c-12 -11 -8 -3338 4 -3438 14 -123 16 -130 43 -240 5 -18
46 -109 68 -150 24 -45 91 -129 128 -161 22 -19 36 -31 86 -73 45 -37 204
-105 297 -126 10 -2 28 -7 40 -11 25 -9 34 -10 102 -18 28 -3 73 -10 100 -16
28 -5 64 -9 80 -9 17 1 89 -1 160 -5 72 -3 221 -8 333 -10 191 -4 205 -6 250
-29 26 -13 56 -38 67 -55 25 -39 31 -39 50 -2 9 17 22 30 30 30 8 0 15 4 15 9
0 5 8 11 18 15 9 3 31 11 47 17 17 6 84 12 150 14 66 1 192 5 280 9 88 4 219
8 291 10 72 1 135 5 140 8 5 4 32 9 59 12 60 7 92 13 103 20 5 3 20 7 35 10
52 9 203 79 257 119 61 45 120 103 163 160 29 39 105 183 112 214 3 10 9 38
16 63 14 57 19 84 27 140 4 25 6 822 4 1773 l-2 1727 -1773 0 c-976 0 -1777
-3 -1780 -7z m3506 -185 c7 -142 -9 -3236 -16 -3303 -15 -135 -68 -290 -124
-363 -76 -100 -104 -132 -118 -132 -7 0 -16 -7 -19 -16 -3 -8 -10 -12 -16 -9
-5 3 -10 1 -10 -4 0 -23 -175 -109 -252 -125 -13 -3 -38 -9 -56 -15 -18 -5
-36 -10 -40 -10 -4 -1 -20 -3 -37 -6 -70 -13 -116 -15 -430 -20 -339 -6 -458
-14 -510 -35 -16 -6 -31 -11 -33 -10 -2 1 -17 -12 -33 -29 -27 -29 -29 -30
-39 -11 -6 11 -14 19 -18 18 -4 0 -29 9 -57 22 -27 13 -52 23 -55 23 -3 0 -21
4 -40 9 -19 5 -161 9 -315 8 -291 0 -502 15 -595 45 -10 3 -29 8 -42 11 -13 3
-27 6 -33 8 -5 2 -23 7 -40 11 -44 12 -203 95 -231 122 -14 13 -27 23 -30 23
-8 0 -94 89 -94 97 0 3 -9 13 -19 22 -26 23 -120 211 -105 211 3 0 0 9 -6 19
-5 11 -13 37 -16 58 -3 21 -9 49 -12 63 -3 14 -7 796 -9 1738 l-3 1712 1724 0
1723 0 6 -132z"/>
<path d="M3190 5668 c-34 -12 -36 -16 -17 -31 8 -6 18 -28 21 -48 3 -20 9 -44
12 -55 4 -10 -6 -3 -22 16 -16 19 -36 42 -45 51 -9 9 -19 23 -21 30 -3 9 -21
14 -51 14 -48 0 -62 -9 -29 -19 13 -4 23 -23 30 -58 7 -28 10 -53 8 -56 -3 -2
-1 -13 5 -24 11 -21 3 -61 -12 -53 -5 4 -9 -1 -9 -10 0 -12 9 -15 40 -13 45 3
50 12 19 37 -12 9 -23 29 -24 43 -2 15 -6 41 -10 58 -7 31 -7 31 14 13 12 -9
21 -23 21 -30 0 -7 4 -13 9 -13 6 0 24 -20 42 -45 49 -69 62 -61 55 34 -3 43
-8 91 -12 105 -3 15 -1 32 5 40 16 19 2 26 -29 14z"/>
<path d="M3403 5612 c-5 -126 -8 -143 -27 -158 -11 -8 -18 -14 -15 -15 50 -8
79 -8 79 1 0 5 -5 10 -11 10 -8 0 -9 25 -5 82 6 87 16 116 17 52 1 -81 11
-149 22 -156 17 -11 27 -10 27 2 0 6 7 27 16 48 10 20 18 42 19 47 2 6 10 26
19 45 l16 35 -6 -45 c-6 -38 -11 -83 -13 -112 -1 -5 -8 -8 -16 -8 -8 0 -15 -6
-15 -13 0 -8 6 -14 13 -14 6 0 27 -3 45 -7 31 -7 41 1 23 20 -6 5 -5 31 0 64
5 30 12 71 14 90 3 19 11 37 17 41 17 11 8 17 -30 24 -25 4 -34 1 -39 -12 -3
-10 -15 -38 -26 -63 -11 -25 -19 -49 -18 -53 1 -5 -2 -6 -7 -3 -9 5 -24 90
-24 131 0 17 -7 21 -37 22 l-36 2 -2 -57z"/>
<path d="M2866 5598 c-27 -9 -54 -22 -60 -28 -8 -8 -7 -10 5 -5 9 3 22 -1 29
-10 7 -8 9 -15 6 -15 -4 0 -2 -9 4 -21 6 -11 13 -28 15 -37 3 -9 9 -35 14 -57
6 -24 6 -44 1 -51 -13 -15 -1 -25 19 -15 9 5 18 9 21 8 8 -1 104 35 113 43 4
4 1 19 -6 33 -16 30 -27 26 -27 -9 0 -17 -7 -25 -26 -30 -30 -8 -37 -1 -52 44
-10 28 -9 34 5 39 9 4 21 -1 29 -12 22 -29 29 -8 13 35 -16 45 -31 52 -39 19
-3 -12 -10 -24 -16 -26 -9 -3 -34 51 -34 75 0 17 55 15 70 -3 18 -22 31 -8 18
20 -13 28 -31 29 -102 3z"/>
<path d="M3722 5597 c-46 -26 -84 -107 -75 -161 6 -38 46 -70 88 -70 33 0 89
49 106 92 37 97 -37 184 -119 139z"/>
<path d="M2725 5550 c-4 -6 -10 -8 -15 -5 -22 14 -34 -54 -15 -85 2 -4 7 -21
10 -38 l5 -31 -34 32 c-19 18 -39 42 -45 54 -13 25 -38 22 -91 -14 -19 -12
-39 -23 -44 -23 -9 0 -35 -30 -36 -42 0 -3 9 -4 20 -1 15 4 22 -2 30 -23 6
-16 13 -36 17 -44 3 -8 7 -17 7 -20 1 -3 8 -15 15 -28 l12 -23 -28 17 c-62 40
-101 77 -96 90 8 21 -8 17 -50 -12 -39 -26 -41 -44 -5 -44 12 0 44 -17 72 -38
138 -103 149 -102 110 9 -14 41 -27 82 -29 93 -2 10 -9 23 -14 30 -12 15 13
50 31 43 8 -2 27 -30 43 -61 17 -31 35 -66 42 -78 8 -15 9 -28 2 -40 -11 -21
4 -24 46 -8 26 10 30 34 7 36 -7 1 -16 2 -21 3 -5 0 -26 34 -46 74 -25 50 -29
63 -13 42 13 -16 44 -52 70 -80 38 -39 50 -47 57 -36 6 9 6 24 0 39 -5 14 -7
27 -5 29 3 3 1 16 -4 29 -6 14 -12 35 -14 47 -2 12 -7 31 -10 42 -4 11 11 -16
34 -59 23 -47 38 -87 35 -97 -6 -17 -3 -17 31 -5 39 13 58 36 31 36 -9 0 -19
10 -23 23 -13 41 -54 126 -64 132 -6 4 -8 15 -5 26 7 20 -9 27 -20 9z"/>
<path d="M3930 5506 c0 -13 -18 -56 -41 -95 -33 -58 -45 -71 -60 -66 -33 11
-21 -2 27 -29 57 -32 58 -32 50 -2 -7 28 14 83 24 66 4 -6 5 -33 3 -60 -3 -41
0 -51 16 -59 33 -18 36 -13 33 46 -3 53 -1 59 20 68 35 15 54 61 37 91 -7 13
-14 22 -17 20 -2 -3 -24 7 -48 20 l-44 25 0 -25z"/>
<path d="M4217 5322 c-25 -27 -21 -31 19 -25 33 6 35 4 26 -13 -6 -10 -29 -39
-51 -64 -23 -24 -41 -48 -41 -52 0 -4 -11 -10 -25 -14 -14 -3 -25 -9 -25 -13
0 -10 20 -37 20 -27 0 5 11 -1 25 -14 24 -22 32 -18 26 14 -1 5 9 21 23 35 14
14 43 46 65 71 32 36 41 41 46 28 4 -9 1 -26 -5 -38 -18 -34 -2 -37 26 -5 l25
29 -58 53 c-32 29 -63 53 -69 53 -6 0 -18 -8 -27 -18z"/>
<path d="M3349 5325 c-1 -5 -2 -80 -3 -165 -2 -168 -14 -221 -63 -267 -13 -12
-23 -25 -23 -28 0 -6 -4 -11 -48 -65 -29 -35 -56 -100 -67 -162 -13 -72 -29
-46 -28 45 1 105 14 145 72 222 44 58 57 87 35 78 -7 -3 -14 -9 -14 -14 0 -5
-30 -37 -67 -71 -37 -35 -78 -75 -92 -89 -42 -43 -59 -117 -57 -256 1 -96 -2
-119 -11 -111 -7 6 -13 15 -13 20 0 12 -26 38 -37 38 -5 0 -19 10 -31 23 -26
28 -52 49 -52 43 0 -3 10 -24 22 -47 35 -67 35 -122 2 -172 -34 -51 -35 -56
-39 -132 -3 -49 1 -69 21 -105 24 -44 64 -82 64 -60 0 5 -4 10 -10 10 -5 0
-10 6 -10 14 0 8 -5 16 -11 18 -12 4 -16 74 -7 123 7 33 37 114 49 130 4 6 5
30 3 55 -4 38 -2 43 9 30 8 -8 22 -35 31 -59 19 -49 86 -155 93 -147 3 2 -1
14 -8 27 -15 29 -15 441 0 482 17 44 26 32 26 -35 0 -62 2 -76 25 -173 7 -27
13 -56 14 -63 1 -7 8 -18 15 -25 11 -10 12 -7 8 13 -4 14 0 50 9 80 8 30 17
62 19 71 8 37 84 166 120 205 58 64 88 138 94 234 1 10 4 11 9 3 12 -19 4
-149 -12 -201 -7 -20 -12 -41 -22 -91 -3 -14 -7 -28 -10 -33 -23 -37 -23 -110
1 -266 4 -29 31 -92 39 -92 2 0 3 30 3 68 1 75 15 139 43 184 l18 31 6 -49 c6
-51 24 -125 54 -229 8 -30 9 -29 44 46 20 42 40 79 46 83 5 3 13 -13 17 -37 4
-23 10 -51 12 -62 5 -26 40 -94 58 -112 8 -8 27 -35 41 -59 33 -56 28 -109
-16 -164 l-30 -38 -72 30 c-76 31 -80 32 -162 48 -27 6 -51 11 -52 13 -7 7 17
83 29 92 8 5 15 15 16 20 2 6 4 11 6 13 3 4 42 -50 44 -60 3 -18 3 -24 6 -33
1 -5 3 -19 3 -29 2 -16 9 -11 33 22 45 62 62 48 43 -35 -5 -27 8 -30 27 -7 17
21 19 121 3 160 -7 17 -10 34 -7 38 4 3 2 6 -4 6 -6 0 -21 -25 -33 -55 -12
-30 -29 -60 -39 -67 -9 -7 -13 -9 -9 -4 4 5 1 21 -8 37 -8 16 -15 31 -15 34 0
10 -20 61 -39 100 l-18 40 -1 -40 c-1 -22 -12 -64 -26 -93 -13 -29 -24 -55
-25 -57 0 -3 0 -22 0 -43 0 -37 -1 -38 -34 -34 -39 5 -168 -14 -271 -39 -22
-5 -49 -12 -59 -14 -10 -2 -40 -16 -65 -30 -25 -14 -58 -31 -73 -37 -14 -7
-37 -29 -50 -51 -13 -21 -28 -44 -33 -50 -32 -37 15 -154 72 -181 18 -9 33
-20 33 -26 0 -5 3 -9 8 -8 4 1 32 -9 62 -22 30 -14 58 -24 62 -23 15 5 53 -48
54 -76 1 -17 5 -46 8 -65 8 -41 -17 -71 -68 -80 -35 -7 -75 -43 -99 -91 -8
-17 -24 -39 -36 -49 -12 -11 -21 -24 -21 -29 0 -6 -7 -18 -15 -27 -21 -23 -36
-260 -21 -310 13 -43 26 -114 24 -130 -3 -27 14 -62 46 -95 29 -29 31 -35 22
-62 -6 -17 -20 -43 -31 -59 -28 -40 -105 -113 -127 -120 -10 -3 -18 -10 -18
-15 0 -5 -4 -9 -10 -9 -5 0 -23 -12 -39 -27 -16 -16 -49 -45 -73 -65 -81 -69
-252 -238 -245 -244 3 -3 27 9 54 27 51 35 55 38 108 84 52 45 60 51 66 51 3
-1 16 10 30 24 13 14 42 39 63 55 32 23 38 25 32 9 -4 -10 -9 -26 -11 -34 -2
-8 -10 -34 -19 -57 -8 -24 -11 -43 -7 -43 17 0 54 95 52 131 -1 28 4 40 21 51
13 9 36 28 52 43 18 16 26 20 22 10 -3 -10 -2 -15 5 -13 6 2 32 44 57 93 48
94 65 115 70 89 3 -12 7 -12 18 -3 17 14 6 36 -48 95 -21 23 -41 53 -43 66 -5
31 -19 141 -20 153 0 6 -3 15 -7 20 -3 6 -4 30 -1 55 2 25 5 77 6 117 1 51 7
78 19 92 9 11 24 31 33 45 14 20 21 24 35 16 31 -16 42 -12 28 10 -7 11 -18
20 -25 20 -7 0 -13 8 -13 18 0 20 39 62 58 62 7 0 12 4 12 10 0 5 12 13 28 16
15 4 38 12 52 19 14 7 41 15 60 18 19 3 47 10 63 16 15 6 27 8 27 5 0 -4 6 -2
13 4 11 9 57 15 100 13 14 -1 16 -5 8 -19 -6 -11 -16 -37 -24 -60 l-14 -41 44
6 c39 5 43 4 37 -12 -5 -13 -3 -16 7 -13 16 5 25 58 10 58 -6 0 -11 9 -11 20
0 22 -15 27 -23 8 -3 -7 -6 0 -6 15 l-1 29 33 -19 c39 -23 73 -82 63 -109 -6
-16 -9 -16 -17 -4 -8 13 -10 13 -18 0 -7 -10 -6 -17 2 -22 7 -4 8 -8 3 -8 -5
0 -24 9 -42 21 -29 18 -40 19 -76 11 -24 -5 -50 -13 -60 -17 -11 -4 -18 0 -23
14 -4 14 -15 21 -32 21 -30 0 -26 -24 5 -28 23 -4 30 -18 10 -20 -29 -2 -62
-12 -72 -23 -8 -8 5 -10 51 -6 35 3 68 9 74 12 6 4 5 -5 -3 -21 -15 -30 -13
-64 3 -64 5 0 12 12 15 26 5 19 9 22 15 13 10 -17 16 -11 24 24 6 22 4 26 -9
21 -9 -3 -16 -1 -16 5 0 6 16 11 36 11 l36 0 -4 -57 c-2 -32 -8 -67 -13 -77
-7 -16 -5 -18 13 -14 19 5 20 4 11 -14 -16 -30 0 -36 21 -8 11 14 15 27 10 28
-6 2 -10 27 -10 56 0 29 -5 57 -12 64 -9 9 -9 12 -1 12 14 0 23 -13 27 -37 14
-76 16 -112 6 -118 -5 -3 -10 -15 -10 -27 0 -16 3 -18 14 -9 11 10 14 7 12
-14 -1 -30 0 -29 -31 -9 -13 8 -41 17 -62 20 -90 10 -103 14 -109 40 -6 24 -9
25 -53 19 -25 -4 -54 -15 -63 -25 -17 -18 -17 -19 17 -16 20 2 44 11 54 20 17
16 19 16 24 -3 7 -27 -34 -38 -130 -35 -41 2 -73 -1 -73 -7 0 -5 6 -9 13 -10
6 0 21 -3 32 -6 11 -4 76 -5 144 -4 141 2 156 -2 253 -66 73 -49 89 -76 77
-133 -12 -54 -34 -64 -78 -35 -19 14 -43 25 -51 25 -9 0 -21 5 -28 12 -7 7
-12 9 -12 5 0 -3 -17 0 -39 8 -21 7 -45 13 -52 13 -43 -3 -50 2 -39 23 8 14
15 17 24 10 15 -12 41 2 32 18 -4 6 -2 11 3 11 6 0 11 -6 11 -12 0 -9 4 -8 10
2 11 17 14 117 3 106 -5 -4 -14 -22 -21 -39 l-12 -32 5 38 c7 45 -4 48 -28 7
-14 -22 -15 -34 -7 -49 14 -27 13 -41 -4 -35 -7 3 -23 -6 -34 -20 -24 -32 -73
-37 -65 -7 8 32 -14 33 -27 1 -7 -16 -15 -28 -19 -26 -9 6 -51 -12 -51 -22 0
-5 28 -10 63 -11 34 -1 80 -3 102 -6 122 -13 136 -16 127 -28 -6 -7 -15 -36
-20 -65 l-9 -53 31 3 c28 3 31 7 34 41 2 21 -1 37 -7 37 -6 0 -11 9 -11 20 0
23 11 25 42 8 22 -13 68 -57 68 -66 0 -24 -27 -85 -42 -93 -14 -7 -18 -6 -16
3 2 9 -6 12 -22 10 -52 -8 -55 -7 -54 11 2 14 -1 15 -12 6 -8 -6 -14 -8 -14
-4 0 4 -6 3 -12 -2 -22 -17 -84 -34 -101 -27 -10 3 -17 17 -17 33 -1 23 -2 24
-14 9 -9 -12 -22 -16 -51 -12 -32 4 -36 2 -26 -10 9 -11 7 -15 -11 -20 -22 -7
-22 -7 -3 -16 11 -6 34 -15 50 -22 l30 -12 -25 -4 c-42 -6 -44 -19 -4 -26 26
-5 33 -11 26 -18 -8 -8 -7 -15 4 -25 18 -19 19 -107 0 -122 -57 -48 29 -191
115 -191 34 0 59 23 94 86 17 31 34 50 42 47 17 -7 0 -40 -35 -70 -29 -24 -22
-44 8 -25 34 21 39 13 12 -16 -32 -33 -97 -82 -109 -82 -15 0 -41 -37 -48 -69
-3 -16 -17 -46 -31 -66 -13 -20 -24 -38 -24 -40 0 -5 -62 -98 -70 -105 -15
-12 -52 -72 -47 -76 7 -7 59 18 77 37 19 20 27 32 100 159 54 95 114 170 137
170 4 0 31 37 58 82 28 45 74 105 103 133 74 69 106 130 110 215 4 61 8 72 53
145 22 34 42 72 44 84 2 11 7 27 11 33 8 13 14 147 17 383 2 112 0 123 -21
150 -43 55 -72 65 -176 61 l-94 -3 1 62 c2 55 21 105 35 91 2 -3 17 1 33 10
16 8 31 14 34 14 14 -2 102 47 125 70 61 60 87 139 61 188 -6 12 -10 22 -8 22
10 0 -71 79 -92 90 -24 12 -24 13 -5 26 10 8 35 28 54 46 31 28 34 36 33 82
-1 67 -4 77 -40 133 -31 49 -92 176 -98 203 -7 33 -56 165 -65 174 -9 9 -8
-31 2 -49 4 -9 3 -62 -2 -75 -3 -7 -7 -23 -8 -36 -3 -18 -40 -56 -46 -46 -3 5
-8 28 -11 52 -3 23 -8 47 -11 52 -11 17 -12 141 -2 167 5 13 10 36 12 50 2 14
7 43 11 64 9 46 -10 51 -21 5 -4 -18 -8 -35 -9 -38 -1 -3 -5 -18 -10 -35 -9
-34 -30 -68 -62 -103 -24 -26 -47 -21 -38 9 4 10 8 30 11 44 2 13 9 36 14 50
5 14 7 25 5 25 -2 0 0 11 5 26 29 74 29 145 1 217 -6 15 -8 27 -5 27 2 0 0 9
-6 21 -6 11 -13 29 -16 40 -2 10 -6 28 -8 39 -3 11 -8 25 -11 30 -3 5 -8 28
-11 50 -5 42 -21 92 -25 75z m109 -1259 c81 -14 138 -33 198 -66 49 -28 106
-72 100 -77 -2 -3 4 -13 15 -24 26 -26 24 -34 -12 -50 -27 -11 -33 -10 -43 2
-27 36 -97 76 -178 104 -32 10 -58 23 -58 28 0 4 5 5 11 1 6 -3 16 0 21 7 7
11 11 11 15 2 7 -20 35 -16 31 4 -4 22 -85 40 -102 23 -8 -8 -7 -13 4 -20 24
-15 4 -22 -34 -12 -20 6 -77 10 -128 10 -124 0 -224 -26 -305 -80 -23 -16 -46
-28 -52 -28 -5 0 -13 -9 -16 -20 -3 -11 -10 -20 -14 -20 -4 0 -13 -11 -19 -25
-13 -29 -34 -25 -50 11 -22 46 27 117 107 156 25 13 48 23 51 23 3 0 15 6 26
13 23 12 92 29 151 37 19 2 39 7 42 11 6 6 184 -1 239 -10z m-34 -107 c71 -22
132 -44 154 -55 23 -12 23 -12 -15 -35 -93 -56 -90 -55 -54 -16 29 30 32 39
21 52 -22 27 -59 19 -76 -18 -19 -40 -55 -68 -47 -36 3 10 9 19 14 19 15 0 10
47 -6 60 -31 26 -61 -2 -91 -85 -7 -18 -8 -18 -11 5 -13 93 -12 91 -46 88 -31
-3 -32 -5 -35 -52 l-3 -48 -35 40 c-25 29 -39 39 -54 35 -24 -6 -25 -15 -4
-54 19 -37 10 -52 -13 -20 -20 30 -82 56 -96 42 -8 -8 -5 -22 8 -48 11 -21 21
-42 24 -47 2 -5 -13 4 -34 19 -20 16 -46 29 -56 30 -25 2 -25 -25 1 -53 21
-22 28 -44 8 -24 -16 16 -45 15 -51 0 -3 -7 -6 1 -6 18 -2 62 125 161 229 179
19 3 36 8 38 10 8 8 206 3 236 -6z m53 -175 c46 -20 88 -60 69 -67 -8 -3 -17
0 -19 7 -3 7 -21 22 -41 34 -31 19 -37 19 -50 6 -8 -8 -20 -13 -27 -12 -6 2
-14 -3 -16 -9 -3 -8 4 -13 16 -13 12 0 21 -4 21 -10 0 -5 11 -10 25 -10 14 0
25 -5 25 -10 0 -6 12 -15 26 -21 15 -5 24 -12 21 -15 -3 -3 -27 6 -53 20 -92
48 -240 56 -312 17 -26 -14 -32 -14 -32 -1 0 6 9 10 19 10 10 0 21 7 25 15 3
8 13 15 23 15 15 0 14 4 -6 19 l-25 19 55 10 c30 6 65 13 79 15 39 7 142 -5
177 -19z m-77 -102 c26 -10 50 -27 57 -42 14 -27 16 -110 3 -150 -12 -41 -22
-1 -16 65 6 67 -5 95 -38 95 -28 0 -36 -16 -37 -73 l-1 -42 -8 34 c-5 19 -6
40 -4 46 3 6 -3 22 -13 34 -14 17 -25 21 -45 16 -27 -7 -38 -29 -34 -70 2 -13
-1 -22 -5 -19 -5 3 -9 14 -9 25 0 28 -48 75 -63 60 -11 -11 -12 -14 -22 -106
-10 -90 -22 -87 -24 7 -2 76 0 86 21 105 13 11 32 23 43 26 46 11 152 5 195
-11z m253 -254 c-30 -14 -29 -28 1 -28 13 0 31 -3 40 -6 11 -4 16 -1 16 10 0
9 -5 16 -12 16 -6 0 -9 3 -6 6 10 10 52 -23 72 -56 18 -31 18 -31 -3 -18 -12
7 -21 16 -21 20 0 5 -7 8 -15 8 -22 0 -8 -24 25 -44 17 -9 30 -23 29 -29 0 -9
-2 -9 -6 1 -8 21 -23 13 -23 -14 0 -14 4 -23 10 -19 15 9 12 -12 -5 -45 -18
-34 -29 -40 -20 -10 8 24 -9 55 -40 76 -36 24 -135 27 -159 6 -18 -17 -18 -16
-1 17 22 43 102 121 123 120 13 0 11 -3 -5 -11z m131 -265 c-4 -21 -11 -46
-16 -57 -7 -12 -7 -21 1 -25 15 -9 2 -51 -16 -51 -12 0 -14 -7 -8 -32 5 -18 8
-64 9 -102 1 -67 0 -69 -38 -102 -21 -18 -42 -32 -45 -30 -3 3 -17 -1 -30 -8
l-24 -13 27 -7 c36 -9 33 -28 -3 -23 -40 7 -43 0 -14 -31 22 -24 24 -33 18
-76 -13 -99 -80 -203 -147 -231 -36 -14 -39 -14 -58 5 -18 18 -20 31 -18 110
2 54 7 89 13 87 6 -2 25 4 43 14 27 16 32 16 32 4 0 -8 5 -15 10 -15 6 0 10 4
10 9 0 5 9 7 20 4 31 -8 34 20 5 63 -14 21 -24 44 -23 53 2 8 21 25 43 38 60
35 62 36 69 61 6 18 4 22 -16 22 -19 1 -17 4 16 21 l38 21 -22 15 -23 16 23
19 c12 10 28 18 36 18 8 0 14 8 14 17 0 9 -3 13 -6 10 -9 -9 -44 11 -44 25 0
6 3 9 6 5 3 -3 16 3 27 14 18 17 19 21 7 29 -11 7 -8 11 15 21 22 9 26 13 13
16 -14 4 -11 13 20 63 20 33 38 59 40 60 2 0 0 -17 -4 -37z"/>
<path d="M2280 5276 c0 -8 -10 -22 -21 -30 -23 -15 -20 -46 3 -46 8 0 20 -9
28 -20 8 -11 19 -20 25 -20 14 0 65 -66 70 -92 7 -33 12 -33 40 0 14 17 35 34
45 37 11 4 20 11 20 17 0 6 6 16 14 22 12 9 9 15 -15 34 l-29 24 5 -35 c4 -23
1 -38 -9 -46 -12 -11 -26 -1 -83 60 -43 46 -67 78 -65 90 2 12 -3 19 -12 19
-9 0 -16 -6 -16 -14z"/>
<path d="M4381 5195 c2 -11 -5 -33 -16 -50 -10 -16 -33 -53 -52 -82 -18 -28
-36 -58 -39 -66 -9 -26 15 -29 50 -8 18 12 40 21 47 21 8 0 37 12 64 25 28 14
58 25 68 25 20 0 21 9 3 33 -16 20 -38 23 -30 3 3 -9 -18 -25 -65 -50 l-69
-36 26 47 c27 49 51 78 71 84 7 3 -4 20 -24 39 -30 29 -36 31 -34 15z"/>
<path d="M2102 5078 c3 -7 -6 -21 -19 -31 -29 -23 -30 -60 -1 -87 37 -34 67
-36 118 -8 38 21 49 24 63 13 40 -29 2 -69 -56 -58 -38 7 -34 -12 7 -31 43
-20 43 -20 49 5 3 12 10 18 16 15 6 -4 15 11 22 32 10 36 9 43 -11 70 -20 27
-28 30 -65 28 -24 -1 -50 -10 -60 -19 -19 -20 -61 -23 -68 -4 -8 24 5 37 38
37 48 0 52 17 9 35 -44 18 -47 18 -42 3z"/>
<path d="M4530 5017 c0 -22 -10 -31 -66 -57 -36 -16 -70 -30 -75 -30 -5 0 -9
-5 -9 -11 0 -6 -9 -8 -20 -4 -20 6 -20 6 -3 -29 16 -34 33 -48 33 -26 0 5 18
19 41 30 39 21 40 21 30 1 -6 -11 -18 -26 -26 -35 -22 -22 -29 -68 -13 -89 13
-17 15 -17 28 10 43 83 52 94 66 82 11 -9 23 -8 54 6 33 15 40 23 40 47 0 15
-3 28 -7 28 -5 0 -17 18 -27 40 -27 55 -46 71 -46 37z"/>
<path d="M4641 4827 c-6 -15 -14 -27 -19 -27 -7 0 -57 -42 -123 -105 -29 -28
-35 -60 -10 -49 9 3 45 8 81 10 36 2 77 9 93 15 23 10 31 9 47 -6 16 -14 20
-15 21 -4 2 27 -3 44 -17 59 -13 13 -15 12 -20 -8 -4 -14 -14 -22 -28 -23 -21
0 -45 -4 -98 -14 -16 -2 -28 -3 -28 -2 0 2 29 27 65 55 36 29 65 48 65 42 0
-5 7 -10 15 -10 12 0 13 5 3 28 -7 15 -18 36 -25 46 -12 18 -13 18 -22 -7z"/>
<path d="M1900 4694 c-18 -36 -30 -68 -27 -70 3 -3 14 0 26 8 16 10 23 10 33
0 6 -6 17 -12 24 -12 7 0 34 -10 61 -22 26 -12 53 -22 58 -22 6 -1 9 -9 7 -19
-2 -11 4 -17 14 -17 10 0 14 3 11 6 -3 4 -2 15 4 26 20 38 19 55 -4 54 -31 -3
-78 14 -71 25 3 5 22 8 42 7 46 -1 79 9 79 25 0 6 4 19 8 29 6 14 2 15 -32 8
-95 -22 -103 -22 -103 0 0 22 -34 40 -75 40 -20 0 -30 -12 -55 -66z"/>
<path d="M4653 4611 c-23 -14 -30 -25 -26 -39 2 -11 0 -23 -6 -26 -6 -4 -11
-16 -11 -26 0 -26 -38 -36 -58 -16 -14 13 -14 19 -2 41 7 14 16 23 18 20 6 -5
31 25 32 38 0 4 -9 3 -20 -3 -11 -6 -20 -8 -20 -5 0 3 -9 1 -20 -5 -27 -14
-27 -79 -1 -111 15 -19 28 -23 62 -23 48 2 74 27 85 81 7 37 27 58 49 49 22
-8 19 -47 -4 -53 -15 -4 -20 -19 -12 -40 1 -1 14 3 30 8 28 10 31 22 22 81 -2
16 -46 48 -65 48 -12 0 -35 -9 -53 -19z"/>
<path d="M1850 4550 c0 -18 -2 -25 -15 -57 -7 -17 -11 -34 -8 -36 2 -3 0 -14
-6 -25 -13 -25 8 -37 24 -15 9 12 20 11 75 -3 73 -19 90 -22 108 -23 6 -1 12
-8 12 -16 0 -26 19 -16 26 13 3 15 11 43 17 62 9 29 11 59 3 67 -1 1 -17 5
-36 8 l-34 6 22 -24 c22 -23 32 -74 12 -62 -5 3 -10 0 -10 -7 0 -10 -2 -10 -8
0 -5 7 -17 12 -28 11 -10 -1 -27 -1 -38 -1 -15 2 -16 5 -6 17 7 8 21 15 31 15
11 0 19 4 19 9 0 10 -24 21 -48 21 -10 0 -34 11 -54 25 -39 27 -58 31 -58 15z"/>
<path d="M3232 4530 c-13 -28 -32 -91 -33 -107 -1 -5 -5 -16 -10 -25 -20 -38
-38 -255 -20 -244 6 4 9 11 6 16 -3 5 0 21 6 37 6 15 12 39 15 53 9 51 22 105
23 94 0 -5 9 -19 19 -30 51 -55 65 -89 71 -178 2 -42 23 3 23 51 0 47 -6 64
-61 163 -28 52 -32 80 -21 140 10 54 0 71 -18 30z"/>
<path d="M1810 4313 c-8 -133 -9 -127 33 -130 45 -4 47 1 7 22 -54 28 -36 36
70 33 67 -2 100 -7 100 -14 0 -7 7 -14 15 -18 12 -4 15 4 15 43 0 35 -4 48
-15 48 -8 0 -12 -4 -8 -9 3 -6 -13 -7 -38 -4 -24 3 -70 8 -102 11 -38 4 -57
11 -54 18 2 7 13 13 25 15 23 4 31 22 10 22 -7 0 -22 3 -34 6 -19 5 -21 1 -24
-43z"/>
<path d="M4785 4335 c-12 -18 -205 -29 -205 -12 0 6 -3 7 -7 3 -10 -9 -15
-103 -8 -133 4 -19 12 -23 40 -23 40 0 47 17 10 26 -14 3 -22 10 -19 15 3 5 0
9 -5 9 -19 0 -12 40 7 41 9 1 32 2 50 4 26 2 32 -1 32 -16 0 -11 -7 -19 -15
-19 -8 0 -15 -5 -15 -11 0 -6 20 -9 50 -7 27 2 50 4 50 6 0 1 -11 7 -25 12
-43 16 -31 40 20 40 39 0 45 -3 45 -21 0 -11 -10 -29 -22 -40 l-23 -18 32 -1
33 0 -2 80 c-2 81 -5 92 -23 65z"/>
<path d="M1909 4109 c-10 -15 -19 -38 -19 -52 0 -25 -16 -37 -51 -37 -30 0
-26 48 5 60 37 14 46 35 10 25 -16 -4 -35 -8 -42 -8 -7 0 -11 -6 -8 -12 2 -7
-1 -18 -7 -24 -8 -8 -7 -18 4 -38 19 -37 28 -43 70 -43 40 0 79 33 79 66 0 35
23 56 52 49 24 -6 26 -9 16 -36 -6 -16 -19 -34 -31 -40 -19 -11 -19 -12 -3
-21 22 -12 79 9 69 25 -4 6 -6 30 -4 52 2 40 1 42 -36 53 -53 17 -82 12 -104
-19z"/>
<path d="M4573 4129 c-15 -19 -15 -117 -1 -151 12 -26 72 -58 111 -58 25 0 97
24 97 32 0 4 5 19 11 35 6 15 13 48 16 72 4 43 3 44 -15 28 -10 -9 -21 -15
-24 -12 -2 3 -29 8 -59 11 -30 3 -63 7 -74 9 -11 2 -23 4 -26 4 -3 1 -10 10
-15 22 -8 17 -12 19 -21 8z"/>
<path d="M1950 3919 c-53 -15 -76 -28 -100 -60 -24 -34 -21 -55 17 -100 23
-27 31 -30 77 -28 62 3 98 19 125 58 36 50 24 98 -30 125 -36 18 -40 18 -89 5z"/>
<path d="M4537 3898 c-6 -40 0 -49 18 -25 12 17 14 17 29 1 26 -25 17 -58 -16
-62 -21 -2 -28 1 -28 13 0 25 -23 13 -30 -16 -20 -76 -21 -79 -5 -79 8 0 15 5
15 10 0 6 23 10 51 10 72 0 189 21 189 34 0 6 -15 17 -32 25 -41 17 -137 80
-159 104 -22 24 -26 22 -32 -15z"/>
<path d="M4472 3715 c4 -4 -2 -23 -13 -42 -23 -40 -19 -52 14 -46 15 3 54 -10
101 -32 64 -30 75 -39 65 -51 -6 -8 -23 -14 -36 -14 -21 0 -23 -3 -14 -14 16
-19 48 -26 59 -12 6 6 24 38 41 71 l32 59 -23 18 c-36 28 -49 23 -31 -13 8
-16 12 -33 9 -37 -10 -9 -181 82 -179 95 1 6 -5 14 -15 18 -9 3 -13 3 -10 0z"/>
<path d="M1938 3682 c-33 -20 -34 -38 -9 -110 22 -64 30 -73 38 -44 3 12 11
22 17 22 7 0 35 11 63 25 72 34 103 41 115 24 7 -10 8 -4 4 20 -3 19 -11 40
-17 48 -13 14 -33 18 -25 4 3 -5 -9 -16 -27 -24 -32 -16 -32 -16 -66 18 -37
39 -53 41 -93 17z"/>
<path d="M5623 4754 c-93 -77 -154 -194 -168 -322 -3 -24 -7 -48 -10 -53 -9
-13 15 -53 25 -43 5 5 11 32 14 59 6 63 10 81 31 141 19 55 66 144 78 144 4 0
7 6 7 14 0 8 3 16 8 18 13 6 66 68 61 72 -2 3 -23 -11 -46 -30z"/>
<path d="M472 3005 c-20 -15 -92 -127 -96 -150 -1 -5 -5 -16 -9 -22 -5 -7 -6
-13 -2 -13 3 0 -1 -13 -10 -30 -9 -16 -13 -30 -11 -30 3 0 1 -12 -5 -27 -37
-98 -26 -304 19 -355 8 -10 12 -18 9 -18 -10 0 28 -36 59 -57 21 -14 26 -14
19 -3 -5 8 -16 20 -26 27 -25 18 -55 90 -69 165 -10 54 -9 81 1 140 7 40 13
78 14 83 7 61 72 219 106 257 40 45 40 60 1 33z"/>
<path d="M6160 3011 c0 -5 7 -14 15 -21 8 -7 15 -16 15 -21 0 -5 8 -18 18 -29
9 -11 17 -24 17 -28 1 -4 9 -22 18 -39 10 -18 15 -33 12 -33 -3 0 -1 -9 5 -21
7 -11 13 -30 16 -42 2 -12 6 -33 9 -47 3 -14 10 -56 16 -95 17 -114 -17 -262
-72 -313 -12 -12 -20 -25 -16 -28 3 -3 14 4 24 15 9 12 23 21 30 21 7 0 12 3
11 8 -1 4 8 27 21 51 33 64 43 153 29 266 -4 28 -7 50 -8 50 -2 0 -6 17 -13
57 -3 14 -10 36 -17 47 -6 12 -8 21 -4 21 3 0 1 7 -6 15 -7 8 -10 15 -7 15 3
0 -10 27 -29 61 -18 33 -34 64 -34 68 0 4 -11 13 -25 19 -14 6 -25 8 -25 3z"/>
<path d="M6430 1745 c-14 -8 -36 -16 -50 -18 -14 -3 -45 -10 -70 -16 -25 -5
-59 -12 -77 -16 -18 -3 -45 -10 -60 -16 -15 -6 -28 -9 -28 -8 0 1 -25 -4 -55
-11 -112 -26 -205 -93 -244 -174 -20 -43 -21 -46 -31 -133 -4 -35 -11 -63 -16
-63 -5 0 -9 -6 -9 -14 0 -7 -6 -18 -13 -24 -10 -9 -12 10 -10 98 2 99 0 111
-17 120 -28 15 -64 12 -88 -7 -43 -37 -58 -49 -97 -74 -48 -31 -174 -91 -220
-105 -5 -2 -40 -14 -77 -28 -38 -13 -68 -22 -68 -20 0 3 -13 -2 -30 -11 -16
-8 -31 -15 -32 -14 -2 1 -23 -4 -48 -11 -25 -7 -50 -13 -56 -14 -17 -3 -67
-37 -84 -59 -13 -15 -16 -45 -15 -138 0 -127 0 -128 -55 -134 -8 -1 -28 -5
-45 -8 -50 -12 -79 -17 -111 -22 -17 -3 -44 -9 -59 -15 -14 -6 -30 -8 -34 -5
-5 2 -23 0 -42 -5 -36 -11 -113 -22 -144 -22 -11 0 -36 -4 -56 -9 -20 -5 -56
-11 -81 -13 -24 -2 -60 -7 -79 -10 -34 -6 -103 -12 -229 -21 -36 -2 -78 -7
-95 -10 -51 -8 -380 -20 -570 -20 -179 0 -456 10 -570 21 -33 3 -76 7 -95 9
-131 9 -204 17 -211 20 -4 3 -35 8 -70 11 -77 8 -104 12 -104 14 0 2 -11 4
-25 5 -50 5 -125 16 -140 20 -8 3 -32 7 -53 9 -21 3 -41 8 -46 11 -5 2 -24 7
-42 9 -57 8 -102 17 -111 22 -5 3 -19 7 -31 9 -12 2 -31 6 -42 9 -11 2 -26 5
-32 5 -7 1 -21 9 -31 19 -15 15 -18 29 -14 73 10 115 5 179 -15 179 -7 0 -13
4 -13 10 0 9 -54 42 -77 46 -43 8 -220 84 -408 177 -121 60 -235 111 -253 114
-48 8 -72 -18 -72 -78 0 -26 5 -60 10 -75 16 -41 6 -59 -20 -37 -30 25 -54 81
-74 170 -6 27 -56 102 -83 123 -17 14 -30 21 -93 48 -23 10 -90 29 -115 33 -5
1 -21 5 -34 10 -13 5 -38 11 -55 14 -17 2 -58 9 -91 15 -33 7 -73 13 -90 16
-16 2 -37 7 -45 10 -8 3 -35 8 -59 11 l-44 5 21 -30 c12 -16 22 -32 22 -35 0
-6 112 -117 119 -117 8 0 64 -60 60 -64 -2 -1 -37 -24 -78 -51 -82 -54 -134
-102 -139 -129 -3 -15 2 -17 34 -12 20 4 41 9 46 12 16 10 232 6 261 -5 15 -6
31 -10 35 -9 11 3 83 -23 127 -46 21 -11 62 -43 90 -71 51 -50 62 -75 70 -155
2 -19 7 -54 10 -77 3 -24 6 -46 7 -50 0 -5 9 -20 19 -35 10 -14 19 -28 19 -31
0 -6 70 -77 77 -77 2 0 10 -6 18 -13 7 -8 45 -24 83 -36 66 -22 71 -22 101 -6
44 22 73 71 69 118 -2 20 -2 37 0 37 1 0 14 -7 27 -16 23 -15 44 -22 73 -23
10 -1 13 -22 11 -88 -3 -99 14 -145 69 -195 48 -42 189 -108 265 -123 9 -2 22
-7 28 -10 5 -4 20 -8 32 -10 33 -5 66 -13 75 -19 5 -3 19 -7 33 -10 13 -3 44
-10 69 -17 25 -6 54 -12 65 -15 11 -2 34 -7 50 -11 32 -7 38 -8 100 -17 22 -4
49 -9 60 -13 11 -3 30 -7 42 -9 12 -1 36 -5 55 -10 18 -4 47 -8 63 -9 56 -4
160 -17 166 -21 4 -2 37 -6 75 -9 38 -3 76 -8 85 -11 10 -2 48 -7 85 -9 219
-13 263 -16 299 -21 22 -4 148 -8 280 -9 217 -2 350 2 665 21 173 10 183 11
235 18 28 4 70 9 93 11 24 2 56 6 70 9 15 3 54 8 87 11 74 7 105 11 142 19 15
3 45 8 66 11 21 2 41 6 45 9 5 3 28 8 53 11 89 13 104 15 121 21 9 2 25 6 35
8 29 6 106 26 133 35 23 8 138 44 150 46 3 1 16 6 30 12 14 6 28 10 32 9 3 0
17 8 30 20 13 11 35 28 50 37 27 17 80 89 86 117 2 8 5 28 7 45 2 16 6 55 10
86 l6 57 45 12 c24 7 46 11 49 9 2 -3 5 -23 6 -46 3 -36 7 -44 38 -61 39 -21
87 -21 148 -2 41 14 103 57 103 72 0 5 10 24 23 41 22 32 29 50 30 75 0 6 3
12 7 12 3 0 6 15 7 33 2 58 13 111 33 152 25 52 79 117 91 110 5 -4 9 -2 9 4
0 18 58 51 142 81 106 38 140 44 271 44 65 0 107 4 107 10 0 32 -167 146 -214
146 -25 0 -19 13 26 50 50 43 111 122 132 173 16 41 10 45 -34 22z m-6163 -70
c40 -4 125 -18 168 -29 6 -1 26 -6 45 -10 54 -12 131 -41 186 -72 65 -35 76
-45 70 -60 -2 -7 4 -20 15 -30 25 -22 24 -37 -1 -29 -26 8 -25 -2 3 -26 16
-14 17 -17 5 -13 -22 8 -24 -9 -3 -26 8 -7 15 -19 15 -27 0 -13 -3 -13 -15 -3
-22 18 -18 3 7 -33 15 -22 17 -28 5 -18 -10 8 -17 9 -17 3 0 -6 5 -14 10 -17
17 -11 11 -25 -7 -18 -16 6 -17 5 -3 -12 11 -14 12 -19 3 -22 -10 -4 -10 -10
-2 -26 7 -15 1 -12 -20 11 -17 17 -33 32 -35 32 -2 0 -31 18 -65 41 -33 22
-72 42 -85 45 -14 2 -38 9 -53 15 -40 16 -65 19 -177 24 -54 2 -101 6 -103 9
-9 9 119 85 153 92 19 3 34 9 34 13 0 12 -148 151 -161 151 -4 0 -14 12 -24
26 -9 15 -13 24 -7 20 6 -3 32 -8 59 -11z m6143 10 c0 -6 -93 -96 -130 -125
-17 -14 -41 -33 -53 -42 l-21 -16 24 -10 c14 -5 57 -22 96 -36 40 -15 80 -36
89 -46 18 -20 17 -20 -21 -22 -21 -1 -48 -1 -59 -1 -11 1 -40 -4 -65 -9 -25
-6 -56 -12 -70 -14 -14 -2 -42 -10 -63 -19 -20 -8 -37 -13 -37 -9 0 7 -88 -44
-110 -63 -8 -8 -39 -37 -68 -66 -49 -48 -52 -50 -48 -25 2 15 -1 29 -7 31 -6
2 1 12 16 21 30 20 35 36 12 36 -8 0 -15 -5 -15 -12 0 -6 -3 -8 -7 -4 -4 4 3
15 16 25 14 11 21 23 17 30 -6 9 -11 9 -22 0 -23 -19 -26 -4 -4 24 25 31 25
38 3 30 -14 -5 -13 -1 5 19 26 28 28 40 7 32 -20 -8 -19 5 2 28 18 20 4 25
-15 6 -20 -20 -14 1 10 35 53 78 129 124 228 141 59 11 97 20 111 27 16 8 54
17 97 24 13 2 26 6 30 9 6 7 52 8 52 1z m-5365 -272 c28 -15 73 -39 101 -54
29 -14 58 -30 65 -35 8 -5 48 -23 89 -40 41 -17 93 -40 115 -50 22 -9 45 -19
50 -20 6 -1 24 -8 40 -15 17 -6 36 -13 44 -15 7 -1 19 -8 25 -14 8 -8 3 -10
-21 -5 -18 3 -33 3 -33 1 0 -10 101 -53 106 -45 2 4 -5 13 -16 19 -29 16 -25
32 5 18 14 -6 25 -15 25 -20 0 -5 4 -7 9 -4 4 3 16 -3 26 -14 29 -32 6 -45
-78 -44 -61 1 -85 7 -152 38 -103 48 -158 51 -193 11 -17 -20 -22 -36 -18 -54
28 -132 38 -193 32 -198 -3 -4 -32 2 -64 13 -55 19 -57 20 -55 54 6 117 4 239
-5 260 -5 14 -17 32 -26 39 -9 7 -13 17 -10 22 3 5 0 9 -6 9 -10 0 -30 13
-104 70 -59 45 -76 72 -67 108 3 10 74 -11 116 -35z m4688 5 c8 -27 -56 -91
-138 -139 -20 -12 -45 -40 -57 -63 -19 -37 -21 -56 -20 -181 1 -77 -2 -145 -6
-152 -4 -7 -22 -15 -41 -18 -18 -3 -37 -7 -43 -8 -5 -1 -9 31 -10 78 0 44 -7
103 -16 132 -13 43 -20 53 -42 58 -25 5 -138 -26 -165 -45 -35 -25 -176 -33
-198 -11 -5 5 -7 19 -5 32 3 23 50 55 95 64 10 2 40 11 67 20 27 9 61 19 75
21 14 3 50 14 79 24 28 11 53 20 55 19 1 0 20 7 42 16 91 37 168 79 232 126
37 27 73 49 79 49 6 0 14 -10 17 -22z m-4779 -239 c37 -16 88 -30 112 -32 50
-3 58 -16 23 -34 -18 -10 -20 -13 -6 -13 9 0 17 -4 17 -10 0 -5 -8 -10 -17
-10 -10 0 -24 -4 -32 -9 -19 -12 0 -38 32 -44 21 -3 21 -4 -3 -15 -18 -8 -20
-11 -7 -11 9 -1 17 -5 17 -10 0 -5 -8 -12 -17 -14 -14 -4 -12 -5 5 -6 12 0 22
-5 22 -10 0 -5 -10 -12 -22 -15 -22 -7 -22 -8 -3 -15 19 -8 19 -8 0 -19 -17
-10 -17 -11 -3 -12 9 0 20 -4 23 -10 3 -5 0 -7 -8 -4 -8 3 -18 1 -21 -5 -4 -5
4 -13 16 -17 l23 -8 -25 -7 -25 -7 28 -1 c15 -1 27 -6 27 -12 0 -7 -12 -10
-30 -7 -19 3 -29 1 -27 -6 2 -6 11 -11 20 -11 8 0 19 -4 23 -8 4 -4 -2 -7 -14
-7 -29 0 -28 -17 1 -24 12 -2 2 -3 -23 -2 -56 4 -80 10 -117 30 -56 30 -104
89 -120 149 -10 36 -15 236 -8 283 l6 43 32 -30 c18 -17 63 -44 101 -60z
m4872 -30 c11 -152 6 -204 -26 -273 -18 -40 -69 -100 -88 -102 -4 0 -20 -6
-37 -13 -16 -8 -50 -15 -75 -17 -34 -3 -39 -2 -20 5 l25 8 -29 8 -29 8 29 13
29 12 -27 1 c-16 1 -28 6 -28 11 0 6 12 10 28 10 l27 1 -25 14 -25 14 25 1 25
1 -25 14 -25 14 32 1 c25 0 31 4 27 15 -4 10 -14 13 -30 9 -15 -4 -24 -2 -24
5 0 6 9 11 20 11 11 0 20 5 20 10 0 6 -7 10 -16 8 -10 -2 -19 3 -21 10 -3 6 0
12 7 12 6 0 8 5 5 10 -4 6 6 10 22 11 l28 0 -25 11 c-14 6 -28 10 -32 10 -5
-1 -8 3 -8 8 0 6 13 10 29 10 17 0 33 5 37 11 5 8 -4 10 -30 7 -23 -2 -35 0
-33 6 2 6 18 10 35 8 18 -2 32 1 32 7 0 6 -17 12 -37 13 -37 1 -37 1 -6 5 27
3 30 7 20 18 -6 7 -16 10 -21 7 -5 -3 -6 0 -2 6 4 7 18 12 32 12 28 0 104 31
104 42 0 5 4 8 9 8 5 0 27 17 48 39 21 21 39 37 40 36 2 -1 6 -44 9 -96z
m-4431 -59 c8 -7 15 -10 15 -6 0 4 14 -1 31 -10 56 -29 121 -43 182 -40 51 3
57 1 43 -10 -16 -12 -16 -13 1 -17 12 -3 9 -5 -9 -6 -33 -1 -38 -20 -5 -22 16
-1 18 -2 5 -6 -10 -2 -18 -13 -18 -24 0 -11 7 -19 18 -20 16 -1 16 -2 0 -6
-10 -2 -18 -8 -18 -13 0 -4 -26 1 -57 12 -50 17 -65 22 -93 33 -3 1 -20 6 -38
10 -18 4 -35 12 -38 16 -3 5 -13 9 -23 9 -32 0 -101 58 -101 84 0 15 7 26 18
28 30 7 71 1 87 -12z m3955 -32 c0 -21 -63 -88 -82 -88 -5 0 -35 -12 -66 -26
-31 -14 -65 -28 -74 -30 -45 -10 -55 -13 -82 -23 -24 -10 -31 -9 -41 6 -15 20
-10 37 7 27 7 -4 8 -2 4 4 -4 7 -15 12 -24 13 -16 1 -5 9 15 12 5 0 15 7 23
15 11 12 12 16 3 19 -7 3 -21 12 -31 21 -10 9 -13 14 -7 11 28 -16 132 -5 206
20 44 15 82 31 86 34 3 4 19 7 35 7 22 0 28 -4 28 -22z m-3724 -193 c65 -20
129 -38 141 -41 12 -2 34 -9 48 -14 14 -5 25 -7 25 -5 0 2 11 0 25 -5 14 -5
36 -12 48 -14 113 -21 155 -28 172 -31 11 -1 35 -5 53 -9 37 -9 60 -12 147
-22 33 -3 63 -8 66 -10 3 -2 35 -6 70 -9 35 -3 75 -8 89 -10 14 -3 57 -7 95
-10 39 -2 113 -7 165 -10 52 -3 131 -10 175 -15 105 -12 665 -12 780 0 50 6
128 12 175 15 152 9 204 14 255 24 27 5 53 7 56 5 4 -2 31 1 60 6 30 6 74 13
99 16 95 11 111 13 138 18 15 3 47 8 71 11 24 3 47 8 51 10 4 2 25 7 46 10 21
2 53 7 71 9 18 3 42 8 54 11 11 4 31 8 42 10 28 4 126 23 152 29 11 2 34 9 50
16 17 6 30 11 30 10 0 -1 20 4 45 11 25 7 50 13 55 15 41 9 149 60 169 81 29
28 32 26 15 -11 -7 -14 -16 -23 -20 -20 -5 3 -9 -1 -9 -9 0 -10 8 -13 28 -10
l27 4 -27 -16 c-34 -19 -36 -35 -5 -29 17 3 16 1 -5 -8 -16 -7 -28 -18 -28
-25 0 -16 12 -17 28 -1 7 7 12 8 12 2 0 -5 -9 -15 -20 -22 -27 -16 -27 -36 0
-22 16 8 18 8 14 -4 -3 -9 -14 -18 -25 -21 -27 -9 -14 -24 14 -17 21 5 21 4 6
-14 -28 -34 -32 -44 -12 -37 15 5 16 3 6 -7 -9 -10 -10 -17 -2 -27 8 -9 8 -17
0 -27 -9 -11 -9 -15 1 -18 17 -6 -8 -38 -29 -38 -9 0 -12 -6 -9 -18 4 -12 -3
-24 -21 -38 -44 -31 -159 -81 -203 -89 -3 0 -15 -6 -26 -13 -12 -6 -24 -9 -26
-6 -3 2 -18 0 -33 -6 -15 -6 -42 -12 -59 -15 -38 -5 -72 -12 -94 -19 -10 -3
-31 -8 -47 -10 -17 -2 -55 -9 -85 -16 -30 -6 -75 -13 -98 -15 -24 -3 -47 -7
-51 -10 -9 -5 -73 -14 -141 -20 -25 -2 -65 -8 -89 -14 -25 -5 -49 -7 -53 -5
-5 3 -32 0 -61 -5 -49 -11 -131 -19 -257 -26 -30 -1 -113 -6 -185 -11 -161
-10 -650 -10 -765 0 -47 4 -112 9 -145 11 -107 5 -250 17 -257 21 -3 2 -37 7
-75 10 -90 9 -118 12 -118 14 0 3 -7 4 -110 14 -33 3 -67 9 -77 12 -24 7 -57
13 -107 20 -25 3 -48 7 -53 10 -4 3 -24 7 -45 10 -21 2 -46 7 -56 10 -11 3
-29 7 -40 9 -12 1 -44 8 -72 15 -27 6 -61 14 -74 16 -14 3 -28 7 -33 10 -4 3
-16 7 -26 9 -9 1 -35 8 -57 14 -22 6 -42 10 -45 9 -3 -1 -16 4 -28 11 -13 7
-36 15 -50 17 -41 8 -165 70 -187 94 -19 21 -19 21 1 14 13 -4 9 2 -11 19 -28
25 -29 26 -6 20 l24 -6 -19 26 c-10 15 -22 27 -26 27 -5 0 -8 4 -8 10 0 5 7 7
15 4 20 -8 19 6 -2 23 -17 13 -16 14 5 8 15 -5 22 -2 22 8 0 8 -10 18 -22 22
-20 6 -21 8 -5 12 18 5 18 6 1 24 -16 18 -16 19 7 19 22 1 23 2 7 14 -19 14
-25 32 -8 21 16 -10 12 7 -7 28 -17 19 -17 20 0 14 22 -8 22 1 0 25 -14 15
-14 18 -2 13 10 -4 16 0 16 10 0 8 -6 15 -13 15 -6 0 -14 6 -17 13 -3 9 35 -3
97 -28 57 -24 157 -59 222 -80z"/>
<path d="M504 1571 c4 -6 13 -11 20 -11 14 0 30 -56 21 -71 -3 -4 -16 -4 -28
0 -12 5 -26 8 -32 7 -5 0 -11 11 -13 27 -2 15 -9 27 -17 27 -10 0 -13 -13 -10
-50 5 -61 15 -82 26 -52 6 17 13 19 36 13 22 -6 29 -14 31 -38 3 -27 0 -31
-17 -26 -12 3 -21 1 -21 -5 0 -10 20 -20 45 -23 6 -1 20 -5 33 -10 25 -10 28
-2 7 25 -17 23 -18 26 -6 44 7 12 12 12 30 1 11 -8 21 -19 21 -25 0 -6 6 -17
14 -23 12 -10 15 -4 15 43 0 42 -4 56 -15 56 -8 0 -14 -4 -14 -9 0 -5 -8 -8
-17 -6 -10 2 -21 4 -25 4 -5 1 -8 17 -8 37 0 28 3 35 15 30 10 -3 15 1 15 12
0 10 -8 19 -17 20 -10 1 -35 4 -57 8 -27 5 -37 3 -32 -5z"/>
<path d="M6085 1565 c-25 -7 -41 -19 -44 -30 -2 -13 1 -16 13 -12 29 11 20
-48 -10 -68 -25 -16 -28 -16 -36 -1 -14 25 -28 9 -28 -34 0 -41 18 -64 26 -34
3 11 16 24 29 30 21 10 23 9 27 -17 3 -17 -1 -30 -9 -33 -7 -3 -13 -12 -13
-19 0 -12 9 -10 45 6 42 19 59 37 35 37 -5 0 -10 13 -10 29 0 23 5 30 25 33
17 4 25 1 25 -8 0 -8 5 -14 10 -14 6 0 10 25 10 56 0 34 -4 53 -10 49 -5 -3
-10 -14 -10 -25 0 -16 -18 -30 -41 -30 -13 0 -11 68 3 72 6 2 9 9 7 14 -3 7
-18 6 -44 -1z"/>
<path d="M1388 852 c-10 -2 -18 -7 -18 -12 0 -5 6 -7 14 -4 21 8 28 -26 25
-114 -1 -42 2 -85 6 -95 7 -18 56 -48 85 -54 45 -8 70 37 70 126 0 29 5 61 11
73 13 25 8 30 -35 35 -29 3 -34 0 -30 -12 4 -8 10 -15 15 -15 10 0 12 -122 3
-157 -8 -28 -33 -29 -62 -3 -19 18 -22 31 -22 105 0 78 2 85 20 85 11 0 20 4
20 9 0 11 -80 37 -102 33z"/>
<path d="M5133 818 c0 -7 -8 -43 -17 -81 -9 -37 -15 -71 -14 -75 5 -16 -25
-83 -40 -92 -15 -8 -15 -11 -2 -20 8 -5 24 -7 35 -3 11 3 26 6 33 6 6 0 12 9
12 19 0 11 -7 18 -20 18 -11 0 -20 5 -20 11 0 5 5 7 10 4 6 -3 10 3 10 13 0
15 9 21 33 25 37 5 49 -7 40 -42 -3 -14 -2 -22 4 -18 5 3 22 8 38 11 41 8 50
20 28 45 -10 12 -35 58 -55 104 -25 56 -43 83 -56 85 -10 2 -19 -3 -19 -10z"/>
<path d="M1597 776 c-3 -8 1 -17 9 -20 11 -4 14 -26 14 -95 0 -82 -2 -90 -21
-96 -26 -9 -15 -20 34 -33 29 -8 37 -8 37 3 0 7 -6 15 -14 18 -10 4 -15 28
-18 82 -4 88 -2 87 67 -47 62 -119 75 -117 75 12 0 60 4 100 10 100 6 0 10 8
10 19 0 13 -10 20 -37 24 -43 7 -55 1 -30 -17 12 -10 17 -27 17 -67 l0 -54
-40 72 c-22 39 -53 81 -69 92 -35 25 -37 25 -44 7z"/>
<path d="M5016 781 c-3 -5 -22 -9 -41 -9 -41 0 -92 -34 -107 -71 -12 -31 -13
-104 -3 -145 21 -80 165 -57 177 29 5 35 -14 31 -26 -5 -9 -27 -18 -36 -44
-41 -43 -9 -56 15 -55 96 1 81 3 88 29 107 20 16 23 16 41 0 10 -9 27 -28 37
-42 17 -25 17 -25 15 33 -2 53 -10 69 -23 48z"/>
<path d="M1810 721 c0 -6 5 -13 10 -16 15 -9 13 -202 -2 -207 -7 -3 9 -12 36
-21 47 -16 85 -13 53 4 -11 7 -15 31 -16 110 -1 68 2 99 9 94 5 -3 10 0 10 8
0 13 -16 19 -82 33 -10 2 -18 0 -18 -5z"/>
<path d="M4798 722 c-20 -2 -28 -9 -28 -23 0 -10 4 -19 9 -19 13 0 23 -147 11
-169 -16 -32 -48 -36 -71 -10 -15 18 -19 37 -19 101 0 45 4 78 10 78 6 0 10 5
10 11 0 7 -11 8 -32 3 -18 -4 -43 -7 -55 -6 -14 1 -23 -4 -23 -13 0 -8 7 -15
15 -15 8 0 15 -8 15 -17 2 -64 13 -152 23 -172 16 -33 59 -38 103 -10 55 33
67 66 53 144 -9 56 -9 69 5 90 18 27 13 32 -26 27z"/>
<path d="M1920 698 c0 -2 9 -27 19 -56 11 -28 17 -52 15 -52 -3 0 2 -13 11
-30 9 -16 13 -30 11 -30 -3 0 3 -20 14 -44 10 -24 16 -47 13 -50 -4 -3 3 -6
15 -6 12 0 23 7 23 15 2 24 16 69 45 153 20 54 49 58 62 8 14 -48 3 -166 -14
-166 -38 0 -1 -31 41 -35 11 -1 46 -5 78 -10 l57 -7 0 46 c0 54 -8 58 -32 15
-14 -24 -23 -30 -45 -27 -25 3 -28 7 -31 46 -2 23 1 42 6 42 15 0 34 -28 27
-40 -3 -5 0 -10 8 -10 13 0 15 16 8 95 -2 20 -2 20 -17 0 -13 -17 -16 -18 -24
-5 -13 20 -13 80 0 80 12 0 58 -46 77 -76 10 -16 12 -12 12 28 1 51 6 48 -97
63 -23 4 -52 8 -65 10 -12 2 -39 7 -59 11 -38 7 -54 -8 -22 -20 11 -4 14 -13
10 -29 -10 -33 -18 -70 -19 -85 0 -17 -20 -10 -23 9 -1 7 -9 37 -18 64 -9 30
-12 51 -6 53 23 8 9 32 -19 32 -16 0 -36 3 -45 6 -9 3 -16 4 -16 2z"/>
<path d="M4502 653 c-5 -10 -13 -31 -17 -48 -4 -16 -9 -37 -11 -45 -2 -8 -7
-31 -12 -51 -5 -20 -17 -51 -26 -69 -21 -43 -20 -49 7 -43 50 11 53 13 34 28
-15 11 -16 18 -8 33 12 23 62 36 73 19 11 -17 10 -37 -2 -37 -5 0 -10 -6 -10
-14 0 -12 7 -13 31 -6 17 5 34 9 38 8 20 -2 31 4 31 17 0 8 -5 15 -11 15 -5 0
-17 17 -25 38 -8 20 -24 56 -34 78 -11 23 -22 54 -26 68 -7 30 -20 33 -32 9z"/>
<path d="M4295 628 c-25 -14 -57 -52 -64 -76 -2 -9 -4 -40 -4 -68 0 -69 32
-113 83 -113 44 0 85 33 95 77 7 36 -9 45 -21 10 -3 -12 -15 -30 -25 -41 -23
-25 -64 -16 -73 15 -10 38 -7 125 6 153 15 33 62 35 79 3 7 -13 12 -24 11 -25
-7 -10 0 -23 12 -23 10 0 12 11 8 48 -6 56 -7 58 -26 43 -10 -8 -16 -9 -21 -1
-8 13 -35 12 -60 -2z"/>
<path d="M2315 622 c-9 -10 -5 -22 8 -22 15 0 16 -7 23 -117 5 -73 3 -83 -11
-83 -9 0 -15 -6 -12 -12 5 -18 97 -18 97 -1 0 7 -4 13 -10 13 -5 0 -10 20 -10
44 0 39 2 44 20 39 11 -3 20 -10 19 -17 -4 -37 3 -77 17 -91 23 -22 56 -15 71
15 l13 25 0 -31 c0 -27 3 -31 28 -30 15 0 39 -3 54 -7 21 -6 33 -2 49 14 42
42 6 147 -51 149 -36 2 -72 56 -42 63 23 5 69 -22 75 -45 3 -10 12 -18 20 -18
12 0 12 8 4 45 -8 34 -13 42 -23 34 -8 -7 -14 -7 -19 1 -11 18 -63 11 -85 -12
-24 -26 -25 -51 -3 -88 16 -28 27 -35 86 -59 32 -12 36 -45 9 -60 -26 -14 -58
10 -78 57 -12 27 -18 33 -23 21 -3 -8 -13 -22 -21 -31 -14 -14 -17 -12 -36 26
-20 41 -20 41 -1 51 25 13 32 51 13 80 -15 22 -71 42 -138 49 -21 2 -40 1 -43
-2z"/>
<path d="M3973 593 c-23 -4 -33 -23 -13 -23 6 0 10 -42 10 -105 0 -63 -4 -105
-10 -105 -5 0 -10 -4 -10 -9 0 -9 60 -7 148 4 l42 6 0 50 c0 58 -24 69 -36 17
-8 -39 -29 -56 -60 -50 -23 4 -24 7 -24 103 0 81 3 99 15 99 8 0 15 5 15 10 0
10 -34 11 -77 3z"/>
<path d="M2700 584 c0 -5 9 -16 20 -24 18 -13 20 -26 20 -107 0 -87 -1 -93
-21 -93 -11 0 -17 -4 -14 -10 3 -5 28 -10 56 -10 27 0 49 5 49 10 0 6 -6 10
-12 10 -10 0 -12 24 -10 97 4 104 11 125 35 101 18 -17 34 -213 17 -203 -5 3
-10 -1 -10 -10 0 -14 10 -16 68 -13 78 5 93 8 108 27 15 20 17 126 3 153 -12
23 -46 57 -58 59 -3 0 -26 1 -51 3 -25 1 -80 6 -122 11 -47 5 -78 4 -78 -1z"/>
<path d="M3781 578 c-36 -8 -42 -12 -28 -19 24 -14 26 -199 2 -199 -17 0 -20
-16 -5 -25 5 -3 48 -3 95 1 l85 7 0 44 c0 31 -4 43 -12 41 -7 -3 -14 -13 -16
-24 -3 -23 -50 -54 -69 -47 -15 6 -18 93 -3 93 5 0 15 -9 22 -20 21 -33 28
-23 28 35 0 55 -16 76 -27 35 -10 -37 -33 -23 -33 20 0 39 1 40 32 38 24 -2
34 -9 42 -30 15 -41 26 -34 26 16 l0 44 -47 0 c-27 -1 -68 -5 -92 -10z"/>
<path d="M3572 569 c-37 -8 -53 -20 -34 -26 8 -3 12 -34 12 -104 0 -83 -3 -99
-16 -99 -8 0 -12 -4 -9 -10 3 -5 36 -10 72 -10 62 0 67 2 97 35 28 31 32 42
33 93 1 52 -3 63 -29 91 -16 17 -32 32 -36 32 -25 5 -62 4 -90 -2z"/>
<path d="M3091 528 c-10 -24 -24 -70 -30 -103 -7 -38 -18 -66 -31 -77 -29 -23
-25 -28 20 -28 22 0 40 5 40 10 0 6 -4 10 -10 10 -5 0 -10 11 -10 24 0 20 6
25 35 28 32 4 37 1 34 -18 0 -4 5 -11 13 -15 11 -7 10 -11 -2 -18 -23 -15 -10
-19 80 -24 174 -8 218 31 199 177 -6 45 -49 66 -136 66 l-73 0 20 -32 c28 -46
30 -198 3 -193 -10 2 -21 4 -25 4 -4 1 -11 16 -17 34 -5 17 -21 60 -34 95 -14
34 -23 62 -21 62 3 0 0 9 -6 20 -16 30 -28 24 -49 -22z"/>
<path d="M3130 1117 c-36 -23 -48 -69 -26 -102 13 -20 13 -26 3 -32 -17 -10
-28 -49 -20 -69 9 -23 56 -43 95 -40 42 4 86 33 94 63 6 23 -15 83 -29 83 -4
0 0 14 10 31 l18 31 -33 28 c-38 32 -70 34 -112 7z"/>
<path d="M3353 1127 c-60 -31 -54 -121 7 -102 26 8 26 42 -1 50 -19 6 -20 9
-6 22 10 10 24 13 41 9 22 -5 26 -12 26 -42 0 -28 -8 -44 -39 -74 -96 -95 -94
-110 13 -110 93 0 94 1 94 68 1 36 -15 43 -27 11 -6 -17 -16 -22 -50 -23 l-43
-1 33 25 c69 53 90 79 87 106 -6 50 -87 86 -135 61z"/>
<path d="M3534 1086 c3 -65 11 -79 25 -43 8 21 17 25 60 28 28 2 51 1 51 -2 0
-3 -15 -26 -32 -50 -65 -88 -74 -124 -36 -138 25 -9 61 7 51 22 -9 15 19 118
44 164 13 23 23 44 23 47 0 2 -35 6 -77 8 -43 2 -86 7 -95 12 -16 7 -17 2 -14
-48z"/>
<path d="M2980 1120 c-8 -5 -27 -10 -42 -10 -18 0 -28 -5 -28 -15 0 -8 9 -15
20 -15 19 0 20 -7 20 -90 0 -83 -1 -90 -20 -90 -11 0 -20 -4 -20 -10 0 -6 32
-10 75 -10 43 0 75 4 75 10 0 6 -9 10 -20 10 -19 0 -20 7 -20 115 0 118 -4
128 -40 105z"/>
</g>
</svg>
