<?xml version="1.0" standalone="no"?>
<!DOCTYPE svg PUBLIC "-//W3C//DTD SVG 20010904//EN"
 "http://www.w3.org/TR/2001/REC-SVG-20010904/DTD/svg10.dtd">
<svg version="1.0" xmlns="http://www.w3.org/2000/svg"
 width="393.000000pt" height="402.000000pt" viewBox="0 0 393.000000 402.000000"
 preserveAspectRatio="xMidYMid meet">
<metadata>
Created by potrace 1.15, written by Peter Selinger 2001-2017
</metadata>
<g transform="translate(0.000000,402.000000) scale(0.100000,-0.100000)"
fill="#000000" stroke="none">
<path d="M1937 3996 c-13 -12 -26 -28 -28 -35 -3 -9 -13 -8 -41 4 -48 19 -45
21 -58 -20 -7 -22 -8 -40 -2 -52 9 -17 5 -18 -49 -15 -51 3 -61 1 -84 -22 -30
-30 -32 -64 -4 -100 30 -38 81 -36 111 4 26 35 46 38 82 9 30 -24 33 -37 9
-46 -10 -3 -26 -13 -35 -21 -25 -21 -7 -49 36 -57 41 -8 39 -29 -6 -71 -26
-26 -35 -29 -86 -25 -54 3 -111 3 -149 1 -10 -1 -30 2 -46 6 -34 8 -93 -14
-78 -29 6 -6 11 -18 11 -26 0 -8 7 -23 17 -33 14 -15 14 -18 1 -18 -28 0 -83
23 -106 44 -20 18 -22 27 -17 68 6 43 5 48 -13 48 -10 0 -27 -9 -36 -19 -17
-19 -18 -19 -47 14 -56 64 -97 45 -85 -41 4 -29 1 -46 -8 -53 -11 -9 -14 -1
-18 43 -3 30 -11 62 -19 72 -22 27 -13 134 13 157 47 40 113 -2 113 -74 0 -37
1 -39 32 -39 18 0 43 5 56 11 21 9 28 8 45 -9 25 -25 94 -47 118 -38 14 5 16
15 11 57 -4 29 -13 62 -22 75 -8 13 -11 25 -6 29 14 8 34 74 27 91 -5 13 -10
13 -37 -2 -29 -14 -45 -15 -138 -5 -233 26 -352 -46 -376 -227 l-7 -54 -29 28
c-25 24 -28 32 -23 68 6 40 -10 126 -23 126 -4 0 -15 -7 -25 -16 -16 -16 -19
-15 -35 4 -10 12 -31 24 -47 28 l-29 7 6 -52 c6 -49 5 -51 -18 -51 -13 0 -26
-3 -29 -8 -7 -12 105 -82 133 -82 22 0 32 -11 63 -71 38 -71 37 -73 -17 -33
-16 12 -50 32 -74 44 -61 30 -264 99 -274 93 -9 -5 -6 -34 8 -65 6 -16 0 -18
-68 -18 -144 0 -243 -33 -332 -110 -61 -52 -65 -60 -29 -60 26 0 23 -4 -43
-69 -76 -75 -123 -155 -123 -209 0 -30 3 -34 20 -29 16 4 20 1 16 -11 -3 -9
-12 -57 -20 -107 -45 -278 -20 -521 74 -712 44 -90 104 -157 242 -272 88 -74
101 -96 87 -143 -14 -49 -12 -57 16 -64 14 -3 25 -10 25 -15 0 -5 11 -14 24
-18 24 -10 36 -44 36 -108 0 -44 -15 -72 -46 -83 -32 -13 -23 -27 21 -36 19
-3 35 -8 35 -11 0 -3 -11 -18 -25 -35 -16 -19 -25 -42 -25 -64 0 -19 1 -34 3
-34 5 0 93 28 110 35 15 6 17 0 17 -52 0 -61 -15 -94 -51 -113 -15 -9 -24 -6
-44 14 l-25 25 -15 -21 c-14 -20 -16 -21 -33 -5 -10 9 -23 17 -28 17 -5 0 -20
-27 -33 -60 l-24 -61 23 -31 23 -31 -29 7 c-68 16 -108 68 -100 130 6 49 18
61 64 61 33 0 37 3 40 28 4 34 -18 62 -55 72 l-26 6 24 25 c17 19 23 35 22 66
-1 23 -6 45 -12 51 -14 14 -75 0 -96 -23 -17 -18 -17 -18 -39 7 -16 18 -35 26
-69 30 -52 6 -54 4 -30 -33 11 -18 18 -60 23 -144 6 -106 10 -126 38 -183 83
-168 244 -220 387 -125 143 95 173 301 84 582 -17 55 -17 62 -3 73 16 12 11
53 -7 53 -5 0 -15 15 -23 34 -18 43 -85 110 -136 137 -55 29 -58 39 -12 39
113 0 208 64 236 159 20 67 20 98 1 179 -19 82 -72 184 -129 250 -25 30 -49
65 -52 78 -7 27 -8 28 -35 14 -11 -6 -19 -21 -19 -35 0 -14 -1 -25 -2 -25 -2
0 -25 11 -52 25 -30 15 -53 22 -59 16 -15 -15 4 -93 29 -118 29 -29 30 -33 4
-33 -24 0 -70 -42 -70 -65 0 -11 11 -15 41 -15 62 0 114 -19 160 -59 71 -60
95 -142 65 -216 -16 -37 -31 -42 -94 -29 -28 6 -31 10 -29 42 l2 35 -53 3
c-87 4 -165 61 -212 155 -26 50 -25 52 8 44 20 -4 36 0 52 13 l23 19 -22 22
c-12 12 -20 29 -17 37 3 9 -7 17 -34 24 -22 6 -51 21 -64 33 -32 28 -65 116
-55 143 4 10 8 34 8 52 1 42 10 40 43 -8 20 -28 35 -40 52 -40 14 0 36 -4 50
-10 26 -9 26 -9 26 39 0 41 -5 54 -30 79 l-29 30 30 6 c45 9 47 32 5 70 -67
62 -83 148 -46 256 l18 55 1 -77 c2 -148 69 -261 196 -329 39 -21 78 -48 89
-61 l18 -23 24 28 c17 20 24 40 24 72 0 24 -5 47 -10 50 -19 12 -10 33 20 45
16 7 46 30 65 51 30 33 35 46 35 87 0 26 -4 53 -8 60 -14 21 -62 -3 -108 -53
-23 -25 -50 -45 -59 -45 -16 0 -17 2 -3 18 24 27 29 66 17 122 l-11 51 -34
-31 c-42 -36 -97 -42 -114 -11 -26 49 -1 139 54 190 31 29 33 15 6 -39 -23
-45 -26 -80 -7 -80 19 0 45 32 105 124 28 43 59 84 69 91 20 14 93 31 93 22 0
-4 -21 -20 -46 -38 -79 -54 -105 -123 -64 -170 l20 -24 33 39 c73 88 91 103
137 110 60 9 163 -7 299 -45 62 -17 151 -39 199 -49 l87 -18 -307 -1 -308 -1
0 -1100 c0 -758 3 -1115 11 -1152 41 -198 203 -364 414 -424 49 -14 119 -18
375 -22 356 -5 356 -5 426 -85 l38 -43 30 45 c20 29 48 54 76 69 43 21 54 22
335 22 328 0 372 6 489 68 102 53 183 138 237 247 l44 88 2 136 c2 75 4 589 6
1144 l3 1007 -306 1 c-278 1 -299 2 -240 14 36 7 137 32 225 55 171 45 297 57
342 32 13 -7 41 -37 64 -68 22 -30 47 -58 55 -61 26 -10 45 28 40 77 -4 45
-18 63 -102 128 l-29 23 39 -6 c56 -9 71 -22 132 -116 64 -97 82 -119 101
-119 19 0 16 35 -7 80 -28 55 -25 68 10 35 40 -38 60 -84 60 -138 0 -35 -5
-49 -21 -60 -26 -18 -71 -8 -106 24 -12 13 -26 19 -30 15 -4 -3 -9 -33 -11
-66 -3 -45 0 -66 13 -86 16 -26 16 -26 -7 -19 -12 4 -38 24 -55 45 -32 37 -88
69 -100 56 -3 -3 -8 -30 -11 -60 -4 -50 -2 -56 32 -94 20 -22 50 -45 67 -52
25 -11 29 -17 24 -34 -19 -57 -16 -101 9 -131 l25 -30 16 23 c9 12 47 38 84
56 75 38 128 91 165 164 29 58 50 163 41 209 -9 51 2 39 19 -21 32 -109 12
-207 -54 -258 -39 -31 -35 -55 10 -65 l31 -6 -30 -31 c-26 -27 -31 -40 -31
-80 0 -42 2 -47 18 -41 9 5 32 10 50 13 25 3 41 14 60 43 33 47 42 48 43 7 0
-18 4 -42 8 -53 11 -27 -23 -115 -54 -142 -14 -12 -44 -27 -66 -33 -31 -9 -39
-14 -30 -23 8 -8 4 -18 -15 -38 l-26 -27 26 -17 c16 -11 35 -15 51 -11 30 8
30 6 4 -47 -46 -91 -127 -149 -214 -152 -54 -2 -66 -16 -46 -54 10 -18 6 -20
-40 -26 -62 -9 -85 8 -95 70 -17 117 97 235 229 235 40 0 47 3 47 19 0 24 -45
61 -73 61 -20 0 -20 0 1 23 35 38 56 117 33 131 -5 3 -29 -5 -54 -17 l-45 -23
-13 30 c-17 39 -44 46 -52 14 -4 -13 -29 -52 -57 -87 -139 -173 -175 -372 -90
-489 36 -49 104 -84 184 -91 l61 -6 -32 -22 c-17 -13 -36 -23 -41 -23 -18 0
-103 -90 -117 -124 -8 -18 -21 -38 -29 -46 -20 -16 -20 -30 0 -45 15 -10 14
-19 -9 -91 -75 -237 -57 -424 49 -529 54 -53 116 -78 189 -78 171 0 283 166
284 421 0 32 6 64 15 78 23 34 21 37 -31 31 -32 -3 -53 -12 -64 -26 l-18 -21
-40 21 c-22 11 -50 19 -63 17 -33 -4 -38 -79 -9 -119 l21 -29 -24 -6 c-36 -9
-58 -38 -54 -71 3 -25 7 -28 42 -30 48 -1 66 -22 66 -75 0 -49 -48 -103 -100
-113 l-35 -7 23 24 c28 30 28 40 0 105 -25 57 -39 64 -61 33 -14 -20 -14 -20
-31 4 l-16 25 -25 -25 c-20 -20 -29 -23 -45 -14 -30 16 -50 64 -50 121 0 45 2
50 18 44 9 -4 33 -12 52 -17 19 -6 41 -15 48 -20 9 -8 12 -4 14 13 3 46 -3 64
-27 89 -31 32 -31 40 -2 40 13 0 32 6 43 14 18 14 18 15 -8 25 -33 12 -48 39
-48 84 0 64 12 98 36 108 13 4 24 13 24 18 0 5 11 12 25 15 25 6 26 9 19 64
l-6 58 53 51 c30 28 77 69 105 91 115 90 195 215 233 363 31 119 44 262 36
384 -6 103 -27 253 -41 288 -4 12 -1 14 15 10 18 -5 21 -1 21 31 0 56 -44 132
-122 207 -64 63 -68 69 -44 69 14 0 26 4 26 8 0 15 -104 94 -156 118 -64 30
-137 44 -231 44 -68 0 -74 2 -68 18 11 25 18 72 11 72 -13 0 -236 -80 -268
-96 -18 -9 -54 -32 -81 -50 -26 -19 -49 -34 -52 -34 -2 0 13 31 33 70 32 60
41 70 64 70 30 0 140 68 132 82 -3 4 -16 8 -28 8 -22 0 -23 3 -18 50 3 34 1
50 -7 50 -19 0 -69 -29 -74 -42 -3 -10 -9 -9 -24 5 -11 9 -22 17 -25 17 -12 0
-30 -93 -25 -127 5 -30 2 -41 -22 -69 l-28 -32 -7 55 c-22 184 -144 258 -382
232 -87 -10 -104 -9 -132 5 -29 15 -31 15 -37 -3 -6 -20 10 -72 27 -82 7 -4 5
-15 -6 -31 -19 -30 -30 -108 -18 -127 13 -19 70 -7 116 24 29 20 41 23 62 15
14 -6 37 -10 52 -10 25 0 27 3 27 39 0 72 66 114 113 74 27 -23 35 -130 12
-158 -9 -11 -15 -39 -15 -72 0 -29 -3 -53 -6 -53 -17 0 -28 30 -23 58 17 82
-24 106 -82 48 -32 -32 -34 -33 -50 -15 -9 11 -26 19 -36 19 -17 0 -18 -5 -12
-49 5 -41 3 -51 -15 -68 -20 -19 -83 -43 -111 -43 -10 0 -10 4 1 18 33 40 42
64 27 73 -26 17 -58 21 -89 10 -22 -8 -37 -8 -52 0 -15 9 -38 8 -87 0 -76 -14
-107 -6 -139 35 -29 36 -27 51 8 59 44 10 58 31 36 55 -10 11 -24 20 -31 20
-25 0 -25 20 0 45 27 27 76 34 76 12 0 -23 35 -47 67 -47 64 0 97 84 50 128
-18 17 -36 22 -78 22 l-54 0 -1 45 c0 25 -4 48 -7 51 -5 6 -30 -1 -79 -21 -11
-4 -18 0 -22 13 -4 11 -17 27 -30 36 -22 14 -26 14 -49 -8z m69 -41 c3 -14 3
-37 0 -52 -6 -26 -5 -25 19 9 23 34 68 59 81 45 11 -11 -25 -88 -63 -133 -22
-27 -46 -59 -52 -71 -17 -34 -36 -28 -64 20 -14 23 -35 51 -47 62 -29 26 -50
68 -50 100 0 42 47 26 81 -28 l20 -32 -6 35 c-8 47 26 96 56 80 10 -6 22 -22
25 -35z m-460 -120 c-10 -16 -26 -25 -42 -25 -25 0 -25 0 10 -34 31 -29 36
-40 36 -80 0 -41 -2 -46 -23 -46 -35 0 -54 19 -81 81 -25 58 -75 109 -104 109
-9 -1 -3 -7 14 -14 35 -15 64 -51 64 -78 0 -26 -36 -58 -65 -58 -20 0 -25 5
-25 24 0 93 -85 135 -143 72 -95 -102 -121 -153 -115 -227 1 -27 2 -49 1 -49
-1 0 -10 14 -19 32 -13 25 -15 48 -11 107 7 92 37 140 116 184 57 32 76 34
277 27 45 -1 90 2 100 8 25 14 30 -2 10 -33z m949 25 c185 7 217 5 271 -23 89
-45 124 -106 124 -214 0 -28 -5 -64 -12 -80 -11 -26 -12 -24 -19 39 -7 67 -33
125 -67 151 -9 7 -22 21 -28 32 -18 32 -68 57 -99 49 -32 -8 -65 -57 -65 -96
0 -23 -4 -28 -25 -28 -29 0 -65 32 -65 58 0 27 29 63 64 78 17 7 24 13 15 14
-30 0 -70 -42 -104 -111 -26 -50 -42 -70 -59 -75 -36 -9 -46 2 -46 46 0 32 7
46 35 75 35 34 35 35 11 35 -25 0 -56 32 -56 58 0 10 4 10 23 1 13 -8 52 -11
102 -9z m-656 -18 c33 -24 94 -103 86 -110 -3 -4 -18 9 -32 27 -30 38 -77 61
-124 61 -31 0 -32 0 -14 -20 23 -25 5 -50 -36 -50 -35 0 -64 38 -54 70 16 49
120 62 174 22z m386 14 c43 -18 56 -57 30 -86 -21 -24 -67 -26 -85 -5 -10 13
-10 19 5 35 18 19 17 20 -9 20 -42 0 -99 -28 -128 -63 -39 -45 -35 -17 5 34
35 45 88 79 125 79 12 0 38 -6 57 -14z m-275 -230 c0 -56 -38 -129 -93 -180
-88 -82 -246 -133 -354 -116 -73 12 -112 33 -168 90 -27 28 -58 50 -68 50 -10
0 -36 -10 -58 -22 -48 -28 -54 -22 -63 63 -6 58 5 109 23 109 14 0 21 -27 21
-80 0 -27 4 -51 9 -55 6 -3 23 3 40 13 22 13 27 22 20 32 -14 23 -11 100 4
100 17 0 60 -46 83 -90 18 -34 19 -34 22 -10 6 53 13 70 28 70 12 0 13 -6 8
-22 -18 -51 -10 -81 24 -104 45 -31 126 -46 182 -35 25 5 35 9 22 10 -48 2
-102 45 -102 80 0 19 53 12 108 -14 30 -14 61 -25 70 -24 10 0 2 5 -17 12 -19
7 -36 17 -38 23 -5 15 26 22 57 13 37 -11 115 -10 144 1 31 11 66 65 66 101 0
14 3 29 6 32 14 14 24 -6 24 -47z m60 23 c0 -39 28 -88 61 -104 27 -14 48 -16
122 -10 72 5 88 4 85 -7 -3 -7 -20 -18 -39 -25 -22 -8 -27 -12 -14 -12 11 -1
44 10 73 24 90 42 127 29 81 -29 -13 -17 -34 -28 -62 -33 l-42 -7 40 -8 c53
-9 120 0 173 24 54 26 64 56 37 121 -5 12 -2 17 9 17 16 0 32 -42 27 -72 -4
-28 5 -21 30 20 29 48 59 82 75 82 19 0 24 -40 10 -80 -12 -36 -12 -37 17 -53
16 -9 33 -17 38 -17 5 0 9 24 9 54 0 63 7 86 25 86 19 0 26 -43 19 -116 -8
-75 -20 -86 -63 -55 -46 33 -71 27 -126 -30 -77 -79 -163 -106 -277 -88 -135
21 -258 102 -307 200 -29 57 -41 126 -25 142 11 11 24 -3 24 -24z m-1522 -88
c-143 -46 -301 -174 -365 -296 -18 -33 -45 -76 -62 -95 l-30 -35 -1 28 c0 47
39 108 129 201 83 85 85 88 54 84 -18 -3 -33 -2 -33 1 1 8 85 64 130 87 53 26
119 42 180 43 l55 0 -57 -18z m254 5 c41 -8 119 -31 174 -51 100 -38 334 -150
334 -161 0 -11 -84 8 -190 42 -277 88 -362 80 -433 -41 -39 -67 -50 -72 -61
-29 -12 50 7 88 60 119 24 14 48 34 54 45 8 16 22 20 63 21 l52 1 -45 10 c-50
10 -136 4 -173 -13 -13 -6 -32 -25 -42 -42 -10 -18 -33 -51 -52 -74 -18 -23
-33 -45 -33 -50 -1 -13 -40 -59 -40 -46 0 11 55 156 68 178 3 6 -22 -14 -55
-43 -62 -53 -103 -117 -103 -163 -1 -22 -2 -22 -11 -6 -17 29 -2 82 38 134
l36 48 -46 -40 c-25 -22 -60 -51 -78 -65 -20 -15 -45 -52 -66 -96 -29 -64 -33
-83 -33 -154 0 -91 20 -144 67 -178 l28 -20 -27 -7 c-63 -16 -98 42 -98 162 0
93 20 184 56 256 54 109 205 217 356 257 89 23 107 24 200 6z m1247 -31 c25
-56 103 -140 156 -168 22 -11 67 -28 100 -38 60 -18 60 -18 -280 -18 -338 0
-340 1 -280 18 128 36 212 103 258 204 12 26 23 47 24 47 1 0 11 -20 22 -45z
m1395 25 c157 -40 313 -153 364 -263 55 -118 72 -290 36 -363 -21 -43 -65 -67
-86 -46 -9 9 -5 17 16 33 42 33 56 77 56 171 0 74 -4 91 -34 153 -33 70 -68
115 -87 115 -5 0 -30 19 -56 43 l-46 42 36 -48 c42 -55 52 -85 42 -124 -7 -26
-8 -25 -20 20 -15 58 -34 86 -102 144 l-51 43 35 -86 c38 -96 39 -129 2 -67
-55 91 -111 169 -132 180 -33 18 -116 25 -167 14 l-45 -9 48 -1 c33 -1 49 -6
54 -16 3 -9 29 -31 58 -50 57 -36 72 -68 60 -124 -8 -37 -28 -32 -46 11 -17
41 -55 86 -88 102 -72 37 -152 28 -361 -38 -109 -35 -190 -53 -190 -41 0 10
275 139 360 169 83 29 189 54 236 55 17 1 65 -8 108 -19z m191 -5 c48 -17 175
-93 175 -105 0 -4 -15 -5 -32 -2 -32 4 -32 3 39 -67 83 -82 127 -141 141 -194
22 -80 -21 -41 -88 78 -70 125 -223 248 -370 297 l-55 19 70 -5 c39 -2 93 -11
120 -21z m-3267 -352 c30 -55 87 -67 134 -28 37 31 46 31 54 -1 9 -36 -7 -84
-36 -105 -21 -16 -31 -17 -61 -9 -55 15 -86 45 -108 103 -26 67 -27 47 -2 -33
21 -67 60 -131 95 -154 19 -12 33 -12 87 -2 69 13 98 26 119 51 9 11 -3 8 -35
-9 -76 -41 -146 -35 -202 17 -31 28 -29 41 3 21 18 -13 45 -17 102 -16 83 2
73 -4 143 80 25 29 46 28 52 -4 14 -76 -61 -163 -140 -164 l-28 -1 22 -18 c34
-29 43 -61 27 -99 -7 -18 -15 -32 -18 -32 -2 0 -18 13 -34 29 -16 17 -45 33
-66 37 -49 9 -125 84 -161 159 -49 99 -45 235 9 293 l21 24 6 -59 c3 -32 11
-68 17 -80z m3393 60 c18 -56 7 -170 -23 -235 -37 -79 -110 -151 -170 -166
-30 -8 -54 -22 -67 -39 -20 -27 -21 -28 -36 -9 -27 35 -19 81 18 110 l32 26
-33 0 c-43 0 -83 21 -116 61 -22 26 -26 40 -24 77 3 53 20 63 48 30 10 -12 29
-35 42 -51 21 -25 29 -27 99 -29 58 -2 82 2 102 15 36 24 34 7 -4 -29 -27 -26
-37 -29 -99 -29 -55 0 -74 4 -99 23 -35 26 -49 29 -30 6 20 -25 62 -42 117
-50 l52 -7 -25 -19 c-14 -11 -32 -33 -40 -48 -21 -41 -18 -51 4 -14 11 17 46
52 80 78 47 36 67 60 90 109 16 34 32 80 36 102 l6 40 -14 -37 c-20 -51 -43
-85 -70 -102 -73 -47 -139 -16 -141 66 -1 26 2 50 6 54 4 4 25 -5 46 -20 44
-30 68 -33 101 -10 31 22 51 73 51 130 l0 47 25 -23 c13 -12 30 -38 36 -57z
m-3561 -47 c-45 -162 -33 -291 33 -357 63 -62 89 -129 52 -129 -51 0 -103 54
-129 135 l-16 50 4 -41 c2 -22 -1 -49 -6 -58 -5 -10 -13 -39 -17 -64 -4 -32
-11 -47 -21 -47 -21 0 -15 199 10 323 16 81 93 272 105 260 2 -2 -5 -34 -15
-72z m3040 -1010 c0 -679 -4 -1103 -10 -1137 -5 -30 -27 -88 -47 -129 -62
-126 -170 -217 -323 -271 -61 -22 -85 -23 -386 -29 -319 -5 -321 -5 -356 -29
-19 -14 -43 -37 -53 -51 l-18 -27 -32 31 c-69 69 -75 70 -440 77 -361 6 -379
9 -498 71 -112 60 -227 211 -256 338 -12 50 -16 2222 -4 2233 3 4 550 7 1215
7 l1208 0 0 -1084z m635 1015 c47 -95 73 -195 86 -332 13 -139 10 -184 -11
-184 -15 0 -20 20 -38 145 -7 53 -8 54 -15 21 -10 -48 -45 -100 -81 -122 -77
-47 -92 4 -22 79 70 76 80 103 81 212 0 84 -14 166 -40 233 -4 9 -4 17 -1 17
3 0 21 -31 41 -69z m-3745 -569 c0 -31 50 -100 85 -116 19 -9 35 -19 35 -22 0
-12 -66 9 -95 28 l-30 21 19 -21 c10 -12 44 -30 75 -39 59 -18 94 -40 85 -54
-9 -15 -73 -10 -102 8 -27 17 -27 17 -11 -2 9 -11 31 -50 48 -87 49 -104 126
-158 225 -158 41 0 44 -7 15 -44 -16 -21 -29 -26 -62 -26 -23 0 -49 5 -57 11
-11 7 -5 8 22 3 21 -3 44 -1 55 6 16 10 14 11 -9 6 -15 -4 -45 0 -66 7 -35 12
-40 12 -38 -1 3 -21 64 -52 101 -52 17 0 44 4 62 9 20 6 47 5 73 -1 l41 -11
-22 -23 c-93 -99 -304 8 -403 203 -41 82 -74 199 -83 295 -7 79 0 106 22 88 8
-7 15 -19 15 -28z m439 -6 c10 -25 37 -64 59 -88 22 -24 57 -77 78 -118 36
-70 39 -81 39 -160 0 -72 -4 -92 -25 -130 -29 -51 -89 -97 -140 -106 l-35 -7
37 36 c100 92 103 250 8 330 -41 35 -84 53 -148 62 -55 7 -61 23 -16 44 31 14
69 14 97 1 20 -10 20 -9 3 2 -50 33 -95 82 -101 109 -4 17 -4 33 -1 36 10 11
54 -15 103 -59 33 -31 41 -35 25 -14 -26 34 -30 106 -6 106 2 0 12 -20 23 -44z
m2951 0 c0 -19 -10 -46 -22 -62 -18 -25 -16 -24 18 7 80 73 114 86 114 43 0
-26 -56 -90 -105 -122 -19 -12 -19 -12 2 -2 38 18 91 12 115 -12 l22 -22 -59
-12 c-80 -17 -105 -27 -144 -60 -96 -81 -94 -231 5 -329 l39 -38 -35 7 c-54
10 -111 55 -139 111 -21 40 -26 64 -26 125 0 66 4 84 37 152 20 42 55 97 77
121 22 24 50 65 61 91 23 52 40 52 40 2z m439 -56 c-21 -171 -78 -314 -159
-404 -118 -128 -258 -168 -329 -92 l-22 23 41 11 c26 6 53 7 73 1 18 -5 45 -9
62 -9 38 0 98 30 101 51 2 14 -2 14 -38 2 -21 -7 -51 -11 -66 -7 -24 5 -25 4
-9 -6 18 -11 46 -10 92 5 14 4 13 2 -5 -9 -39 -24 -97 -20 -125 9 -34 34 -31
45 13 45 99 0 170 51 227 162 20 40 42 80 48 88 8 10 4 9 -13 -3 -26 -18 -95
-23 -104 -8 -9 14 26 37 78 51 48 13 106 52 106 72 0 6 -9 -1 -21 -15 -18 -24
-94 -55 -106 -44 -2 3 12 13 31 22 41 20 71 57 82 101 10 43 24 58 40 42 9
-10 9 -32 3 -88z m-3327 -807 c50 -58 87 -182 69 -236 -14 -41 -67 -93 -103
-102 -37 -9 -37 10 2 63 35 49 41 79 11 61 -10 -7 -26 -9 -35 -6 -13 5 -12 10
10 33 25 24 26 30 20 82 -3 32 -9 72 -12 90 -7 37 12 44 38 15z m2824 -25
c-20 -125 -20 -135 8 -163 20 -20 22 -27 12 -31 -8 -3 -24 -1 -35 6 -30 16
-27 -6 9 -59 39 -57 39 -75 3 -66 -40 9 -92 63 -103 105 -20 74 49 250 98 250
12 0 13 -9 8 -42z m-3218 -204 c16 -11 22 -25 22 -52 l0 -37 19 31 c23 38 58
64 86 64 17 0 21 -7 23 -36 2 -27 -6 -47 -35 -87 -20 -29 -28 -44 -16 -34 23
20 46 15 81 -16 27 -25 30 -53 5 -42 -78 33 -134 -77 -83 -160 27 -44 79 -67
147 -66 31 0 58 3 61 6 3 3 -7 5 -23 5 -34 0 -65 26 -65 54 0 23 22 92 33 102
4 4 14 -10 23 -32 8 -21 27 -49 42 -61 l27 -23 -27 0 c-17 0 -34 10 -47 26
-12 15 -21 22 -21 15 0 -6 9 -20 20 -31 28 -28 82 -26 117 5 l28 24 -30 -8
c-53 -14 -75 2 -75 56 l0 32 29 -17 c39 -22 78 -8 103 38 16 28 18 47 14 97
-4 46 -1 72 12 100 l16 38 4 -30 c2 -16 2 -77 0 -135 -3 -89 -8 -113 -30 -156
-48 -92 -122 -138 -223 -138 -68 0 -120 20 -167 62 -68 61 -98 148 -98 285 -1
43 -6 82 -15 97 -8 14 -14 28 -15 33 0 13 35 8 58 -9z m3632 10 c0 -3 -5 -15
-12 -27 -6 -12 -15 -73 -19 -135 -6 -99 -11 -121 -39 -179 -25 -50 -43 -71
-77 -93 -161 -102 -347 -26 -393 160 -6 25 -10 92 -8 150 l3 105 21 -40 c17
-32 19 -47 11 -75 -21 -81 21 -170 81 -170 16 0 36 7 43 16 12 14 14 14 19 -2
19 -52 -19 -88 -75 -73 l-30 8 28 -24 c17 -16 40 -25 60 -25 34 0 77 24 77 42
0 6 -10 2 -23 -10 -13 -12 -34 -22 -47 -22 l-24 0 22 16 c12 8 30 32 40 52 23
48 35 49 50 5 27 -76 10 -113 -52 -113 -52 0 -21 -10 36 -11 100 -3 168 51
168 134 0 66 -50 119 -91 97 -11 -7 -23 -9 -26 -6 -10 10 28 57 54 67 21 8 30
6 51 -13 15 -14 9 -1 -16 33 -41 54 -49 80 -36 113 15 40 85 -2 115 -68 l19
-41 -6 46 c-5 39 -3 50 15 68 19 19 61 30 61 15z"/>
<path d="M800 2172 c0 -1166 -2 -1126 58 -1235 36 -67 118 -147 190 -185 107
-57 144 -62 482 -62 170 0 321 -4 341 -10 19 -5 53 -25 76 -45 l40 -34 29 31
c53 56 66 58 386 58 326 0 377 7 482 63 105 56 181 147 222 267 18 53 19 103
19 1135 l0 1080 -1162 3 -1163 2 0 -1068z m2300 -1 c0 -655 -4 -1058 -10
-1091 -30 -158 -144 -283 -311 -341 -60 -21 -86 -23 -395 -28 -349 -6 -347 -6
-383 -54 -13 -18 -14 -18 -35 1 -55 51 -65 52 -388 52 -331 0 -397 8 -498 57
-81 39 -191 152 -221 228 l-24 60 -3 1078 -2 1077 1135 0 1135 0 0 -1039z"/>
<path d="M2038 2925 c-4 -5 -5 -40 -1 -80 8 -99 0 -132 -48 -190 -23 -28 -52
-72 -64 -100 -20 -45 -23 -47 -30 -26 -8 27 1 88 19 116 50 79 50 80 -2 30
-72 -69 -95 -118 -90 -199 l3 -64 -46 39 c-26 22 -50 39 -53 39 -3 0 3 -17 14
-37 25 -47 25 -54 -1 -106 -12 -23 -22 -58 -22 -78 0 -39 28 -89 49 -89 11 0
9 8 -7 29 -21 29 -21 31 -4 78 9 26 19 63 22 81 3 17 8 32 12 32 4 0 18 -23
31 -51 13 -28 27 -52 31 -55 4 -2 5 54 3 125 -2 71 0 140 5 153 9 20 10 18 10
-18 1 -23 8 -58 16 -77 8 -20 15 -48 15 -62 0 -47 17 -25 23 29 6 62 34 122
87 186 21 25 42 59 48 75 l10 30 1 -28 c1 -15 -8 -63 -20 -107 -18 -70 -19
-86 -8 -142 16 -84 28 -105 29 -50 0 23 7 59 16 80 l16 37 26 -91 25 -91 26
51 25 51 11 -36 c5 -19 25 -58 43 -85 36 -57 40 -98 13 -131 -18 -22 -21 -22
-61 -8 -58 21 -194 36 -254 29 -47 -6 -53 -4 -65 17 -7 13 -28 37 -47 52 l-34
29 0 -41 c0 -30 5 -44 20 -53 24 -15 26 -28 5 -28 -27 0 -92 -38 -114 -66 -50
-64 -12 -136 89 -169 30 -10 58 -23 62 -29 4 -6 8 -30 8 -54 0 -41 -2 -43 -45
-62 -30 -13 -49 -28 -55 -46 -6 -15 -22 -40 -36 -57 -17 -21 -24 -40 -22 -61
1 -17 -1 -45 -5 -63 -6 -22 -4 -41 7 -61 10 -19 13 -42 9 -65 -4 -29 -1 -40
25 -67 l31 -31 -21 -35 c-12 -20 -49 -54 -83 -77 -59 -40 -246 -207 -231 -207
9 0 102 69 160 119 26 22 57 46 68 52 18 10 20 9 14 -7 -4 -11 -10 -32 -12
-49 -5 -30 -5 -30 11 5 9 19 17 43 19 55 2 11 8 20 14 20 6 0 18 9 27 20 9 11
3 -6 -14 -38 -17 -31 -27 -57 -22 -57 16 0 64 89 57 106 -8 20 22 76 37 71 6
-2 23 -23 37 -48 24 -40 67 -75 79 -63 2 2 -4 13 -15 23 -10 10 -35 38 -54 61
-19 24 -49 59 -66 79 -37 42 -47 96 -45 245 1 42 31 86 59 86 12 0 12 3 2 16
-11 12 -10 18 6 34 21 20 191 80 227 80 29 0 103 -63 93 -78 -4 -7 -12 -9 -18
-6 -8 5 -9 1 -4 -11 5 -14 3 -15 -6 -8 -7 6 -41 13 -76 15 -34 2 -57 1 -50 -3
15 -10 3 -15 -62 -29 -41 -9 -40 -9 23 -5 64 4 68 3 62 -15 -8 -25 -1 -25 25
-3 21 19 28 39 8 27 -7 -4 -8 -3 -4 4 4 7 16 12 27 12 21 0 27 -37 10 -69 -8
-13 -5 -21 11 -32 11 -8 30 -23 41 -34 12 -13 21 -16 24 -9 3 9 12 9 33 1 30
-11 39 -30 20 -42 -6 -4 -7 1 -3 12 5 14 3 16 -7 6 -15 -14 -34 -8 -76 24 -22
16 -44 23 -77 23 -35 0 -47 4 -47 15 0 23 -62 16 -68 -7 -4 -15 -11 -17 -41
-12 -27 4 -32 3 -21 -5 8 -6 60 -11 116 -11 55 0 104 -3 107 -7 4 -3 -3 -21
-14 -40 -17 -27 -18 -33 -5 -33 18 0 40 36 31 50 -10 16 3 11 45 -16 43 -29
52 -60 25 -88 -14 -13 -21 -12 -72 10 -31 14 -68 24 -82 24 -45 -3 -62 0 -56
10 3 5 12 7 19 4 8 -3 17 0 21 5 3 6 11 9 16 6 5 -4 9 10 9 29 0 45 -7 46 -18
4 -6 -22 -15 -33 -28 -34 -46 -2 -54 -5 -54 -15 0 -5 5 -7 10 -4 6 3 10 2 10
-4 0 -5 -17 -12 -37 -14 -21 -2 0 -4 47 -6 57 -1 98 -7 125 -20 59 -26 66 -39
48 -81 l-14 -35 -14 25 c-11 19 -14 21 -15 8 0 -20 -15 -24 -25 -8 -4 7 -12 7
-25 0 -10 -5 -26 -10 -36 -10 -14 0 -14 3 -4 15 7 9 10 18 7 21 -3 3 -12 -3
-19 -15 -15 -25 -33 -28 -24 -5 5 14 4 15 -9 4 -8 -7 -21 -10 -29 -7 -8 3 -17
-1 -20 -10 -4 -10 1 -17 15 -20 21 -6 21 -7 4 -20 -18 -12 -18 -13 4 -13 12 0
19 -4 16 -10 -3 -5 -1 -10 4 -10 14 0 14 -67 1 -75 -16 -10 -12 -43 8 -64 9
-11 23 -27 30 -35 23 -29 58 -19 89 24 15 22 32 40 37 40 5 0 0 -10 -12 -23
-25 -26 -30 -46 -7 -27 10 8 15 9 15 2 0 -6 -20 -25 -45 -42 -25 -17 -54 -49
-66 -71 -11 -22 -40 -67 -66 -100 -25 -33 -43 -62 -40 -65 8 -8 117 117 138
159 11 20 37 48 58 61 21 14 46 41 56 63 10 21 33 51 53 67 39 33 62 80 62
126 0 36 13 65 44 98 16 18 22 39 24 85 2 34 6 104 8 155 6 106 -3 130 -56
152 -26 11 -41 11 -78 1 -56 -15 -66 -6 -57 52 7 46 8 46 63 62 63 19 132 78
132 114 0 30 -18 62 -48 87 l-26 21 26 17 c32 21 52 67 43 97 -4 12 -22 43
-40 68 -18 25 -42 76 -54 112 -12 36 -28 75 -36 85 -14 17 -14 15 -9 -22 4
-28 1 -51 -9 -70 l-15 -29 -12 45 c-11 41 -9 95 6 175 4 24 0 20 -21 -20 -29
-54 -55 -88 -63 -80 -3 2 6 40 18 84 l23 79 -31 89 c-17 48 -33 99 -34 111 -2
13 -6 21 -10 17z m166 -761 c51 -20 106 -63 106 -84 0 -7 -13 2 -29 21 -17 18
-33 30 -38 25 -4 -4 0 -13 9 -20 10 -7 15 -16 11 -19 -3 -4 0 -7 7 -7 7 0 11
-3 7 -6 -3 -3 -21 5 -39 19 -32 24 -115 57 -150 60 -9 1 -16 5 -15 10 1 5 -4
12 -10 14 -7 3 -13 -2 -13 -10 0 -11 -18 -16 -77 -19 -89 -5 -173 -37 -204
-76 -10 -14 -22 -22 -25 -19 -4 3 5 17 20 30 14 13 23 27 19 30 -10 11 -20 8
-37 -9 -9 -8 -16 -11 -16 -6 0 23 56 56 132 77 75 21 275 15 342 -11z m-51
-51 c52 -16 117 -66 117 -89 0 -17 -35 -54 -51 -54 -7 0 0 9 15 21 28 22 36
45 12 36 -10 -4 -12 0 -9 14 6 22 -16 26 -36 7 -11 -11 -11 -9 -2 10 17 32
-12 42 -43 13 -28 -27 -45 -28 -21 -1 14 16 16 23 7 32 -9 9 -19 5 -43 -18
l-30 -29 10 28 c9 23 8 29 -6 34 -17 7 -43 -20 -43 -45 0 -7 -4 -10 -10 -7 -5
3 -10 17 -10 31 0 21 -4 25 -22 22 -19 -2 -23 -9 -21 -33 l2 -30 -20 28 c-29
38 -53 36 -45 -4 l6 -30 -26 20 c-47 37 -74 20 -36 -22 17 -20 17 -20 -10 -3
-29 19 -53 13 -44 -10 3 -8 -1 -14 -9 -14 -22 0 -18 24 8 47 73 68 229 87 360
46z m151 -465 c-4 -13 -7 -29 -5 -37 1 -8 -2 -17 -8 -20 -7 -5 -7 -18 1 -44
15 -48 -8 -103 -47 -113 -27 -7 -32 -19 -12 -28 6 -4 2 -4 -10 -2 -26 5 -30
-6 -8 -24 36 -30 2 -112 -65 -158 -51 -34 -64 -27 -68 39 -3 54 -2 57 25 64
15 5 38 7 51 6 25 -3 27 6 7 33 -20 26 -19 45 3 53 9 4 28 15 41 25 21 16 22
18 5 18 -17 0 -17 2 4 18 17 13 20 20 11 29 -8 8 -6 14 11 23 21 11 21 12 3
25 -10 8 -13 15 -6 15 6 0 23 25 37 57 25 54 46 69 30 21z"/>
<path d="M1285 1975 c-53 -28 -68 -61 -39 -89 31 -32 120 -10 144 35 9 16 8
26 -5 45 -18 28 -55 31 -100 9z"/>
<path d="M140 813 c0 -4 25 -33 56 -64 l56 -57 -60 -27 c-34 -15 -69 -36 -78
-47 -17 -18 -16 -19 62 -12 103 8 201 -8 282 -47 76 -37 107 -80 116 -158 7
-65 45 -111 112 -137 56 -21 70 -15 79 35 4 23 8 41 9 41 2 0 17 -5 33 -10 28
-10 31 -16 37 -71 9 -90 34 -109 201 -152 289 -75 655 -112 1011 -102 587 16
969 72 1048 154 22 23 29 41 33 88 5 56 7 61 37 71 18 7 34 12 37 12 2 0 3
-20 1 -45 l-4 -45 38 0 c76 0 147 69 158 154 17 133 119 191 338 191 113 0
116 1 100 19 -9 10 -43 31 -75 47 l-57 29 35 31 c19 17 45 45 57 62 l22 30
-25 -7 c-13 -4 -71 -14 -129 -22 -211 -28 -262 -54 -274 -138 -6 -41 -38 -96
-54 -96 -4 0 -5 27 -4 60 4 57 3 60 -19 60 -13 0 -57 -22 -98 -50 -92 -60
-152 -87 -222 -100 -88 -17 -99 -29 -99 -109 l0 -69 -67 -16 c-178 -40 -674
-72 -963 -61 -377 13 -634 39 -757 77 l-33 9 3 70 c2 80 1 81 -83 104 -67 19
-194 78 -264 123 -28 17 -61 32 -73 32 -21 0 -23 -4 -23 -62 0 -60 0 -61 -19
-44 -11 10 -25 41 -31 69 -7 29 -20 61 -29 71 -28 33 -96 56 -228 76 -71 10
-142 24 -157 30 -32 12 -36 12 -36 3z m279 -63 c75 -13 116 -32 132 -61 10
-19 13 -72 10 -153 l-1 -28 -34 30 c-58 50 -136 74 -263 80 -62 2 -110 8 -108
13 3 4 37 18 75 30 67 22 68 23 47 37 -29 19 -87 74 -87 82 0 6 66 -3 229 -30z
m3356 10 c-4 -6 -28 -28 -55 -49 l-48 -38 64 -27 c35 -16 64 -31 64 -35 0 -3
-39 -7 -86 -8 -109 -3 -195 -27 -252 -71 l-45 -34 7 27 c4 17 3 24 -3 21 -13
-8 -3 124 10 140 20 24 110 54 205 68 126 18 147 19 139 6z m-3046 -139 c48
-34 155 -84 245 -115 93 -32 122 -56 67 -56 -17 0 -60 10 -95 21 -74 24 -123
17 -119 -17 2 -10 6 -43 9 -72 l7 -53 -38 15 c-20 9 -40 16 -43 16 -2 0 -2 38
1 85 l5 86 -36 27 c-56 43 -82 70 -82 86 0 13 5 14 26 6 15 -6 38 -19 53 -29z
m2601 4 c0 -8 -23 -30 -50 -47 -58 -38 -74 -76 -68 -170 3 -58 -10 -75 -23
-27 l-6 24 -13 -28 c-11 -23 -11 -30 -1 -36 9 -6 7 -10 -9 -14 -20 -5 -21 -3
-14 49 10 81 1 104 -40 104 -19 0 -53 -9 -77 -20 -52 -23 -109 -27 -109 -6 0
19 27 28 33 12 7 -18 57 -8 57 11 0 8 15 19 33 25 59 21 203 97 222 118 21 24
65 27 65 5z m-2693 -98 c12 -11 39 -25 60 -32 37 -13 49 -33 28 -47 -6 -5 -6
-8 3 -8 6 0 12 -7 12 -15 0 -8 -5 -15 -11 -15 -8 0 -8 -5 1 -15 10 -12 10 -15
-1 -15 -12 0 -12 -2 -1 -9 15 -9 15 -20 0 -38 -7 -9 -7 -13 1 -13 10 0 8 -6
-16 -49 -1 -2 -27 11 -57 29 -38 24 -57 42 -60 59 -16 79 -18 107 -11 158 6
46 9 55 19 43 6 -8 21 -23 33 -33z m2751 -81 c-4 -110 -18 -137 -89 -173 -41
-21 -89 -33 -63 -15 16 10 28 52 15 52 -13 0 -10 22 4 32 6 5 5 8 -3 8 -10 0
-9 4 3 16 13 14 14 19 3 25 -10 7 -10 9 2 9 12 1 11 4 -3 14 -18 14 -18 14 -1
18 17 3 17 5 3 18 -14 12 -9 17 42 41 31 15 60 32 63 38 20 32 28 5 24 -83z
m-272 -75 c-10 -11 -15 -24 -12 -30 4 -5 -2 -14 -11 -20 -17 -10 -17 -10 2
-11 19 -1 19 -1 2 -14 -17 -13 -17 -14 0 -21 17 -6 17 -7 -2 -22 -20 -15 -20
-15 3 -10 12 3 22 1 22 -4 0 -5 -6 -9 -14 -9 -8 0 -18 -5 -22 -12 -5 -8 -1 -9
12 -5 14 6 13 2 -6 -14 -17 -14 -19 -19 -7 -15 9 3 17 2 17 -2 0 -50 -306
-117 -645 -141 -604 -43 -1108 -8 -1455 101 -101 32 -122 47 -116 85 3 13 0
23 -7 24 -8 0 -7 3 2 6 11 5 11 7 0 14 -8 5 -9 9 -3 9 6 0 9 20 7 51 -4 46 -2
51 14 45 45 -18 187 -56 278 -74 492 -101 1247 -91 1762 24 65 14 132 34 148
45 39 24 53 24 31 0z"/>
</g>
</svg>
