<?xml version="1.0" standalone="no"?>
<!DOCTYPE svg PUBLIC "-//W3C//DTD SVG 20010904//EN"
 "http://www.w3.org/TR/2001/REC-SVG-20010904/DTD/svg10.dtd">
<svg version="1.0" xmlns="http://www.w3.org/2000/svg"
 width="1016.000000pt" height="1486.000000pt" viewBox="0 0 1016.000000 1486.000000"
 preserveAspectRatio="xMidYMid meet">
<metadata>
Created by potrace 1.15, written by Peter Selinger 2001-2017
</metadata>
<g transform="translate(0.000000,1486.000000) scale(0.100000,-0.100000)"
fill="#000000" stroke="none">
<path d="M5037 14311 c-25 -27 -53 -66 -61 -86 l-16 -37 -30 22 c-26 19 -138
60 -162 60 -5 0 -8 -13 -8 -29 0 -16 -7 -45 -15 -64 -20 -48 -19 -95 3 -138
l18 -35 -55 13 c-167 39 -280 -8 -316 -132 -15 -50 -15 -60 -1 -108 24 -82 90
-137 166 -137 71 0 130 45 155 117 17 49 49 54 109 19 36 -21 116 -110 116
-129 0 -2 -17 -7 -38 -11 -50 -8 -104 -45 -116 -79 -23 -65 32 -116 128 -120
31 -1 56 -3 56 -4 0 -1 -7 -24 -16 -50 -25 -73 -66 -126 -122 -156 -41 -22
-62 -27 -124 -27 -40 0 -98 7 -128 15 -108 31 -136 31 -180 0 l-41 -28 -37 17
c-82 40 -193 30 -262 -23 l-25 -20 26 -20 c17 -13 29 -34 33 -61 4 -26 19 -54
41 -79 l35 -38 -48 8 c-118 22 -219 75 -247 130 -21 40 -21 105 0 155 10 24
14 51 10 72 -5 29 -9 32 -44 32 -43 0 -83 -26 -111 -73 l-18 -29 -17 31 c-39
77 -125 146 -190 153 -27 3 -30 -1 -46 -52 -23 -71 -23 -132 0 -197 10 -29 14
-53 9 -53 -5 0 -23 -16 -41 -35 l-32 -35 3 108 c4 128 -7 180 -52 230 -31 35
-31 39 -19 72 7 21 12 73 11 130 -2 104 10 141 58 179 89 70 206 0 236 -141 9
-41 9 -69 1 -103 -9 -38 -8 -48 4 -52 30 -11 140 5 195 30 l56 25 54 -52 c61
-59 114 -82 214 -92 62 -7 63 -6 70 20 3 15 4 74 2 132 -4 94 -8 111 -40 174
-30 61 -33 72 -20 83 48 39 79 186 51 238 -10 19 -10 19 -39 -1 -73 -52 -139
-59 -303 -34 -142 22 -352 22 -442 -1 -173 -43 -305 -141 -377 -280 -50 -96
-68 -170 -75 -307 l-6 -116 -42 56 c-23 32 -49 63 -59 71 -32 26 -38 49 -21
80 21 42 19 142 -5 226 -11 38 -20 85 -20 102 0 18 -5 33 -10 33 -19 0 -64
-28 -89 -54 -14 -14 -27 -26 -31 -26 -3 0 -14 16 -23 35 -14 28 -31 43 -85 68
-37 17 -71 33 -75 35 -5 2 -7 -52 -5 -122 l3 -126 -44 -6 c-41 -6 -81 -32 -81
-54 0 -5 15 -16 33 -25 17 -8 64 -41 104 -74 81 -66 134 -91 196 -91 l43 0 32
-77 c17 -43 52 -114 77 -157 25 -44 43 -81 41 -84 -3 -2 -35 21 -73 51 -158
127 -280 190 -542 281 -90 32 -188 68 -218 82 -31 13 -57 24 -58 24 -6 0 -25
-64 -25 -85 0 -12 13 -48 28 -79 l29 -56 -123 0 c-342 0 -581 -77 -766 -247
-40 -37 -98 -89 -127 -116 -30 -26 -51 -50 -49 -53 3 -3 37 -8 75 -11 l69 -6
-109 -106 c-225 -219 -327 -397 -327 -571 0 -87 8 -99 53 -78 l35 17 -13 -57
c-67 -287 -103 -745 -84 -1057 42 -681 231 -1147 588 -1446 140 -117 357 -341
370 -382 13 -38 4 -95 -31 -211 -14 -47 -2 -60 67 -70 33 -5 46 -12 51 -29 10
-36 35 -57 65 -57 24 0 30 -5 38 -37 25 -94 33 -143 33 -213 1 -126 -43 -197
-138 -221 -24 -6 -44 -15 -44 -19 0 -18 124 -70 166 -70 37 0 42 -2 37 -20 -3
-11 -27 -44 -54 -75 -58 -66 -74 -113 -65 -187 10 -79 16 -84 61 -54 21 14 47
26 59 26 36 0 92 19 130 45 l35 24 12 -42 c17 -63 6 -201 -21 -264 -27 -63
-89 -123 -126 -123 -30 0 -81 49 -90 86 -6 22 -8 23 -34 9 -24 -12 -44 -43
-63 -95 -4 -12 -6 -12 -6 2 -1 9 -16 33 -35 52 -24 26 -42 36 -65 36 -27 0
-31 -4 -31 -26 0 -15 -17 -65 -39 -113 -21 -47 -41 -100 -44 -117 -10 -50 9
-103 50 -147 l38 -40 -45 7 c-96 15 -171 65 -208 140 -63 125 -38 280 49 317
27 11 39 10 77 -4 53 -18 59 -16 78 29 21 51 18 115 -9 155 -26 40 -98 79
-145 79 l-34 0 42 48 c60 68 74 99 71 157 -1 28 -3 73 -4 100 -1 28 -6 53 -12
57 -5 4 -41 8 -78 8 -77 0 -113 -14 -169 -67 l-36 -35 -16 30 c-20 39 -67 77
-112 92 -37 12 -178 9 -191 -4 -4 -3 7 -21 25 -39 58 -60 65 -90 73 -332 9
-298 45 -450 146 -625 50 -86 172 -207 249 -247 205 -109 443 -71 628 99 116
106 195 251 233 428 24 116 24 391 0 549 -20 127 -83 387 -122 500 -14 41 -25
76 -25 78 0 2 11 3 23 3 13 0 32 9 42 20 27 30 11 88 -32 115 -25 16 -32 27
-33 52 0 19 -7 37 -19 45 -10 7 -22 29 -26 48 -8 38 -40 80 -61 80 -8 0 -20
12 -28 28 -8 15 -25 37 -38 49 -12 11 -31 32 -40 46 -10 14 -35 31 -55 38 -21
6 -46 22 -56 35 -9 13 -33 28 -51 35 -19 7 -39 23 -45 36 -10 23 -10 23 57 23
218 1 405 105 495 278 52 98 70 184 70 327 0 193 -47 375 -153 590 -55 112
-82 152 -203 301 -46 58 -87 144 -87 186 0 18 -4 20 -32 14 -18 -3 -42 -16
-54 -27 -23 -21 -44 -87 -44 -136 l0 -27 -15 22 c-32 45 -121 95 -208 116
l-27 6 0 -78 c0 -124 43 -236 108 -278 29 -19 20 -27 -38 -38 -81 -14 -140
-78 -140 -152 l0 -41 97 -6 c252 -14 442 -160 508 -391 27 -91 18 -216 -21
-292 -27 -55 -32 -60 -73 -68 -35 -8 -56 -5 -113 13 -38 13 -76 20 -84 17 -11
-4 -9 4 6 34 22 43 27 125 8 136 -6 4 -55 8 -107 8 -76 1 -108 6 -154 25 -77
30 -170 102 -230 176 -44 54 -125 204 -142 263 -6 22 -5 22 48 16 66 -8 114 6
151 45 l28 29 -27 37 c-16 20 -42 47 -58 59 -29 23 -29 25 -13 47 26 37 21 59
-14 59 -43 0 -118 28 -168 62 -55 38 -97 104 -123 193 -28 96 -40 125 -50 125
-5 0 -2 14 6 31 9 17 21 74 27 127 5 53 13 101 18 105 4 5 22 -18 40 -50 67
-118 100 -145 191 -154 45 -4 76 -13 97 -28 20 -14 33 -18 37 -10 4 6 8 56 8
112 2 123 -12 157 -97 234 l-55 50 67 6 c56 4 70 9 89 32 13 14 23 35 23 45 0
11 -35 54 -78 97 -117 116 -151 200 -152 371 0 98 18 204 49 293 l20 54 0
-126 c2 -260 65 -447 214 -636 73 -94 147 -154 260 -213 109 -58 178 -113 197
-160 7 -17 15 -30 19 -30 13 0 81 97 102 145 29 66 23 168 -14 241 l-26 51 64
36 c91 52 179 137 212 205 25 50 28 68 27 147 -1 96 -20 168 -46 173 -8 2 -41
-7 -74 -19 -66 -24 -122 -76 -166 -151 -26 -46 -62 -72 -122 -89 l-29 -9 26
28 c43 44 57 92 57 190 0 77 -27 222 -47 255 -2 4 -17 -12 -32 -35 -50 -78
-188 -146 -245 -120 -14 6 -35 31 -48 54 -31 58 -31 177 0 263 25 69 94 174
148 225 l37 35 -7 -30 c-4 -16 -26 -70 -48 -120 -32 -70 -42 -103 -42 -147 -1
-79 11 -88 68 -49 48 33 93 92 116 151 7 19 37 67 65 105 29 39 66 100 84 137
52 110 151 178 259 178 45 0 37 -10 -73 -91 -46 -34 -99 -82 -118 -108 -84
-111 -90 -255 -12 -339 l33 -36 37 28 c20 16 54 55 74 87 20 32 53 86 73 119
70 112 161 147 358 137 146 -8 243 -29 510 -110 246 -75 420 -119 576 -146
l109 -19 -708 -1 -707 -1 3 -2742 c3 -2558 4 -2748 20 -2813 71 -289 181 -490
371 -681 190 -190 382 -294 661 -357 84 -19 135 -20 755 -26 l665 -6 68 -32
c37 -18 92 -51 123 -75 58 -45 139 -143 158 -190 13 -35 24 -35 37 0 21 56
100 170 149 216 28 26 72 57 98 69 46 22 56 22 717 28 735 6 716 5 903 71 370
130 671 442 795 823 67 203 61 -67 64 2968 l3 2747 -702 1 c-387 1 -692 3
-678 6 202 31 440 89 710 173 251 78 331 93 500 94 127 1 150 -2 190 -20 71
-33 107 -70 167 -172 59 -100 126 -175 152 -170 8 2 29 25 45 52 23 37 31 63
34 111 8 125 -44 214 -181 314 -46 33 -90 68 -98 77 -13 16 -10 17 45 10 119
-14 192 -69 250 -190 18 -39 52 -94 74 -123 23 -28 54 -80 70 -115 20 -44 46
-79 86 -115 32 -29 64 -53 71 -53 18 0 29 59 21 109 -3 21 -23 75 -45 122 -21
46 -41 97 -44 112 -4 28 -3 28 42 -17 126 -124 190 -321 146 -447 -34 -94 -79
-109 -180 -60 -72 36 -95 54 -128 104 l-25 37 -11 -32 c-39 -123 -51 -254 -30
-333 6 -22 24 -57 40 -77 l29 -37 -30 9 c-55 16 -91 45 -125 100 -18 30 -49
70 -67 88 -31 29 -127 72 -162 72 -23 0 -50 -96 -50 -180 -1 -66 4 -85 32
-142 38 -78 112 -150 208 -204 36 -20 63 -39 61 -43 -44 -81 -52 -110 -52
-186 0 -69 4 -87 29 -132 15 -28 43 -66 61 -83 l33 -32 17 36 c25 52 83 100
182 150 146 73 235 152 327 291 116 174 172 394 160 625 l-4 75 15 -40 c23
-57 53 -189 60 -266 19 -182 -59 -361 -204 -471 -29 -22 -32 -29 -26 -57 10
-45 55 -71 124 -71 l55 0 -56 -50 c-79 -70 -98 -114 -98 -226 0 -49 3 -99 6
-110 l6 -22 41 24 c29 16 58 24 92 24 70 0 107 26 165 118 28 42 52 82 54 87
9 25 18 -11 26 -97 4 -51 15 -110 23 -130 13 -30 13 -39 2 -48 -7 -6 -20 -40
-29 -77 -45 -176 -140 -273 -286 -290 -55 -6 -57 -10 -35 -53 15 -28 14 -30
-35 -80 -53 -55 -61 -78 -32 -102 42 -38 84 -51 145 -44 57 6 58 5 51 -17 -57
-187 -186 -347 -341 -424 -72 -36 -83 -38 -175 -39 -63 -1 -103 -6 -113 -14
-21 -17 -19 -76 5 -128 11 -23 15 -40 9 -37 -5 4 -41 -3 -80 -15 -52 -16 -82
-20 -116 -15 -44 6 -46 8 -75 72 -79 167 -33 370 116 519 109 109 244 164 404
164 l74 0 -7 43 c-16 97 -58 135 -178 161 l-27 6 36 32 c63 55 87 118 92 237
l4 104 -42 -7 c-58 -9 -117 -41 -167 -89 l-43 -41 0 42 c0 79 -41 141 -96 145
-24 2 -29 -2 -36 -36 -12 -58 -51 -126 -116 -203 -93 -110 -154 -211 -210
-346 -78 -189 -103 -296 -109 -463 -6 -164 8 -247 58 -352 39 -83 140 -188
218 -227 77 -39 191 -66 283 -66 l79 0 -18 -24 c-10 -13 -33 -29 -51 -36 -18
-6 -39 -22 -48 -35 -9 -13 -28 -27 -44 -30 -32 -7 -80 -41 -80 -56 0 -5 -16
-25 -35 -45 -19 -19 -35 -41 -35 -49 0 -8 -7 -15 -15 -15 -29 0 -65 -47 -65
-85 0 -25 -4 -35 -15 -35 -18 0 -37 -43 -29 -64 4 -9 -6 -21 -26 -31 -66 -34
-72 -125 -10 -146 16 -6 30 -12 30 -13 0 -1 -11 -36 -25 -77 -40 -117 -101
-373 -121 -504 -25 -170 -23 -409 3 -535 38 -177 98 -294 208 -405 116 -116
236 -173 380 -182 299 -19 552 227 641 622 10 44 18 154 23 295 8 249 18 290
83 357 l30 31 -57 7 c-71 9 -144 1 -185 -20 -17 -9 -45 -36 -63 -61 l-31 -44
-30 31 c-52 53 -98 70 -179 67 l-72 -3 -9 -97 c-10 -114 -4 -135 61 -215 l43
-53 -33 0 c-42 0 -115 -37 -140 -71 -28 -38 -33 -101 -13 -154 10 -25 22 -47
26 -50 5 -3 32 2 59 11 42 13 54 14 77 2 86 -41 107 -194 44 -318 -27 -52 -94
-108 -154 -125 -85 -25 -93 -21 -52 26 24 28 37 56 42 86 7 46 0 69 -60 208
-14 33 -26 70 -26 83 0 17 -6 22 -24 22 -41 0 -57 -11 -87 -58 -20 -32 -29
-40 -29 -26 0 26 -34 80 -59 94 -18 9 -23 6 -41 -29 -37 -74 -87 -89 -140 -45
-81 69 -119 239 -84 378 l6 24 45 -28 c25 -16 66 -32 92 -36 52 -7 77 -18 107
-46 30 -26 37 -12 41 81 5 86 -2 103 -74 191 -55 66 -55 80 -3 80 38 0 109 29
154 63 18 13 17 15 -20 21 -140 26 -186 161 -133 387 20 86 22 89 49 89 33 0
57 21 66 55 5 19 15 25 50 31 67 10 80 24 67 70 -37 129 -41 196 -13 242 28
45 236 253 328 327 152 122 286 291 383 481 239 471 303 1242 163 1963 -13 69
-22 127 -20 129 3 2 14 -2 26 -8 41 -22 50 -7 50 78 0 180 -92 345 -319 569
l-112 110 67 6 c37 4 69 9 72 11 5 5 -95 101 -199 192 -178 154 -408 224 -741
224 l-127 0 24 36 c29 43 40 91 31 139 -9 46 -18 49 -63 26 -21 -10 -110 -44
-198 -75 -324 -114 -393 -151 -622 -330 -13 -10 -26 -17 -28 -14 -2 2 18 41
44 86 27 46 61 116 77 157 l29 75 49 0 c62 0 114 24 191 91 33 28 77 59 98 70
20 11 37 26 37 34 0 20 -37 42 -86 50 l-41 6 8 42 c10 54 11 194 1 201 -4 2
-40 -11 -79 -29 -59 -29 -74 -41 -91 -76 -15 -30 -23 -38 -27 -27 -6 16 -87
78 -102 78 -13 0 -63 -219 -63 -275 0 -30 8 -66 19 -87 l18 -37 -28 -27 c-16
-15 -48 -54 -71 -86 l-43 -59 -6 123 c-17 318 -173 518 -454 583 -91 21 -297
22 -434 1 -160 -24 -198 -22 -276 18 l-66 35 -9 -25 c-23 -59 5 -189 50 -229
19 -17 19 -18 -5 -59 -46 -79 -68 -227 -48 -326 l6 -33 62 6 c110 10 198 55
247 126 17 23 17 24 52 7 70 -33 120 -46 178 -46 l60 0 -9 33 c-24 95 4 196
72 255 59 53 107 54 165 6 51 -43 60 -71 54 -165 -4 -60 -1 -98 9 -131 l15
-48 -33 -33 c-42 -42 -59 -119 -52 -240 l5 -88 -32 28 c-17 15 -34 30 -38 33
-4 3 -1 27 7 54 19 63 19 129 -1 195 l-15 53 -41 -5 c-54 -7 -113 -50 -155
-112 -19 -27 -38 -51 -42 -53 -4 -1 -14 9 -21 23 -18 34 -70 65 -109 65 -48 0
-57 -35 -30 -116 25 -75 21 -119 -17 -164 -47 -55 -113 -84 -259 -114 -30 -7
-30 -7 -8 11 29 25 63 83 63 111 0 13 12 35 26 49 l27 27 -28 22 c-61 49 -174
57 -252 18 l-39 -20 -39 28 c-45 33 -77 35 -163 8 -87 -27 -209 -27 -261 0
-51 25 -106 91 -125 148 -21 60 -20 62 10 62 51 0 115 23 134 48 51 64 2 137
-106 160 l-36 7 33 44 c49 64 101 102 146 108 39 5 41 4 47 -29 8 -46 59 -104
102 -118 108 -36 206 30 229 153 17 89 -48 194 -135 217 -44 12 -136 9 -209
-6 l-33 -7 17 33 c19 36 17 94 -5 175 -8 28 -15 51 -15 52 -4 9 -140 -43 -163
-62 l-28 -24 -14 37 c-15 43 -106 142 -130 142 -10 0 -38 -22 -63 -49z m125
-62 c29 -39 36 -105 21 -203 -7 -49 -11 -91 -9 -93 2 -2 13 23 24 55 41 112
110 189 185 207 26 7 27 6 27 -37 0 -56 -25 -140 -55 -187 -12 -20 -53 -72
-89 -116 -60 -71 -126 -184 -126 -214 0 -19 -70 -13 -76 7 -18 55 -72 145
-120 202 -84 98 -122 159 -139 225 -16 63 -20 125 -7 125 36 0 86 -27 122 -66
42 -45 100 -154 100 -186 0 -10 5 -18 10 -18 6 0 8 10 5 23 -20 89 -25 118
-25 161 0 93 68 183 115 152 10 -7 27 -24 37 -37z m-984 -281 c-13 -59 -43
-103 -78 -118 -29 -12 -47 -11 -155 5 l-40 5 42 -14 c132 -43 223 -161 223
-286 0 -70 -17 -110 -46 -110 -76 0 -128 53 -179 184 -88 224 -171 298 -334
295 -65 -1 -65 -2 -21 -9 120 -21 204 -64 247 -129 71 -105 5 -241 -117 -241
l-45 0 -2 76 c-1 63 -6 87 -30 133 -38 73 -79 101 -151 101 -41 0 -66 -7 -99
-26 -40 -23 -103 -94 -103 -116 0 -6 -26 -38 -58 -73 -106 -116 -142 -215
-142 -398 0 -71 -4 -116 -9 -112 -5 3 -20 31 -32 63 -46 114 -24 404 38 511
65 113 219 224 354 256 81 19 218 19 334 0 150 -25 305 -13 382 29 15 8 29 15
29 16 1 0 -2 -19 -8 -42z m1947 0 c58 -16 90 -19 185 -14 63 3 133 10 155 16
60 14 221 12 293 -5 193 -46 358 -197 397 -365 26 -116 32 -287 11 -363 -10
-35 -25 -75 -35 -90 -16 -26 -17 -23 -17 96 0 184 -34 280 -143 400 -34 37
-61 73 -61 79 0 21 -53 80 -98 109 -48 30 -115 39 -164 20 -71 -27 -118 -122
-118 -239 l0 -64 -57 4 c-50 4 -60 9 -95 46 -23 25 -39 52 -40 69 -7 136 81
219 270 253 41 8 37 9 -33 6 -152 -5 -228 -70 -305 -260 -64 -160 -99 -202
-177 -213 l-40 -5 -13 46 c-26 93 11 208 88 278 46 42 71 56 127 75 l40 13
-35 -5 c-129 -18 -144 -18 -174 6 -48 38 -89 151 -48 134 9 -5 49 -17 87 -27z
m-1376 -9 c88 -40 180 -138 240 -256 25 -50 25 -53 6 -53 -8 0 -22 15 -31 33
-48 95 -129 159 -227 178 -60 12 -207 4 -207 -12 0 -4 7 -6 15 -3 22 9 84 -15
95 -36 32 -59 -11 -110 -93 -110 -44 0 -54 4 -82 34 -18 19 -35 48 -38 64 -14
67 34 143 105 169 54 19 167 15 217 -8z m907 10 c56 -14 99 -54 114 -106 16
-53 7 -88 -35 -130 -28 -28 -40 -33 -83 -33 -38 0 -55 5 -76 25 -32 30 -33 56
-3 91 19 21 32 27 66 27 36 0 40 2 25 10 -11 6 -62 11 -114 11 -78 0 -104 -4
-147 -23 -57 -25 -133 -99 -160 -155 -10 -23 -24 -36 -36 -36 -16 0 -14 8 20
71 83 155 216 259 330 259 30 0 74 -5 99 -11z m1823 -244 c18 -73 14 -94 -31
-152 -36 -47 -43 -52 -51 -37 -28 50 -26 157 4 252 l11 34 28 -27 c16 -15 33
-46 39 -70z m-4679 83 c0 -2 7 -39 15 -83 16 -83 13 -160 -8 -189 -10 -14 -18
-9 -56 40 -42 54 -43 57 -37 106 7 54 18 81 44 111 12 14 42 24 42 15z m-182
-185 c19 -9 60 -40 91 -69 l56 -52 -27 -12 c-46 -21 -88 -5 -185 73 -79 63
-88 73 -69 79 29 10 93 0 134 -19z m5109 13 c13 -13 -164 -144 -204 -152 -38
-7 -73 3 -73 21 0 26 119 117 179 136 26 8 89 5 98 -5z m-2454 -31 c100 -26
134 -61 97 -100 -31 -33 -130 -59 -130 -35 0 6 9 10 21 10 34 0 59 19 59 45 0
32 -18 40 -115 55 -138 21 -305 -3 -322 -46 -7 -20 29 -54 58 -54 10 0 19 -5
19 -11 0 -15 -66 -3 -105 20 -60 35 -26 90 72 117 68 18 275 18 346 -1z
m-1973 0 c0 -23 -27 -127 -52 -200 -26 -74 -32 -110 -36 -205 -2 -63 0 -139 6
-168 l9 -53 -22 21 c-56 53 -90 203 -75 328 14 104 45 180 100 235 41 40 70
58 70 42z m3645 -15 c93 -58 154 -262 125 -420 -14 -75 -50 -158 -82 -186 -12
-10 -19 -14 -15 -8 4 6 11 53 17 104 13 116 1 219 -39 338 -29 85 -53 192 -43
192 2 0 19 -9 37 -20z m-1893 -85 c17 -7 7 -203 -15 -261 -45 -122 -130 -249
-215 -321 -189 -160 -391 -248 -598 -260 -238 -13 -399 55 -534 226 -39 50
-81 96 -92 102 -74 39 -128 30 -208 -36 -67 -55 -97 -59 -105 -12 -40 232 -31
437 19 437 35 0 50 -59 56 -212 3 -80 8 -150 13 -154 4 -4 22 6 40 24 17 17
53 40 78 52 l47 20 -24 70 c-38 107 -31 220 12 220 32 0 102 -82 154 -179 28
-54 63 -109 77 -122 l26 -24 -7 25 c-27 90 -15 179 28 219 19 18 25 19 34 8 9
-10 6 -27 -9 -68 -27 -70 -28 -147 -2 -191 41 -72 184 -135 328 -145 87 -6
231 10 280 32 28 12 26 13 -41 13 -40 0 -90 6 -113 12 -68 18 -130 84 -155
167 -6 18 -1 23 26 32 43 14 67 7 207 -64 114 -57 196 -78 238 -60 13 5 0 11
-45 21 -61 12 -143 52 -158 75 -10 17 10 30 54 36 29 4 68 -3 132 -22 86 -27
95 -28 166 -17 122 19 183 62 225 156 12 28 24 79 27 115 6 82 17 100 54 86z
m133 -3 c6 -4 16 -44 22 -89 26 -177 98 -248 273 -269 45 -5 72 -1 138 20 93
29 149 33 177 12 17 -12 18 -16 5 -32 -22 -25 -108 -63 -163 -70 -68 -9 -44
-28 30 -22 46 3 84 17 184 67 173 87 246 89 220 8 -35 -105 -118 -158 -248
-159 -41 0 -71 -4 -67 -8 5 -5 47 -16 93 -26 218 -43 475 26 532 144 26 52 22
115 -11 188 -15 34 -17 50 -9 60 15 19 33 8 56 -34 29 -53 34 -93 18 -154 -7
-29 -12 -54 -11 -55 8 -9 62 66 106 147 56 103 80 134 124 157 26 13 30 13 45
-1 24 -25 19 -126 -12 -209 l-25 -68 25 -10 c13 -5 28 -9 32 -9 5 0 29 -19 55
-42 38 -33 50 -38 57 -27 5 8 9 66 9 129 0 120 11 183 38 213 21 24 29 22 49
-15 26 -50 19 -269 -13 -415 -7 -35 -41 -28 -97 19 -106 89 -173 85 -259 -14
-127 -146 -150 -167 -226 -206 -300 -155 -724 -50 -1005 248 -79 83 -162 240
-177 335 -11 69 -13 179 -3 188 8 9 25 9 38 -1z m-2862 -116 c92 -30 196 -69
232 -86 55 -26 215 -126 215 -134 0 -2 -44 12 -97 31 -54 19 -179 54 -277 79
-268 67 -322 97 -333 183 l-6 42 49 -30 c27 -17 124 -55 217 -85z m5827 97 c0
-9 -9 -35 -20 -58 -30 -61 -86 -87 -327 -149 -115 -30 -239 -66 -277 -80 -38
-15 -71 -24 -73 -22 -8 8 120 89 203 127 45 22 147 60 226 85 141 46 231 84
243 104 10 16 25 12 25 -7z m-5157 -288 c40 -60 86 -132 102 -159 l28 -49 -29
20 c-50 36 -138 135 -176 198 -31 52 -98 203 -98 222 0 13 101 -122 173 -232z
m4368 172 c-53 -154 -169 -314 -269 -371 -20 -12 114 201 201 320 42 57 79
104 81 104 3 0 -3 -24 -13 -53z m-5446 -86 c-11 -5 -59 -20 -106 -35 -360
-111 -692 -399 -868 -753 -27 -54 -50 -103 -52 -110 -10 -31 -116 -162 -131
-162 -56 -2 31 223 145 374 66 89 251 280 379 392 54 48 98 90 98 95 0 16 -57
-20 -113 -72 -53 -48 -59 -51 -124 -57 -43 -3 -64 -2 -58 4 26 25 165 134 208
162 125 84 300 144 471 160 112 11 176 12 151 2z m3265 -176 c44 -89 146 -221
211 -274 113 -92 261 -160 429 -196 57 -12 -27 -13 -720 -14 -782 0 -785 0
-700 18 193 42 335 116 466 246 102 101 167 202 212 327 l27 77 18 -52 c9 -29
35 -88 57 -132z m3233 175 c65 -5 155 -19 200 -30 123 -31 285 -115 397 -205
129 -104 126 -98 46 -92 -63 4 -71 8 -110 44 -58 56 -96 83 -115 83 -9 0 9
-22 44 -52 359 -313 556 -569 581 -755 6 -50 5 -53 -15 -53 -11 0 -21 4 -21 9
0 5 -21 35 -46 67 -25 33 -68 106 -95 163 -162 343 -454 620 -794 754 -49 20
-112 41 -140 48 -27 6 -54 16 -59 20 -12 11 -19 11 127 -1z m-6150 -21 c203
-30 466 -124 760 -273 214 -107 482 -259 468 -264 -14 -5 -161 25 -246 50 -38
11 -151 49 -250 85 -99 35 -231 78 -293 94 -231 59 -442 26 -539 -86 -20 -22
-56 -83 -80 -135 -40 -85 -85 -150 -103 -150 -10 0 -30 106 -30 159 0 55 27
117 66 152 16 15 62 48 102 74 49 32 79 59 92 84 10 20 30 42 45 49 36 17 147
15 246 -3 73 -14 109 -22 214 -52 13 -3 17 -2 10 5 -14 14 -214 69 -319 87
-103 17 -283 20 -355 4 -89 -19 -133 -56 -187 -158 -26 -50 -74 -124 -105
-164 -32 -39 -66 -92 -75 -117 -16 -43 -70 -130 -80 -130 -8 0 8 53 57 188 27
72 49 144 49 158 0 15 21 56 50 97 27 39 48 72 46 74 -2 2 -37 -29 -79 -69
-41 -40 -110 -107 -154 -148 -94 -89 -143 -177 -172 -310 l-18 -85 -12 57
c-23 106 19 212 139 360 38 46 67 85 65 87 -6 6 -123 -101 -171 -157 -27 -31
-62 -60 -85 -69 -58 -23 -115 -94 -175 -218 -89 -185 -105 -245 -111 -420 -6
-163 6 -248 47 -343 20 -47 84 -117 136 -149 19 -12 19 -12 -1 -28 -34 -27
-65 -29 -111 -7 -51 25 -85 73 -111 157 -28 93 -25 392 6 535 30 143 73 268
129 375 39 76 64 108 162 205 216 215 415 327 695 390 94 21 178 24 278 9z
m5950 -9 c281 -62 477 -171 688 -380 159 -157 218 -263 279 -495 38 -149 52
-256 52 -405 0 -238 -58 -374 -169 -396 -29 -6 -93 17 -93 34 0 4 18 17 40 30
52 30 104 101 132 182 21 59 23 82 23 260 -1 187 -2 198 -29 275 -72 204 -172
364 -247 395 -17 7 -80 63 -140 123 -61 60 -112 107 -115 104 -3 -3 24 -43 61
-88 74 -91 131 -198 141 -267 4 -26 1 -67 -7 -101 l-13 -56 -8 63 c-19 139
-88 265 -196 360 -37 31 -99 90 -139 131 -81 82 -94 79 -31 -6 25 -35 44 -74
50 -102 4 -25 28 -98 52 -161 24 -63 46 -128 50 -145 l6 -30 -30 35 c-17 19
-39 59 -50 89 -12 29 -40 76 -64 104 -24 27 -66 87 -93 134 -83 144 -85 146
-148 178 -55 27 -69 30 -190 33 -142 5 -267 -13 -442 -64 -109 -31 -117 -33
-111 -39 2 -3 58 9 124 26 139 36 296 49 344 29 16 -7 39 -29 51 -49 21 -37
39 -52 148 -124 81 -53 111 -104 111 -188 0 -66 -18 -159 -30 -159 -18 0 -61
64 -103 153 -69 147 -130 201 -257 231 -163 39 -329 11 -660 -111 -179 -66
-352 -115 -450 -128 -30 -4 -53 -5 -50 -2 15 15 331 188 476 260 330 166 539
240 784 280 65 11 169 5 253 -13z m-4666 -299 c17 -11 50 -47 73 -80 45 -68
111 -121 215 -175 l70 -37 -65 7 c-99 10 -164 30 -259 79 -90 47 -182 111
-189 133 -6 19 72 92 99 92 13 0 38 -9 56 -19z m3203 2 c26 -18 44 -37 60 -64
7 -13 -4 -25 -53 -61 -131 -96 -256 -149 -387 -162 l-65 -7 77 43 c100 56 158
105 203 172 58 87 114 114 165 79z m-5397 -554 c30 -100 81 -155 159 -169 68
-13 114 2 168 55 31 30 56 46 75 48 28 2 30 0 37 -53 8 -63 -4 -155 -26 -198
-8 -16 -30 -42 -48 -57 -30 -25 -38 -27 -98 -23 -165 12 -272 143 -316 386
l-14 77 4 -100 c5 -117 37 -239 95 -360 50 -106 104 -171 199 -244 110 -83
165 -148 198 -231 15 -39 29 -70 32 -70 2 0 1 21 -3 48 -11 79 -50 149 -120
218 l-65 64 68 0 c93 0 177 23 241 68 53 36 130 127 118 139 -4 3 -31 -17 -62
-45 -163 -149 -366 -162 -496 -32 -26 26 -55 62 -64 81 l-18 34 24 -21 c73
-66 183 -86 362 -66 104 12 118 22 178 123 42 73 102 132 127 127 26 -5 44
-74 39 -146 -9 -117 -92 -233 -207 -290 -47 -23 -68 -27 -147 -27 -97 0 -104
-4 -38 -23 141 -40 189 -198 98 -320 l-25 -33 -28 43 c-52 82 -122 128 -193
128 -25 0 -48 12 -98 53 -179 148 -298 370 -331 617 -22 170 20 350 105 447
l42 47 6 -120 c3 -65 13 -144 22 -175z m7617 170 c103 -201 67 -520 -86 -766
-59 -96 -218 -259 -260 -268 -130 -25 -168 -48 -217 -127 -28 -45 -31 -47 -48
-32 -9 8 -27 38 -39 67 -51 119 13 241 145 273 l30 7 -28 -36 c-38 -49 -74
-132 -82 -187 -9 -55 4 -45 29 23 28 75 75 137 150 197 166 131 234 220 291
380 45 126 84 373 56 356 -6 -4 -11 -22 -11 -40 0 -46 -35 -176 -61 -228 -56
-112 -159 -186 -266 -190 -66 -3 -98 19 -135 92 -23 45 -28 66 -28 129 0 107
6 124 39 116 14 -3 46 -26 71 -51 52 -50 97 -67 155 -58 51 8 72 19 113 57 53
51 74 122 80 275 l5 133 34 -33 c19 -18 48 -58 63 -89z m-7956 -89 c-61 -208
-78 -323 -78 -520 -1 -167 1 -192 23 -260 34 -110 55 -145 137 -232 85 -89
124 -160 124 -230 l0 -46 -32 9 c-18 4 -45 10 -59 13 -14 3 -47 25 -74 48
-140 123 -203 343 -193 676 2 86 1 146 -3 132 -11 -40 -10 -416 2 -512 10 -83
9 -91 -15 -162 -18 -51 -26 -96 -26 -143 0 -103 -38 -155 -74 -101 -13 20 -14
55 -5 263 14 361 56 605 144 840 36 96 144 320 151 313 1 -2 -8 -42 -22 -88z
m8224 -42 c143 -289 204 -565 223 -1002 11 -259 9 -290 -16 -300 -42 -16 -56
12 -61 116 -2 46 -12 101 -25 135 -26 71 -26 70 -10 264 13 151 8 424 -8 433
-3 2 -6 -98 -7 -222 -1 -201 -3 -236 -23 -307 -31 -116 -73 -198 -133 -261
-59 -62 -77 -74 -128 -84 -19 -4 -44 -11 -54 -15 -18 -8 -19 -4 -13 53 7 78
38 134 128 227 71 74 106 132 136 230 15 50 18 93 17 260 0 215 -9 278 -72
502 -16 56 -26 100 -22 98 3 -2 34 -59 68 -127z m-1416 -2555 c-4 -2934 0
-2759 -63 -2947 -124 -372 -423 -669 -799 -796 -183 -62 -189 -63 -895 -69
l-650 -6 -57 -28 c-61 -30 -165 -132 -196 -194 l-19 -36 -22 36 c-37 60 -128
134 -218 179 l-86 43 -666 6 c-728 6 -740 7 -934 69 -366 117 -651 410 -782
803 -70 209 -65 -4 -65 2943 l0 2664 558 3 c306 1 1534 3 2727 5 l2171 2 -4
-2677z m320 2288 c18 -16 57 -66 88 -112 34 -52 66 -89 85 -98 22 -11 72 -15
180 -15 159 -1 174 2 254 55 31 21 33 21 23 3 -24 -45 -98 -117 -146 -141
-109 -55 -256 -36 -372 50 -33 24 -68 54 -78 65 -25 29 -40 28 -25 0 31 -61
83 -109 154 -144 68 -33 85 -38 175 -42 l99 -5 -34 -27 c-29 -23 -44 -27 -105
-29 -163 -5 -291 73 -358 218 -21 44 -26 71 -26 126 1 77 16 125 39 125 8 0
29 -13 47 -29z m-7340 -1098 c9 -10 23 -47 32 -82 39 -155 124 -258 250 -303
l51 -18 -70 3 c-80 5 -133 27 -182 79 -33 34 -72 110 -73 141 0 9 -4 17 -9 17
-14 0 -1 -68 21 -117 39 -84 130 -143 276 -178 61 -15 78 -24 109 -58 l37 -41
-30 -13 c-36 -15 -121 -17 -162 -2 -17 6 -70 54 -127 115 -53 57 -101 104
-107 104 -5 0 20 -35 57 -77 94 -111 133 -174 176 -283 75 -192 181 -329 305
-390 73 -35 216 -65 277 -57 35 5 37 4 32 -16 -15 -49 -61 -111 -99 -131 -114
-58 -296 23 -422 189 -26 36 -50 62 -52 60 -9 -9 53 -89 127 -167 130 -138
256 -176 420 -130 57 17 78 19 99 10 15 -6 58 -14 96 -17 l69 -6 -40 -50 c-75
-95 -181 -130 -305 -101 -177 41 -375 193 -508 390 -137 205 -232 478 -279
811 -33 234 -36 281 -17 310 19 30 28 31 48 8z m1072 -196 c20 -29 63 -83 96
-122 68 -79 161 -252 208 -385 120 -343 17 -697 -239 -821 -49 -24 -157 -54
-165 -46 -2 2 18 20 45 40 86 66 160 179 197 302 27 89 24 259 -5 345 -48 137
-132 235 -253 294 -77 38 -172 66 -223 66 -46 0 -105 12 -105 21 0 18 57 73
95 90 80 37 161 20 258 -54 26 -20 47 -33 47 -28 0 13 -86 87 -145 126 -108
69 -177 169 -191 276 -7 51 -7 51 17 44 64 -20 113 -58 247 -191 153 -152 207
-192 101 -74 -93 104 -97 109 -114 178 -18 68 -14 95 18 130 l21 22 27 -80
c15 -45 43 -104 63 -133z m7577 42 c-47 -506 -182 -868 -415 -1115 -228 -243
-482 -325 -638 -207 -37 27 -88 89 -88 105 0 4 22 8 49 8 27 0 67 7 90 15 38
13 47 13 108 -6 95 -30 208 -24 281 14 69 35 132 87 182 150 58 72 49 73 -23
3 -76 -74 -136 -111 -216 -132 -114 -29 -194 18 -240 138 -8 23 -7 23 73 24
156 2 299 68 391 181 50 61 126 196 145 258 30 96 94 195 198 308 24 27 41 51
37 55 -3 4 -52 -41 -108 -100 -56 -59 -112 -112 -125 -118 -32 -15 -121 -14
-161 2 l-32 13 35 41 c32 37 45 44 108 58 176 39 282 128 303 254 4 23 5 42 2
42 -2 0 -14 -27 -26 -59 -42 -116 -138 -182 -260 -180 l-56 0 42 14 c136 42
233 159 264 318 15 72 42 98 73 67 19 -19 19 -25 7 -151z m-996 131 c37 -72 5
-163 -98 -275 -125 -135 -67 -98 82 53 127 128 191 180 249 197 20 6 22 3 22
-32 -1 -47 -37 -137 -75 -188 -16 -21 -63 -62 -105 -91 -80 -56 -134 -103
-127 -110 2 -3 28 11 56 30 60 40 103 51 169 42 53 -7 98 -35 130 -80 l22 -31
-52 -8 c-220 -31 -300 -62 -400 -155 -112 -105 -161 -228 -160 -397 1 -192 84
-364 225 -469 53 -40 45 -45 -38 -22 -138 37 -248 131 -314 268 -54 115 -66
172 -65 313 2 145 21 225 93 382 68 149 107 213 191 312 76 90 107 143 136
234 20 64 36 71 59 27z m-6570 -1968 c-5 -15 -46 -13 -89 4 -16 6 -18 4 -13
-18 5 -18 1 -31 -17 -47 -27 -25 -84 -37 -106 -21 -13 9 -12 12 4 25 11 8 35
15 53 15 34 0 45 16 18 27 -14 5 -14 8 -2 22 8 9 22 30 31 48 15 31 17 31 45
17 34 -17 57 -10 68 19 6 17 9 11 11 -27 2 -27 1 -55 -3 -64z m6445 83 c0 -24
26 -28 61 -11 39 19 39 19 39 2 0 -7 11 -29 24 -49 20 -28 22 -37 10 -41 -26
-10 -14 -26 19 -26 38 0 73 -22 63 -38 -11 -18 -58 -14 -95 9 -28 17 -32 24
-29 50 4 27 2 30 -16 25 -59 -17 -78 -18 -87 -5 -12 19 -11 99 1 99 6 0 10 -7
10 -15z m-6412 -259 c60 -31 109 -116 169 -294 33 -97 37 -118 37 -217 1 -108
0 -111 -34 -170 -49 -86 -119 -151 -182 -170 -28 -8 -57 -20 -66 -27 -13 -11
-14 -7 -10 36 5 39 19 67 69 139 59 85 63 95 72 171 6 48 7 97 2 121 -9 39 -9
38 -15 -31 -5 -77 -23 -108 -69 -126 -24 -9 -81 6 -81 21 0 4 16 15 35 24 53
25 75 78 75 179 0 46 -7 112 -15 148 -31 136 -38 178 -32 194 8 20 11 20 45 2z
m6412 -32 c0 -19 -10 -72 -22 -117 -17 -60 -23 -110 -23 -187 0 -123 15 -158
78 -189 l39 -19 -31 -16 c-68 -35 -121 10 -131 111 -7 67 -7 66 -8 -32 -2
-113 6 -135 82 -242 42 -59 71 -127 61 -144 -7 -10 -91 17 -139 45 -44 26 -99
92 -137 166 -21 39 -24 58 -22 145 1 115 17 175 87 342 47 111 67 139 120 167
37 19 46 13 46 -30z m-7264 -555 c65 -40 81 -124 47 -249 -24 -90 -37 -169
-25 -155 4 6 16 42 26 80 23 92 74 201 116 248 37 43 88 72 142 82 l36 7 5
-44 c3 -23 8 -55 12 -69 9 -35 -22 -98 -107 -217 -65 -92 -93 -154 -86 -190 2
-9 12 7 22 36 23 67 69 122 103 122 38 0 89 -28 128 -71 39 -44 52 -79 36
-106 -6 -10 -11 -12 -11 -6 0 16 -52 43 -82 43 -38 0 -85 -36 -124 -95 -37
-55 -37 -57 -38 -158 0 -91 3 -107 26 -152 53 -102 168 -180 281 -192 96 -10
287 34 287 67 0 6 -11 5 -30 -5 -39 -20 -142 -20 -186 1 -22 10 -40 31 -54 60
-25 50 -21 82 16 154 12 25 26 66 29 93 4 26 11 47 15 47 17 0 43 -43 61 -100
27 -87 46 -115 98 -144 l46 -26 -52 0 c-63 0 -105 31 -134 97 -23 54 -33 55
-25 1 14 -88 76 -138 172 -138 66 1 121 28 172 85 56 63 57 84 4 46 -41 -29
-96 -41 -138 -30 -48 14 -74 58 -74 129 0 83 10 91 59 47 72 -65 150 -47 222
51 55 75 73 219 45 364 l-13 68 34 66 c18 37 33 75 33 85 0 10 4 20 9 23 10 7
21 -151 21 -319 0 -214 -30 -363 -100 -493 -147 -277 -448 -374 -728 -236
-227 111 -342 380 -342 798 0 150 -15 230 -56 293 -8 12 -14 25 -14 29 0 12
84 -7 116 -27z m8169 -11 c-43 -79 -54 -142 -54 -303 2 -481 -160 -758 -485
-830 -96 -22 -187 -15 -286 19 -131 46 -227 136 -303 283 -54 104 -72 170 -88
318 -12 114 -5 453 10 468 4 4 13 -12 20 -35 7 -24 24 -62 37 -85 l24 -42 -16
-93 c-30 -172 -1 -301 86 -382 44 -41 54 -46 95 -46 39 0 51 5 89 41 43 39 45
39 51 18 11 -32 8 -110 -4 -141 -25 -64 -106 -79 -187 -34 -26 14 -49 25 -51
23 -8 -9 61 -89 98 -114 56 -37 138 -43 202 -15 55 24 75 53 83 118 l5 49 -32
-58 c-38 -68 -69 -87 -136 -86 l-48 0 41 19 c50 22 81 59 94 114 12 51 51 129
67 133 7 3 16 -18 23 -53 7 -31 23 -77 37 -103 41 -77 20 -161 -49 -197 -41
-21 -133 -21 -183 1 -45 18 -57 13 -21 -10 38 -25 110 -44 196 -51 139 -12
269 47 338 152 43 65 55 114 50 210 -3 64 -10 90 -30 125 -58 98 -131 133
-190 89 -24 -17 -32 -20 -38 -9 -9 13 11 70 33 97 22 28 101 72 127 72 36 0
76 -44 105 -116 18 -44 25 -52 25 -33 0 46 -22 92 -88 184 -36 50 -76 114 -89
143 -24 51 -24 53 -8 97 10 24 15 54 12 66 -5 19 -3 20 31 14 54 -10 104 -39
145 -84 47 -52 61 -81 108 -220 32 -95 39 -107 34 -66 -3 28 -15 83 -26 123
-23 85 -24 131 -5 175 24 57 82 93 153 96 l22 1 -24 -42z"/>
<path d="M3550 13272 c0 -4 23 -54 51 -111 43 -88 64 -118 133 -186 64 -64
100 -91 166 -124 181 -89 392 -94 570 -14 70 32 53 40 -25 13 -187 -64 -400
-44 -564 52 -108 64 -236 209 -296 336 -18 38 -35 54 -35 34z"/>
<path d="M6595 13194 c-73 -130 -201 -257 -315 -312 -162 -78 -321 -90 -501
-38 -46 14 -85 23 -87 21 -9 -8 85 -48 155 -66 148 -37 315 -18 461 53 49 24
92 57 158 123 76 76 97 105 138 187 26 53 46 102 44 109 -2 7 -26 -28 -53 -77z"/>
<path d="M1210 12224 c0 -49 34 -204 60 -275 40 -111 89 -186 168 -260 61 -58
187 -138 198 -126 3 2 -24 25 -60 51 -156 111 -263 283 -330 528 -26 93 -36
116 -36 82z"/>
<path d="M8961 12155 c-65 -251 -194 -451 -359 -560 -64 -42 -43 -42 39 1 178
94 298 283 339 535 18 113 8 126 -19 24z"/>
<path d="M5062 12443 l-2582 -3 2 -2653 3 -2652 26 -96 c62 -222 144 -365 298
-520 170 -170 327 -257 569 -316 57 -14 170 -17 782 -22 l715 -6 63 -34 c41
-22 89 -62 137 -113 l73 -78 31 49 c43 66 106 127 161 154 45 22 47 22 715 28
639 6 674 7 767 28 178 39 298 91 427 181 227 160 383 408 440 697 18 95 19
184 25 2731 l7 2632 -38 -2 c-21 -2 -1200 -4 -2621 -5z m2576 -2685 l-3 -2613
-27 -99 c-110 -398 -417 -682 -833 -771 -69 -15 -171 -18 -755 -24 l-675 -6
-47 -23 c-50 -25 -134 -102 -143 -133 -5 -16 -15 -10 -60 36 -34 36 -78 67
-122 88 l-68 32 -715 6 c-770 7 -749 5 -915 62 -153 53 -276 129 -401 249
-141 136 -238 300 -292 496 l-27 97 -3 2608 -2 2607 2545 0 2545 0 -2 -2612z"/>
<path d="M4908 12098 c-41 -11 -50 -33 -19 -43 15 -4 23 -23 34 -73 33 -146
38 -142 -55 -45 -45 49 -94 96 -108 105 -39 28 -115 22 -103 -8 3 -8 11 -14
18 -14 25 0 36 -30 59 -161 l24 -132 -21 -18 c-17 -14 -18 -19 -7 -20 24 -2
73 2 92 7 20 6 13 34 -8 34 -8 0 -19 10 -24 23 -11 25 -42 188 -37 193 2 2 52
-48 111 -111 59 -63 114 -115 122 -115 20 0 18 17 -16 185 -28 137 -29 150
-14 166 9 10 13 23 9 28 -7 12 -7 12 -57 -1z"/>
<path d="M5230 12099 c0 -7 7 -17 15 -23 13 -10 13 -25 -5 -131 -27 -163 -27
-163 -50 -170 -30 -10 -25 -35 8 -35 15 0 37 -3 50 -6 18 -5 22 -2 22 15 0 11
-4 21 -10 21 -13 0 -12 56 4 150 l12 75 17 -115 c9 -64 17 -125 17 -138 0 -52
30 -16 76 93 26 63 50 113 52 111 2 -3 -2 -47 -8 -100 -9 -67 -17 -96 -26 -96
-17 0 -29 -20 -18 -30 5 -4 35 -10 67 -14 46 -5 57 -3 57 8 0 8 -7 19 -15 24
-14 7 -14 23 1 147 8 77 18 143 20 147 3 5 12 8 20 8 8 0 14 7 14 15 0 15 -60
31 -83 22 -7 -3 -32 -51 -56 -107 -28 -64 -47 -97 -51 -89 -4 8 -13 58 -20
112 -10 75 -17 100 -31 107 -25 14 -79 12 -79 -1z"/>
<path d="M4402 11957 c-89 -41 -108 -59 -65 -65 16 -2 32 -28 68 -110 70 -159
71 -161 49 -177 -14 -10 -16 -17 -8 -25 9 -9 21 -7 50 8 22 10 72 31 112 47
48 18 72 32 68 40 -2 7 -10 31 -17 54 -15 51 -39 55 -37 6 1 -40 -12 -60 -52
-73 -34 -12 -40 -7 -69 61 -20 46 -20 47 -1 57 27 14 47 12 54 -5 5 -13 36
-22 36 -11 0 2 -13 34 -30 71 -30 66 -55 81 -44 26 5 -23 2 -32 -14 -40 -12
-6 -25 -11 -30 -11 -7 0 -52 95 -52 111 0 3 18 12 40 19 37 12 42 12 63 -8 28
-26 37 -28 37 -7 0 28 -30 75 -48 74 -9 0 -59 -19 -110 -42z"/>
<path d="M5730 11993 c-69 -26 -130 -131 -130 -224 0 -75 12 -104 52 -129 57
-35 114 -22 170 37 90 94 91 280 2 313 -27 11 -70 12 -94 3z m85 -53 c47 -52
-42 -280 -111 -280 -24 0 -44 31 -44 69 0 86 75 231 119 231 10 0 26 -9 36
-20z"/>
<path d="M6040 11856 c0 -8 4 -17 9 -21 6 -3 -27 -62 -72 -130 -65 -100 -85
-125 -104 -125 -28 0 -31 -26 -3 -35 11 -4 34 -18 51 -32 23 -20 33 -23 42
-14 9 9 9 16 0 30 -10 15 -6 27 23 70 19 28 39 49 44 46 5 -3 0 -38 -11 -77
-23 -81 -20 -105 16 -131 29 -21 49 -14 40 14 -4 11 -1 51 6 90 11 64 15 71
44 83 47 20 75 61 75 111 0 47 -15 65 -92 108 -53 31 -68 33 -68 13z"/>
<path d="M4148 11825 l-28 -24 40 -111 c22 -61 34 -107 27 -103 -7 4 -47 34
-88 66 -81 61 -96 66 -134 41 -31 -20 -32 -44 -2 -44 31 0 172 -201 172 -247
0 -46 8 -48 54 -15 30 22 37 32 28 41 -6 6 -19 11 -28 11 -15 0 -119 128 -119
145 0 7 104 -71 159 -118 49 -42 59 -23 28 55 -35 87 -67 172 -67 177 0 3 27
-32 61 -77 44 -58 59 -87 54 -101 -10 -33 12 -33 64 1 55 36 59 50 17 58 -39
7 -199 216 -185 241 13 25 11 29 -8 29 -10 0 -30 -11 -45 -25z"/>
<path d="M5255 11656 c-4 -19 -4 -61 -1 -93 3 -32 8 -115 12 -184 5 -106 3
-136 -11 -180 -20 -62 -77 -158 -142 -237 -49 -60 -117 -192 -134 -262 -10
-40 -12 -42 -22 -25 -7 12 -12 59 -11 115 2 111 18 163 83 259 50 74 71 120
71 158 -1 27 -2 26 -21 -12 -12 -22 -56 -76 -99 -120 -95 -97 -171 -212 -193
-292 -20 -69 -25 -186 -14 -293 5 -53 4 -70 -3 -58 -6 9 -53 56 -106 103 -70
63 -99 84 -107 76 -8 -8 0 -31 28 -84 54 -99 54 -152 3 -258 -47 -98 -64 -187
-48 -262 13 -66 61 -142 102 -163 l29 -15 -49 -39 c-84 -66 -123 -138 -124
-225 -1 -130 94 -224 302 -294 93 -32 102 -48 108 -184 l4 -97 -58 -26 c-146
-63 -168 -84 -189 -177 -3 -16 -26 -50 -50 -76 -65 -69 -79 -108 -64 -180 9
-49 8 -68 -5 -114 -23 -79 -20 -131 10 -195 24 -51 26 -62 19 -137 -6 -72 -4
-88 15 -128 12 -25 37 -56 56 -69 51 -34 52 -55 4 -139 -54 -96 -61 -103 -204
-202 -116 -81 -189 -149 -306 -285 -30 -35 -92 -95 -137 -133 -85 -72 -97 -89
-64 -89 25 0 251 180 361 286 80 78 198 170 206 161 2 -2 -4 -15 -14 -28 -10
-13 -24 -53 -31 -89 -7 -36 -15 -75 -18 -87 -4 -16 -1 -23 10 -23 10 0 26 27
45 78 49 127 55 151 43 165 -7 9 -5 16 10 25 11 7 19 8 19 2 0 -22 30 -8 45
20 9 17 18 30 21 30 3 0 -19 -47 -50 -106 -31 -58 -56 -117 -56 -132 1 -27 1
-26 40 17 54 59 110 173 110 223 0 28 -4 39 -12 35 -7 -2 6 36 30 85 42 88 42
89 65 72 29 -22 67 -84 96 -157 25 -61 61 -94 129 -118 31 -11 32 -13 32 -65
0 -51 2 -56 30 -72 20 -11 34 -29 40 -54 6 -20 22 -46 35 -56 55 -44 146 -36
177 16 13 20 18 22 18 10 0 -25 17 -22 59 8 24 18 18 9 -19 -27 -31 -30 -78
-70 -105 -89 -43 -30 -58 -51 -105 -145 -31 -60 -99 -174 -153 -253 -53 -79
-97 -147 -97 -153 0 -21 35 -7 69 29 84 87 226 281 261 357 39 82 59 106 120
143 19 11 49 36 67 54 39 41 93 142 93 174 0 26 10 37 80 87 58 43 117 127
136 197 8 30 19 63 24 72 7 12 6 34 0 64 -9 41 -7 54 16 112 14 36 39 78 54
92 15 14 38 46 51 70 22 41 24 58 25 180 1 74 9 180 18 235 10 55 15 119 12
143 -3 23 -1 64 5 91 9 41 7 60 -12 122 -25 85 -33 95 -113 143 -75 45 -138
49 -210 12 -78 -40 -95 -41 -107 -9 -13 33 3 216 21 238 6 7 41 21 78 30 210
55 354 194 339 326 -8 64 -41 121 -107 183 -57 53 -169 110 -252 127 -29 6
-78 18 -108 27 -43 12 -103 16 -277 16 l-222 0 -12 30 c-10 25 -192 216 -206
216 -1 0 -3 -36 -3 -81 0 -98 17 -140 72 -177 l39 -25 -53 -17 c-29 -9 -64
-22 -77 -29 -21 -12 -26 -10 -47 15 -42 50 -64 101 -64 148 0 45 31 159 57
210 9 17 21 61 27 99 l12 69 16 -34 c9 -18 37 -77 62 -130 26 -55 55 -102 67
-109 21 -11 21 -10 13 43 -5 29 -7 106 -5 171 1 65 -3 171 -9 235 -13 120 -7
185 23 255 10 24 11 16 8 -57 -3 -78 0 -96 34 -192 21 -61 39 -136 42 -175 4
-49 10 -69 19 -69 11 0 14 18 14 70 0 83 44 257 90 354 17 36 65 109 106 163
89 114 107 148 133 240 l20 68 0 -56 c1 -31 -12 -112 -28 -180 -74 -310 -75
-340 -25 -540 8 -30 14 -67 14 -82 0 -14 5 -38 11 -54 l11 -28 9 24 c5 13 9
58 8 100 -1 85 9 132 50 223 l28 63 12 -85 c7 -47 27 -128 44 -180 20 -61 31
-116 31 -152 1 -39 5 -58 13 -58 7 0 20 26 29 58 9 31 35 91 57 132 37 68 42
73 48 50 4 -14 7 -41 8 -60 1 -44 39 -125 96 -207 64 -92 76 -118 77 -173 0
-54 -21 -106 -58 -141 -30 -28 -31 -49 -2 -49 31 0 124 99 137 147 24 86 9
148 -65 256 -77 112 -102 164 -140 299 -27 94 -89 244 -110 267 -3 3 -9 0 -15
-6 -8 -8 -5 -30 11 -78 22 -65 22 -69 6 -133 -9 -36 -25 -79 -35 -95 l-19 -31
-7 40 c-4 21 -13 65 -21 97 -27 107 -29 178 -6 253 28 95 38 214 19 214 -9 0
-17 -15 -21 -40 -3 -21 -23 -73 -45 -113 -42 -82 -124 -193 -129 -177 -2 6 7
48 21 93 46 149 67 244 67 309 0 67 -37 213 -70 278 -22 44 -48 141 -58 217
-8 65 -28 81 -37 29z m162 -1797 c43 -6 112 -22 153 -36 94 -32 212 -92 204
-105 -3 -5 -15 1 -27 13 -20 21 -21 21 -28 3 -5 -13 -8 -14 -8 -4 -1 8 -11 21
-22 29 -18 11 -23 11 -30 -1 -17 -26 2 -78 29 -78 6 0 13 8 15 18 3 10 5 6 6
-10 1 -18 7 -28 16 -28 8 0 15 -5 15 -11 0 -6 8 -9 18 -7 15 4 18 1 14 -18 -2
-14 0 -24 7 -24 6 0 11 -5 11 -10 0 -6 -27 12 -61 40 -70 59 -111 81 -209 113
-56 20 -66 25 -46 29 14 3 29 1 35 -5 13 -13 41 -1 41 18 0 18 -42 36 -87 38
-18 0 -33 5 -33 9 0 4 -4 8 -10 8 -5 0 -10 -14 -10 -31 0 -24 4 -30 15 -25 8
3 15 1 15 -5 0 -6 -10 -9 -22 -7 -20 3 -23 8 -20 40 3 31 1 37 -12 32 -9 -3
-16 -14 -16 -23 0 -9 -4 -22 -9 -30 -7 -10 -9 -4 -8 20 1 22 -2 33 -10 32 -7
-2 -13 2 -13 7 0 16 -27 12 -34 -5 -4 -11 -15 -14 -41 -10 -30 3 -35 1 -35
-15 0 -15 7 -20 29 -20 16 0 32 6 34 13 4 8 6 6 6 -4 1 -14 -17 -17 -110 -23
-173 -11 -361 -64 -451 -127 -14 -11 -30 -19 -35 -19 -4 0 -1 5 7 10 11 7 12
14 4 27 -12 19 -64 37 -64 22 0 -5 -7 -9 -15 -9 -8 0 -22 -14 -30 -31 -9 -17
-19 -28 -22 -25 -12 11 52 80 109 116 68 44 156 76 278 101 100 20 338 25 457
8z m49 -159 c43 -11 104 -35 135 -51 58 -31 139 -94 106 -83 -11 4 -30 -2 -47
-15 -38 -28 -41 -27 -24 9 20 39 5 70 -34 70 -20 0 -40 -14 -77 -55 -59 -64
-94 -75 -41 -13 42 48 48 91 15 108 -36 20 -67 3 -105 -55 -38 -60 -49 -69
-34 -29 6 14 10 45 10 69 0 34 -5 47 -20 55 -45 24 -76 -9 -100 -108 -15 -58
-34 -49 -40 20 -6 65 -22 88 -61 88 -47 0 -62 -25 -55 -92 8 -65 -6 -78 -24
-24 -17 53 -47 86 -79 86 -54 0 -64 -35 -30 -101 11 -23 18 -43 15 -46 -2 -3
-21 13 -40 35 -46 50 -83 67 -119 53 -37 -14 -34 -38 10 -97 l36 -49 -39 36
c-50 47 -79 56 -105 33 -20 -18 -25 -49 -9 -59 17 -10 11 -25 -6 -18 -11 4
-22 -1 -30 -12 -13 -18 -14 -18 -14 4 0 93 137 203 308 246 142 36 356 34 498
-5z m-103 -210 c45 -12 64 -30 32 -30 -9 0 -18 -7 -21 -15 -5 -12 -10 -13 -20
-4 -8 6 -14 9 -14 6 0 -3 -3 -12 -6 -21 -4 -10 -1 -16 9 -16 8 0 18 -7 21 -16
5 -13 2 -15 -16 -10 -13 4 -63 9 -113 13 -110 7 -186 -7 -249 -47 -25 -16 -46
-27 -46 -24 0 9 44 43 55 44 15 0 65 46 65 58 0 12 -31 32 -49 32 -6 0 -11 -8
-11 -17 0 -15 -1 -15 -13 1 -12 16 -14 16 -38 -6 -14 -13 -31 -22 -38 -20 -7
2 -15 -5 -18 -17 -6 -22 -18 -27 -28 -11 -8 12 59 56 126 82 97 37 263 45 372
18z m-81 -154 c143 -31 160 -55 148 -206 -5 -58 -9 -107 -10 -110 0 -3 -7 4
-15 14 -12 16 -14 40 -8 118 7 111 0 128 -53 128 -41 0 -54 -21 -54 -87 0 -26
-5 -55 -10 -63 -7 -10 -10 11 -10 69 0 111 -21 138 -84 110 -34 -16 -48 -56
-46 -131 4 -110 -3 -117 -10 -10 -7 117 -18 138 -68 127 -57 -12 -66 -33 -58
-139 5 -73 3 -96 -8 -105 -15 -12 -19 4 -31 124 -7 73 12 112 71 140 78 37
142 42 246 21z m24 -358 c-3 -34 -13 -72 -21 -84 -26 -40 -20 -47 40 -42 45 4
55 2 55 -11 0 -13 -10 -15 -59 -13 -32 2 -76 -1 -97 -7 -37 -10 -41 -9 -64 17
-31 36 -63 33 -58 -6 2 -18 10 -28 28 -32 24 -6 24 -7 -9 -14 -18 -5 -51 -16
-73 -26 -30 -13 -49 -15 -76 -9 -66 15 -99 -10 -41 -30 57 -20 142 -12 262 25
17 5 18 4 3 -25 -20 -38 -20 -75 -2 -91 8 -6 13 -17 10 -24 -8 -21 26 -48 50
-42 12 3 27 6 34 6 10 0 11 13 6 53 -4 28 -11 55 -16 58 -15 10 34 99 54 99
15 0 18 -9 18 -57 -1 -32 -7 -76 -15 -98 -21 -58 -19 -68 10 -63 21 5 23 3 14
-15 -13 -23 2 -43 24 -34 19 7 32 64 19 80 -6 7 -12 44 -14 84 -2 56 0 69 10
61 7 -6 12 -35 13 -67 1 -31 4 -67 8 -81 4 -15 1 -36 -7 -53 -8 -15 -11 -35
-8 -43 5 -12 2 -14 -11 -9 -51 22 -106 28 -158 18 -63 -11 -75 -4 -75 43 0 32
-1 33 -40 32 -22 0 -43 -4 -45 -9 -3 -4 -12 -6 -20 -3 -22 9 -51 -13 -70 -51
-11 -24 -22 -35 -31 -31 -7 3 -36 8 -64 12 -67 9 -69 -16 -4 -41 39 -15 71
-17 208 -13 156 3 163 3 158 -15 -4 -17 -6 -17 -14 -3 -13 23 -21 20 -42 -18
-12 -23 -17 -49 -15 -80 3 -37 1 -46 -12 -46 -8 0 -26 -11 -39 -25 -18 -19
-21 -28 -12 -37 9 -9 19 -5 42 17 23 22 33 26 42 17 23 -23 29 -11 24 51 l-6
62 13 -45 c6 -25 17 -45 22 -45 11 0 23 66 24 134 l1 44 37 -6 c20 -4 40 -10
44 -14 11 -11 -11 -93 -25 -93 -12 0 -52 -77 -44 -85 3 -3 18 -7 34 -8 40 -3
77 52 72 110 -3 41 -3 42 17 24 11 -9 46 -34 78 -54 32 -21 66 -52 76 -69 18
-28 18 -35 6 -76 -8 -25 -25 -56 -38 -70 l-24 -24 -113 57 c-105 53 -117 56
-179 55 -36 -1 -88 -1 -114 -1 l-48 1 36 31 c19 17 35 35 35 40 0 13 -47 11
-56 -2 -3 -6 -16 -8 -27 -5 -25 6 -57 -19 -57 -46 0 -20 20 -24 38 -6 9 9 12
9 12 1 0 -19 -19 -25 -78 -24 -66 1 -94 -11 -74 -31 10 -10 60 -13 195 -13
l182 0 85 -44 c91 -46 130 -76 130 -99 0 -61 -53 -163 -84 -162 -6 0 -3 5 7
11 9 5 17 17 17 25 0 12 -7 14 -32 9 -26 -5 -29 -4 -15 5 20 13 23 50 4 50
-18 0 -41 -45 -32 -60 5 -8 0 -11 -16 -8 -36 5 -37 43 -2 60 25 12 28 19 31
67 2 34 -1 51 -7 47 -6 -4 -14 8 -19 25 -12 47 -30 47 -36 2 -4 -21 -10 -63
-16 -92 -7 -39 -7 -57 1 -62 14 -8 -64 -45 -114 -54 -36 -6 -38 -5 -27 15 6
11 20 26 30 33 28 17 25 37 -4 37 -28 0 -56 -33 -56 -67 0 -13 -5 -23 -10 -23
-17 0 -22 27 -10 50 6 12 9 24 7 27 -10 10 -46 -8 -52 -27 -8 -26 -35 -33 -55
-15 -33 30 -70 9 -38 -23 9 -9 6 -12 -15 -12 -45 0 -31 -19 36 -50 34 -16 54
-29 44 -30 -10 0 -34 -8 -55 -17 l-37 -17 63 -6 64 -5 -22 -27 -21 -28 24 0
c21 0 25 -6 31 -46 9 -72 7 -100 -9 -114 -20 -16 -73 36 -145 143 -30 45 -67
88 -82 95 -19 9 -31 25 -38 51 -5 21 -20 51 -32 67 l-22 29 25 -22 c31 -28 49
-29 49 -4 0 25 -35 68 -72 87 -36 19 -45 12 -30 -20 19 -42 -15 -20 -43 28
-21 36 -24 53 -23 131 1 73 -3 99 -20 139 -26 58 -27 79 -6 137 12 34 14 65 8
136 l-6 92 51 54 c50 53 54 55 93 49 l41 -5 -23 31 c-13 18 -29 32 -36 32 -21
0 4 56 37 84 15 13 52 32 81 41 29 10 78 30 108 46 30 15 93 37 139 49 47 12
96 28 110 35 15 8 41 14 60 15 l34 0 -7 -62z m385 -58 c45 0 89 -20 89 -41 0
-19 46 -56 56 -46 11 10 -7 46 -25 52 -11 3 -21 15 -24 26 -5 17 -3 18 11 8
55 -41 62 -53 61 -93 -1 -23 -3 -33 -6 -23 -2 9 -11 17 -19 17 -10 0 -14 -13
-14 -44 0 -24 4 -46 8 -48 4 -1 2 -14 -5 -28 -12 -24 -13 -24 -13 -3 0 61
-110 129 -172 105 -25 -9 -28 -9 -18 4 19 22 -66 11 -93 -13 -12 -10 -2 7 23
37 74 93 93 111 104 100 5 -5 22 -10 37 -10z m-40 -246 c15 -7 35 -14 44 -14
12 0 15 -6 10 -22 -10 -32 -34 -68 -50 -74 -34 -14 -130 70 -118 104 3 9 17
32 31 50 l24 34 16 -32 c8 -17 28 -38 43 -46z m200 -147 c-18 -37 -19 -43 -5
-58 23 -26 9 -69 -23 -69 -20 0 -24 -4 -18 -17 3 -10 15 -50 26 -89 21 -76 16
-131 -16 -194 -23 -44 -82 -89 -125 -96 -47 -8 -53 -29 -10 -37 19 -4 30 -13
30 -23 0 -11 -5 -14 -17 -9 -10 3 -30 9 -45 12 -39 8 -36 -12 8 -67 34 -42 36
-49 32 -105 -5 -81 -39 -147 -112 -220 -51 -50 -170 -125 -181 -113 -1 2 -12
21 -23 43 -17 34 -19 54 -15 140 6 124 7 129 32 115 14 -7 22 -7 26 0 4 6 15
8 25 5 14 -4 23 2 34 22 13 24 15 25 16 7 0 -17 6 -21 33 -21 42 0 57 13 57
49 0 21 -6 31 -20 35 -11 3 -20 13 -20 22 0 10 -6 26 -14 36 -21 29 0 72 40
80 29 5 134 90 134 108 0 4 -13 7 -29 7 -48 0 -44 15 9 41 27 13 49 27 50 31
0 4 -11 15 -25 26 l-24 19 27 25 c15 14 37 29 50 33 26 8 30 35 4 35 -22 0
-62 27 -62 43 0 9 3 8 8 -1 7 -9 15 -7 35 12 28 26 34 50 16 62 -7 4 2 13 22
21 29 13 31 17 18 25 -13 9 -10 20 25 83 34 60 42 68 44 48 2 -13 -6 -43 -17
-66z"/>
<path d="M6316 11675 c-3 -8 -3 -21 -1 -27 5 -12 -34 -61 -143 -183 -24 -26
-44 -39 -61 -40 -38 0 -32 -19 19 -59 53 -42 64 -44 58 -11 -4 20 12 45 89
132 66 77 99 107 112 105 37 -6 32 19 -11 58 -48 44 -54 46 -62 25z"/>
<path d="M3813 11561 c-24 -28 -29 -41 -21 -49 9 -9 15 -9 25 0 11 9 17 8 27
-3 20 -22 108 -149 103 -149 -3 0 -31 12 -63 26 -78 34 -114 61 -108 79 4 8
-1 17 -9 21 -10 4 -29 -9 -54 -37 -45 -50 -48 -65 -9 -62 18 1 81 -24 177 -72
82 -41 153 -75 159 -75 22 0 6 33 -77 156 -51 75 -89 143 -92 163 -4 19 -11
35 -16 37 -6 1 -24 -15 -42 -35z"/>
<path d="M6453 11543 c-50 -29 -59 -58 -15 -48 21 4 33 1 47 -15 16 -18 17
-22 4 -34 -8 -7 -53 -49 -100 -93 -73 -69 -89 -80 -112 -76 -37 7 -34 -9 10
-63 42 -49 68 -58 61 -20 -5 25 2 33 155 176 46 43 49 44 62 26 12 -16 12 -22
-2 -43 -12 -17 -13 -27 -5 -35 8 -8 22 0 52 29 39 40 53 70 26 60 -17 -7 -125
102 -131 132 -2 13 -6 25 -7 26 -2 2 -22 -8 -45 -22z"/>
<path d="M6681 11307 c-7 -9 -10 -20 -7 -25 3 -6 -46 -69 -109 -141 -98 -111
-132 -161 -111 -161 3 0 77 25 166 55 115 39 169 53 190 48 37 -7 38 3 3 56
-19 30 -30 38 -39 30 -6 -5 -10 -18 -7 -28 4 -15 -10 -24 -83 -50 -47 -17 -89
-30 -91 -28 -2 3 22 34 54 71 48 55 62 66 81 61 33 -8 37 16 10 57 -13 20 -28
43 -33 53 -10 16 -12 16 -24 2z"/>
<path d="M3546 11216 c-33 -57 -33 -70 0 -63 39 7 265 -143 257 -171 -7 -27
18 -41 31 -18 6 10 35 54 64 98 29 43 50 82 48 87 -11 17 -87 64 -93 57 -4 -4
1 -20 10 -35 22 -38 21 -63 -2 -92 l-19 -24 -119 80 c-84 57 -119 86 -121 103
-5 35 -28 26 -56 -22z"/>
<path d="M6850 10991 c0 -28 -254 -139 -281 -123 -30 19 -33 -4 -8 -63 23 -57
49 -73 49 -31 0 19 10 28 55 46 31 13 59 19 63 15 4 -4 -19 -30 -50 -59 -41
-36 -58 -59 -58 -76 0 -40 11 -70 25 -70 8 0 17 10 20 23 4 12 29 45 57 73 49
50 49 51 103 46 50 -4 57 -2 85 26 39 39 39 75 0 152 -29 58 -60 79 -60 41z"/>
<path d="M3390 10918 c-11 -18 -20 -43 -20 -56 0 -33 49 -78 99 -92 50 -13 87
-4 133 35 16 14 38 25 49 25 20 0 59 -33 59 -49 0 -20 -33 -41 -66 -41 -39 0
-48 -26 -11 -34 51 -12 66 -10 86 8 46 42 16 133 -55 162 -54 22 -95 17 -142
-17 -46 -34 -88 -36 -106 -6 -14 23 15 47 56 47 34 0 37 17 6 29 -64 24 -67
24 -88 -11z"/>
<path d="M3309 10670 c-14 -55 -14 -60 1 -60 9 0 21 5 26 10 7 7 54 -1 148
-27 117 -31 139 -41 147 -60 13 -36 23 -28 41 35 18 61 12 81 -19 61 -17 -10
-35 -8 -104 10 -175 47 -187 51 -192 71 -10 39 -32 21 -48 -40z"/>
<path d="M6950 10695 c0 -11 -57 -44 -164 -96 -104 -51 -163 -85 -160 -93 3
-9 58 -16 171 -24 122 -9 170 -16 183 -27 24 -22 54 -20 45 3 -4 9 -9 34 -12
54 -6 39 -27 43 -36 6 -5 -19 -11 -20 -68 -14 -34 3 -82 6 -107 6 l-46 0 94
45 c84 41 94 44 110 30 29 -26 43 -19 36 18 -4 17 -9 49 -13 70 -5 36 -33 54
-33 22z"/>
<path d="M5125 10621 c-3 -6 -16 -41 -29 -78 -13 -37 -35 -99 -50 -138 -16
-45 -26 -91 -26 -129 0 -32 -7 -86 -16 -120 -22 -84 -10 -196 22 -196 10 0 14
12 14 38 0 21 7 63 16 93 9 30 22 84 28 122 l12 67 35 -48 c52 -69 66 -100 79
-172 6 -36 13 -71 16 -79 8 -24 23 1 34 59 15 80 -1 145 -58 227 -67 98 -73
124 -66 254 7 101 4 123 -11 100z"/>
<path d="M3324 10503 c-43 -8 -62 -43 -70 -125 -6 -68 -5 -78 10 -78 9 0 16 5
16 10 0 15 34 12 167 -10 65 -11 121 -20 124 -20 4 0 9 -9 12 -20 7 -27 37
-16 37 14 0 11 3 38 6 59 7 40 -6 49 -35 23 -12 -11 -28 -12 -70 -5 -29 4 -56
10 -58 13 -13 13 13 25 69 31 92 11 106 18 114 60 8 45 3 50 -33 32 -15 -8
-56 -20 -91 -27 -60 -12 -64 -12 -78 8 -12 18 -76 45 -94 41 -3 -1 -15 -4 -26
-6z"/>
<path d="M6869 10354 c-26 -11 -44 -29 -63 -65 -29 -53 -59 -69 -95 -49 -37
19 -25 61 23 79 39 15 27 36 -19 35 -25 -1 -43 -8 -52 -20 -21 -29 -16 -80 11
-111 22 -26 30 -28 94 -28 78 0 101 13 131 74 20 43 41 56 74 47 41 -10 36
-43 -9 -62 -48 -20 -39 -40 17 -35 24 1 46 5 48 7 3 3 5 25 5 50 1 39 -3 50
-25 66 -35 26 -96 32 -140 12z"/>
<path d="M5396 10301 c6 -54 3 -65 -32 -142 -43 -94 -60 -209 -31 -209 9 0 17
14 21 38 6 40 65 143 80 139 14 -4 48 -97 55 -151 7 -59 23 -69 42 -24 14 35
69 108 82 108 10 0 8 -57 -4 -109 -5 -24 -7 -46 -4 -49 11 -11 45 33 61 80 13
41 14 59 4 115 -12 72 -37 131 -49 117 -4 -5 -13 -27 -19 -49 -6 -23 -25 -53
-41 -69 l-29 -28 -16 56 c-20 67 -104 236 -117 236 -6 0 -7 -23 -3 -59z"/>
<path d="M3507 10194 c-12 -12 -8 -24 8 -24 27 0 65 -47 65 -80 0 -35 -3 -36
-82 -43 l-58 -6 0 35 c0 30 4 35 30 41 56 11 30 23 -50 23 -81 0 -109 -15 -50
-26 26 -6 30 -11 30 -40 l0 -34 -59 0 c-50 0 -61 3 -66 19 -10 33 6 71 36 87
39 20 28 34 -27 34 l-44 0 0 -120 c0 -124 6 -139 38 -100 15 17 31 19 147 20
165 2 153 3 160 -20 3 -11 12 -20 19 -20 10 0 12 28 10 121 -2 67 -5 123 -6
124 -9 7 -95 15 -101 9z"/>
<path d="M6637 9948 c-10 -61 -19 -116 -20 -121 -1 -5 20 -16 47 -24 38 -11
51 -12 60 -2 8 8 7 13 -3 17 -8 3 -25 15 -38 28 -18 18 -21 30 -17 56 4 18 10
36 13 40 7 8 119 -7 129 -17 3 -3 1 -18 -4 -33 -7 -19 -17 -28 -37 -30 -46 -6
-30 -19 36 -31 81 -14 87 -14 87 3 0 8 -11 17 -25 20 -20 5 -25 13 -25 37 l0
31 63 -7 c34 -4 64 -9 66 -11 2 -2 0 -23 -5 -46 -8 -36 -13 -43 -42 -50 -19
-5 -32 -14 -29 -21 4 -13 97 -23 97 -10 2 31 30 204 35 213 10 17 -27 11 -40
-6 -10 -15 -23 -14 -150 5 -76 12 -142 24 -146 27 -5 3 -9 14 -9 25 0 10 -6
19 -13 19 -9 0 -19 -36 -30 -112z"/>
<path d="M3293 9859 c-37 -11 -49 -25 -35 -42 14 -17 35 -154 28 -174 -9 -22
11 -33 62 -33 48 0 60 25 17 36 -24 6 -45 47 -31 61 3 3 63 16 133 29 126 22
128 22 149 3 28 -26 48 -25 40 4 -4 12 -9 36 -12 52 -14 77 -14 77 -29 65 -8
-7 -15 -18 -15 -24 0 -10 -147 -42 -275 -60 -5 0 -11 9 -13 21 -2 17 4 26 22
35 14 6 26 17 26 25 0 15 -20 15 -67 2z"/>
<path d="M6577 9679 c-41 -116 -23 -165 81 -216 74 -36 175 -40 219 -7 38 27
66 87 71 151 5 55 -8 70 -32 38 -10 -14 -28 -10 -144 31 -105 37 -132 50 -132
65 0 11 -7 19 -17 19 -13 0 -26 -21 -46 -81z m199 -71 c66 -23 121 -43 122
-44 12 -8 -14 -47 -40 -60 -72 -37 -258 36 -258 101 0 25 18 45 41 45 9 0 70
-19 135 -42z"/>
<path d="M3542 9600 c-43 -20 -72 -63 -72 -110 0 -28 -37 -62 -63 -58 -33 5
-34 41 -1 67 20 16 24 25 16 33 -17 17 -86 -14 -90 -42 -5 -33 16 -76 44 -89
77 -35 172 18 189 106 4 21 14 46 22 56 22 23 70 22 83 -3 8 -15 5 -25 -20
-53 -16 -19 -30 -37 -30 -41 0 -10 37 -7 64 6 30 13 40 38 31 78 -14 66 -90
88 -173 50z"/>
<path d="M6491 9460 c-27 -51 -26 -53 5 -47 19 3 35 -3 56 -22 27 -24 29 -29
17 -54 -14 -31 -12 -30 -61 -16 -27 7 -38 15 -38 29 0 35 -24 21 -53 -31 -20
-35 -25 -55 -18 -62 7 -7 15 -6 24 2 11 9 51 3 183 -28 230 -54 233 -50 65
102 -78 70 -131 125 -133 138 -5 37 -24 32 -47 -11z"/>
<path d="M3570 9353 c-98 -51 -142 -141 -106 -211 43 -84 181 -82 293 4 58 44
79 117 51 179 -28 62 -147 75 -238 28z m191 -33 c46 -25 9 -86 -86 -141 -92
-53 -153 -59 -176 -18 -8 16 -6 26 7 47 24 37 39 48 119 88 73 36 103 41 136
24z"/>
<path d="M6303 9152 c-18 -27 -33 -52 -33 -55 0 -4 13 -6 28 -5 26 2 58 -19
240 -158 2 -1 -1 -12 -8 -23 -9 -17 -15 -19 -30 -11 -24 13 -50 13 -50 0 0
-11 77 -70 92 -70 4 0 8 7 8 15 0 25 103 155 122 155 27 0 22 12 -21 54 -40
40 -57 36 -45 -9 7 -29 -12 -59 -33 -51 -8 3 -59 40 -114 82 -87 67 -98 79
-93 100 11 43 -28 28 -63 -24z"/>
<path d="M3924 9085 c-3 -8 -4 -20 -2 -27 3 -7 -18 -30 -46 -51 l-50 -37 -12
28 c-19 47 -61 54 -123 23 -81 -42 -91 -100 -31 -180 21 -30 41 -58 43 -64 2
-6 11 -8 21 -4 11 5 15 13 11 26 -4 14 18 36 110 105 95 71 119 85 140 80 34
-9 32 6 -11 66 -39 55 -42 57 -50 35z"/>
<path d="M4811 7550 c-7 -38 -9 -84 -6 -102 9 -37 76 -157 88 -158 12 0 -1
110 -23 200 -11 41 -22 87 -25 103 -9 45 -21 31 -34 -43z"/>
<path d="M4305 7257 c-19 -35 -35 -70 -35 -77 0 -9 -3 -10 -14 -1 -19 16 -67
-60 -74 -116 -6 -56 9 -55 39 2 13 25 29 45 35 45 20 0 52 45 84 114 29 66 33
96 11 96 -6 0 -26 -29 -46 -63z"/>
<path d="M4672 7103 c-19 -41 -32 -59 -32 -46 0 71 -46 8 -97 -135 -50 -138
-49 -135 -27 -131 21 4 73 102 99 188 23 76 28 58 9 -33 -16 -78 -15 -94 5
-81 44 27 119 305 83 305 -5 0 -23 -30 -40 -67z"/>
<path d="M4364 6798 c-16 -24 -35 -43 -43 -43 -15 0 -127 -153 -118 -161 11
-11 62 22 84 55 14 21 23 28 23 17 0 -50 71 37 89 110 17 65 1 75 -35 22z"/>
<path d="M1620 10883 c0 -5 27 -35 61 -68 91 -90 209 -229 273 -323 210 -309
231 -568 65 -819 -30 -46 -7 -41 24 5 97 140 133 366 88 544 -41 159 -133 299
-325 496 -127 130 -186 182 -186 165z"/>
<path d="M8425 10748 c-202 -204 -287 -323 -341 -483 -25 -71 -28 -94 -28
-205 1 -141 17 -220 65 -315 29 -58 76 -121 84 -113 2 2 -16 33 -39 70 -65
100 -91 191 -91 313 0 117 23 202 87 329 76 151 180 288 352 464 44 45 74 82
67 82 -8 0 -78 -64 -156 -142z"/>
<path d="M2003 8658 c25 -70 30 -98 31 -183 1 -116 -21 -196 -79 -284 -20 -30
-34 -56 -32 -58 3 -2 23 17 46 43 86 98 124 223 102 341 -11 65 -76 223 -91
223 -4 0 6 -37 23 -82z"/>
<path d="M8200 8709 c-51 -84 -64 -139 -65 -259 0 -107 2 -119 28 -171 29 -56
105 -154 114 -145 3 3 -4 18 -16 34 -39 56 -80 154 -91 224 -15 86 -2 191 35
281 28 69 26 85 -5 36z"/>
<path d="M1248 8152 c-49 -76 -75 -135 -98 -228 -25 -95 -27 -254 -5 -339 51
-199 197 -347 381 -385 79 -17 77 -6 -3 19 -84 25 -176 83 -226 142 -154 180
-167 484 -32 776 18 40 31 73 27 73 -4 0 -24 -26 -44 -58z"/>
<path d="M8935 8140 c58 -115 86 -228 92 -365 8 -189 -30 -312 -129 -420 -59
-64 -112 -98 -218 -137 -74 -28 -74 -28 -26 -22 99 12 193 63 272 146 57 60
89 114 121 205 22 66 26 96 27 193 0 160 -36 282 -126 423 -45 70 -53 57 -13
-23z"/>
<path d="M976 6508 c31 -52 134 -175 196 -234 l75 -72 -61 -28 c-162 -76 -296
-167 -296 -201 0 -11 7 -14 28 -10 15 4 86 11 158 18 314 29 611 -49 762 -201
72 -71 112 -146 112 -208 0 -24 9 -90 21 -145 l20 -102 72 -73 c89 -90 167
-132 251 -135 l59 -2 13 39 c8 21 17 71 21 111 l8 72 73 -33 c70 -32 72 -34
72 -69 0 -20 7 -86 16 -146 13 -90 21 -115 40 -134 13 -13 24 -29 24 -34 0
-19 128 -82 245 -121 390 -131 956 -231 1555 -274 366 -27 429 -28 865 -17
1033 27 1682 103 2146 252 120 38 129 43 193 102 60 56 68 68 80 122 8 33 18
105 21 160 l7 100 56 23 c104 43 99 46 94 -52 -2 -47 -2 -96 2 -110 6 -24 11
-26 59 -26 122 0 204 47 299 170 49 64 58 82 63 130 10 85 32 192 54 257 74
215 494 350 901 289 52 -8 96 -13 98 -11 2 2 -8 20 -23 39 -38 51 -127 115
-234 170 l-92 47 38 28 c53 39 111 104 172 194 l52 77 -30 0 c-16 0 -45 -9
-63 -19 -21 -13 -77 -26 -153 -36 -351 -47 -415 -58 -488 -82 -58 -19 -96 -40
-136 -73 -78 -65 -79 -66 -100 -171 -27 -130 -56 -204 -98 -245 -19 -20 -37
-34 -39 -32 -2 3 1 42 6 89 5 46 10 114 10 151 l0 67 -34 7 c-45 8 -94 -9
-142 -49 -21 -18 -55 -44 -74 -57 -19 -13 -67 -48 -107 -77 -108 -81 -280
-159 -405 -184 -125 -25 -175 -46 -211 -88 -27 -32 -27 -34 -27 -179 0 -81 -3
-157 -6 -168 -5 -18 -16 -22 -62 -27 -32 -4 -77 -13 -102 -22 -83 -30 -531
-88 -880 -115 -575 -44 -1354 -42 -1955 5 -360 28 -784 81 -860 108 -22 8 -58
17 -80 21 -22 4 -62 17 -88 28 l-48 21 3 156 c3 138 1 160 -15 185 -24 36
-118 80 -230 106 -89 21 -274 108 -385 182 -24 15 -47 28 -52 28 -4 0 -47 29
-95 65 -89 66 -142 89 -198 83 l-32 -3 0 -147 c0 -135 -1 -145 -17 -137 -34
18 -68 96 -96 222 -24 105 -34 133 -58 159 -82 87 -190 125 -481 168 -240 36
-311 51 -397 85 -69 28 -101 32 -90 13z m269 -112 c50 -8 133 -20 185 -26 213
-26 350 -65 437 -123 49 -33 56 -47 67 -142 2 -16 7 -40 11 -52 5 -15 3 -23
-4 -23 -16 0 -13 -21 7 -43 10 -12 11 -17 3 -12 -12 7 -13 -1 -8 -48 4 -32 3
-58 -2 -62 -6 -3 -7 -28 -4 -58 l6 -52 -61 57 c-158 145 -387 218 -695 221
-135 2 -155 4 -140 16 30 22 133 67 226 97 48 15 87 31 87 34 -1 3 -33 28 -72
55 -68 48 -148 127 -170 168 -9 17 -7 19 13 14 13 -3 65 -13 114 -21z m7906
-44 c-38 -49 -105 -111 -171 -158 -28 -20 -48 -40 -43 -44 4 -3 42 -22 83 -40
78 -35 188 -95 205 -111 5 -5 -35 -9 -105 -9 -315 0 -549 -70 -687 -204 -34
-34 -63 -59 -63 -55 0 3 7 26 15 49 20 56 19 70 -5 70 -11 0 -20 -5 -20 -12 0
-6 -3 -9 -6 -5 -3 3 4 19 16 35 13 17 19 35 15 42 -6 9 -10 9 -16 -1 -7 -11
-9 -10 -9 4 0 10 8 30 17 44 17 26 17 26 -5 21 -27 -8 -29 3 -2 20 24 14 27
42 4 42 -14 0 -14 2 0 22 20 29 21 52 1 44 -19 -7 -19 -3 5 43 24 49 96 95
203 132 103 35 197 54 418 83 95 13 176 24 177 25 2 1 -10 -16 -27 -37z
m-6814 -346 c153 -101 387 -222 503 -260 206 -67 240 -85 240 -128 0 -34 -84
-23 -227 28 -146 52 -232 61 -290 31 -40 -21 -41 -30 -12 -197 13 -75 17 -130
12 -142 -7 -17 -13 -16 -85 19 l-78 36 0 141 c1 78 5 161 10 186 15 73 -15
120 -124 194 -100 69 -126 100 -133 157 -6 39 -5 40 20 34 14 -4 88 -48 164
-99z m5826 37 c-7 -49 -27 -70 -130 -139 -46 -31 -90 -69 -98 -84 -26 -50 -38
-168 -32 -317 4 -130 0 -162 -18 -132 -4 6 -13 8 -20 5 -10 -3 -11 2 -5 23 11
40 1 84 -17 77 -8 -3 -21 -6 -29 -6 -17 0 -19 -26 -1 -33 7 -3 5 -6 -5 -6 -21
-1 -24 -27 -5 -34 7 -3 4 -6 -7 -6 -13 -1 -17 -6 -13 -21 3 -11 1 -20 -4 -20
-5 0 -9 -7 -9 -16 0 -12 7 -14 33 -9 26 5 29 4 14 -5 -10 -7 -31 -15 -46 -20
l-27 -7 8 56 c4 31 10 106 14 166 l7 110 -29 34 c-27 33 -29 33 -90 28 -45 -3
-89 -17 -165 -52 -89 -41 -113 -48 -167 -48 -81 -1 -94 12 -54 52 32 33 55 41
46 16 -4 -10 0 -15 12 -16 11 0 14 -3 7 -6 -7 -2 -13 -12 -13 -20 0 -10 5 -13
18 -8 9 4 43 12 75 18 57 11 80 36 35 38 -18 0 -15 3 12 13 30 11 32 14 17 22
-15 9 -5 15 55 39 198 76 391 185 494 278 44 40 90 63 131 66 8 1 10 -11 6
-36z m-5870 -186 c31 -21 57 -65 57 -97 0 -17 -6 -20 -37 -20 -48 0 -107 29
-111 55 -2 11 -13 27 -25 36 -21 17 -21 17 6 12 33 -6 35 9 5 30 l-23 16 23
-6 c12 -3 22 -1 22 5 0 5 -10 17 -22 26 -29 21 67 -31 105 -57z m5815 22 c-34
-25 -36 -39 -5 -39 20 -1 21 -2 5 -14 -23 -17 -23 -26 -1 -26 13 0 14 -3 5
-12 -7 -7 -12 -20 -12 -29 0 -12 -18 -23 -62 -38 -71 -24 -83 -18 -74 31 7 39
61 96 121 126 51 27 57 27 23 1z m-5933 -139 c21 -13 73 -34 115 -46 71 -21
74 -23 48 -33 -32 -12 -38 -36 -7 -28 12 3 19 1 16 -6 -2 -6 -14 -14 -27 -17
-37 -9 -35 -28 2 -33 33 -4 32 -4 -5 -5 -43 -2 -48 -25 -6 -30 41 -6 46 -22 6
-22 -26 0 -37 -4 -37 -15 0 -10 10 -15 33 -15 24 0 28 -3 17 -10 -8 -5 -23 -7
-32 -4 -12 3 -18 0 -18 -10 0 -11 9 -16 31 -16 17 0 28 -4 24 -10 -3 -5 -15
-10 -26 -10 -27 0 -19 -24 9 -28 12 -2 20 -8 17 -13 -4 -5 -18 -6 -32 -3 -19
5 -24 3 -21 -7 3 -8 15 -16 29 -17 13 -2 29 -8 34 -14 7 -7 0 -8 -22 -3 -26 5
-33 3 -33 -9 0 -9 8 -16 18 -16 16 -1 16 -1 0 -14 -24 -18 -23 -26 5 -26 12 0
29 -5 37 -10 12 -8 9 -10 -12 -10 -29 0 -38 -14 -15 -23 6 -3 0 -6 -15 -6 -18
-1 -28 -6 -28 -16 0 -8 5 -15 10 -15 6 0 10 -9 10 -20 0 -19 -2 -20 -36 -5
-20 8 -78 45 -130 82 -101 72 -104 77 -123 187 -12 65 -15 354 -5 405 l7 32
61 -59 c33 -32 79 -69 101 -82z m6129 -110 c1 -144 -2 -174 -21 -235 -27 -85
-72 -159 -112 -183 -82 -48 -100 -57 -149 -74 -29 -10 -58 -15 -64 -11 -7 4 2
11 23 18 43 15 40 28 -8 36 -29 5 -32 7 -11 8 57 3 76 24 36 41 -22 8 -21 9 6
9 24 1 27 3 16 16 -7 8 -23 15 -36 15 -39 0 -37 19 3 22 46 4 46 21 1 29 l-33
6 38 2 c26 1 37 6 37 16 0 10 -11 15 -37 16 -21 1 -29 3 -18 6 11 2 30 6 43 9
12 2 22 9 22 14 0 6 -10 10 -22 11 -13 0 -32 4 -43 9 -15 6 -10 8 20 7 30 -2
40 2 43 16 3 13 -3 17 -29 17 -37 0 -29 16 10 22 42 5 37 28 -6 30 -37 1 -37
1 -5 5 17 2 32 8 32 13 0 10 -25 20 -51 20 -10 0 -19 5 -19 10 0 6 16 10 35
10 24 0 35 5 35 15 0 8 -8 15 -17 16 -11 0 -13 3 -5 6 24 10 12 32 -20 35 -28
3 -30 5 -13 12 148 58 239 113 281 169 l19 25 9 -22 c5 -11 10 -95 10 -186z
m-5488 -30 c79 -34 116 -44 184 -49 69 -5 79 -8 53 -14 -36 -9 -47 -37 -34
-84 5 -18 5 -37 -1 -47 -5 -9 -7 -24 -4 -32 8 -20 0 -18 -105 20 -136 49 -200
79 -268 125 -57 39 -61 44 -61 81 0 45 10 51 86 45 32 -2 90 -20 150 -45z
m4892 7 c2 -17 -8 -47 -27 -81 -28 -49 -37 -56 -118 -93 -49 -22 -119 -50
-158 -63 -38 -12 -76 -24 -84 -26 -10 -3 -12 3 -8 24 5 26 3 30 -31 39 l-37
10 38 2 c43 1 47 21 6 32 -24 7 -24 7 3 8 17 1 29 8 33 21 9 29 -2 40 -42 40
-56 0 -35 8 48 18 46 6 104 22 150 43 91 40 155 59 194 56 25 -2 31 -7 33 -30z
m-30 -202 c-19 -16 -38 -42 -42 -57 -5 -24 -3 -28 16 -28 19 0 17 -4 -16 -26
-28 -19 -35 -29 -27 -37 8 -8 19 -8 41 0 17 6 30 7 30 2 0 -8 -49 -43 -75 -53
-6 -2 -5 -9 3 -17 11 -12 18 -11 44 4 17 10 33 16 35 13 3 -3 -13 -14 -36 -26
-42 -21 -54 -40 -25 -40 8 0 24 5 36 11 11 6 22 8 25 6 3 -3 -18 -19 -46 -35
-28 -16 -48 -32 -44 -35 10 -10 52 -8 74 3 13 8 19 7 19 0 0 -6 -22 -20 -50
-32 -81 -34 -58 -64 24 -32 34 13 7 -15 -35 -36 -21 -11 -39 -27 -39 -35 0
-18 23 -19 51 -4 19 9 18 8 -3 -25 -13 -20 -29 -36 -36 -36 -7 0 -15 -7 -18
-15 -7 -16 -190 -79 -349 -119 -397 -100 -910 -159 -1620 -186 -1190 -45
-2148 65 -2796 321 -105 42 -126 54 -122 69 3 10 -5 26 -18 39 l-23 21 22 0
c28 0 28 14 0 40 -18 17 -19 20 -5 20 27 0 20 27 -10 38 l-28 10 28 1 c33 1
32 20 -1 37 -36 18 -38 25 -4 18 34 -7 42 5 18 25 -8 6 -11 22 -8 37 3 16 -1
30 -9 36 -10 7 -8 8 9 3 29 -8 29 11 0 42 -17 18 -18 23 -6 23 19 0 22 48 4
69 -9 12 -8 13 9 6 159 -66 510 -165 760 -214 1200 -236 2897 -184 4018 125
108 30 139 43 190 80 68 51 95 42 35 -11z"/>
<path d="M1610 6291 c0 -5 -3 -16 -6 -24 -4 -11 4 -17 25 -22 26 -5 31 -11 31
-36 0 -30 -8 -33 -47 -23 -14 4 -23 15 -25 32 -2 15 -10 28 -19 30 -13 2 -17
-11 -23 -69 -5 -54 -3 -75 6 -81 20 -12 25 -10 31 13 4 16 12 20 39 17 30 -3
33 -6 36 -40 3 -37 3 -38 -29 -31 -29 6 -31 5 -24 -18 9 -31 12 -33 63 -48 23
-6 42 -16 42 -21 0 -6 9 -10 20 -10 13 0 20 7 20 20 0 11 -9 28 -20 37 -20 18
-28 73 -11 73 5 0 21 -4 35 -10 20 -7 26 -17 26 -38 0 -21 7 -32 26 -40 l25
-12 -7 82 c-3 46 -8 86 -11 91 -9 15 -33 6 -33 -13 0 -23 -26 -26 -53 -6 -13
10 -17 24 -15 48 2 28 7 33 26 30 17 -3 22 2 22 21 0 21 -7 25 -57 36 -32 7
-66 15 -75 17 -10 3 -18 1 -18 -5z"/>
<path d="M8625 6261 c-68 -16 -70 -17 -73 -50 -3 -32 -2 -33 22 -27 24 6 26 4
26 -29 0 -27 -4 -35 -18 -35 -10 0 -23 -5 -30 -12 -9 -9 -13 -7 -18 5 -3 9
-15 17 -25 17 -17 0 -19 -8 -19 -85 0 -83 0 -84 23 -76 15 6 23 18 25 38 3 29
41 60 56 46 20 -20 -5 -83 -33 -83 -6 0 -11 -13 -11 -30 0 -35 0 -35 48 -11
20 10 49 21 65 25 20 5 27 12 27 31 0 18 -5 25 -20 25 -17 0 -20 7 -20 40 0
38 2 40 30 40 25 0 30 -4 30 -25 0 -20 5 -25 26 -25 l27 0 -6 86 c-3 48 -9 89
-12 92 -11 12 -40 -15 -43 -40 -2 -18 -10 -27 -28 -31 -22 -4 -24 -1 -24 34 0
33 3 39 20 39 22 0 34 19 28 43 -2 12 -14 11 -73 -2z"/>
<path d="M2420 5906 c0 -8 6 -17 13 -19 10 -4 10 -6 0 -6 -23 -2 -14 -30 15
-45 19 -11 22 -15 10 -16 -19 0 -24 -15 -8 -25 5 -3 6 -13 3 -21 -3 -9 0 -20
8 -25 10 -6 10 -9 2 -9 -19 0 -16 -21 5 -36 24 -19 35 -17 29 5 -3 12 1 22 11
26 14 5 14 7 2 15 -12 8 -8 12 18 22 31 12 45 38 20 38 -8 1 -6 6 5 14 16 12
11 17 -51 55 -75 45 -82 47 -82 27z"/>
<path d="M2890 5230 c0 -5 4 -10 9 -10 5 0 11 -58 13 -129 3 -121 5 -131 27
-155 28 -29 91 -50 122 -41 31 10 39 46 39 165 0 93 3 110 18 119 19 11 15 13
-40 25 -29 7 -39 -8 -13 -18 12 -4 15 -28 15 -124 0 -121 -6 -142 -41 -142
-38 0 -49 38 -49 162 0 72 4 118 10 118 6 0 10 4 10 9 0 9 -75 31 -104 31 -9
0 -16 -4 -16 -10z"/>
<path d="M3140 5171 c0 -6 5 -11 10 -11 6 0 10 -52 10 -135 0 -113 -2 -135
-15 -135 -30 0 -14 -18 25 -28 41 -10 51 -4 25 18 -12 10 -15 37 -15 129 l0
116 66 -150 c60 -138 76 -164 97 -165 4 0 7 68 7 150 0 93 4 150 10 150 23 0
8 19 -21 25 -37 8 -49 0 -25 -18 14 -10 16 -25 14 -82 l-3 -70 -39 93 c-22 51
-46 97 -55 102 -30 15 -91 23 -91 11z"/>
<path d="M7177 5153 c-2 -5 -21 -73 -42 -153 -21 -80 -45 -153 -53 -163 -19
-22 -15 -26 26 -20 29 5 47 23 22 23 -12 0 -13 40 -2 57 4 6 19 14 34 18 23 6
27 3 33 -24 3 -17 3 -36 -1 -42 -5 -9 7 -10 47 -5 63 8 66 10 48 29 -8 7 -30
75 -49 150 -31 123 -48 157 -63 130z"/>
<path d="M3393 5114 c15 -5 17 -21 17 -145 0 -117 -2 -139 -15 -139 -8 0 -15
-4 -15 -9 0 -12 108 -26 118 -16 4 4 1 10 -5 12 -10 3 -13 40 -13 138 0 98 3
135 13 138 25 9 -5 20 -61 23 -31 2 -49 1 -39 -2z"/>
<path d="M6929 5097 c-65 -43 -102 -174 -68 -240 34 -66 71 -79 149 -55 38 12
40 15 40 55 0 53 -13 55 -37 6 -21 -42 -43 -59 -67 -50 -14 5 -16 25 -16 127
0 108 2 122 21 141 26 26 40 21 59 -19 21 -43 30 -40 30 11 l0 44 -39 1 c-25
1 -50 -6 -72 -21z"/>
<path d="M3535 5073 c7 -16 28 -90 46 -165 44 -184 53 -184 104 2 25 92 43
140 51 140 29 0 12 19 -21 26 -41 7 -56 -1 -32 -19 15 -11 15 -17 0 -79 -9
-38 -20 -68 -23 -68 -10 0 -41 145 -35 162 6 16 -29 28 -80 28 -22 0 -23 -2
-10 -27z"/>
<path d="M6803 5083 c-35 -4 -43 -17 -18 -27 12 -4 15 -27 15 -121 0 -102 -2
-117 -20 -135 -24 -24 -46 -26 -54 -4 -10 27 -7 254 4 254 6 0 10 5 10 11 0 8
-18 9 -57 4 -62 -7 -74 -12 -56 -23 7 -4 12 -54 14 -128 3 -103 7 -125 23
-143 27 -30 86 -28 123 3 28 24 28 26 31 156 3 102 7 132 18 137 14 5 20 24 7
21 -5 0 -23 -3 -40 -5z"/>
<path d="M3765 4915 c0 -148 1 -156 20 -160 40 -9 139 -25 152 -25 9 0 13 15
13 50 0 28 -4 50 -10 50 -5 0 -10 -7 -10 -15 0 -22 -37 -55 -60 -55 -18 0 -20
7 -20 65 0 36 4 65 8 65 14 0 32 -23 32 -42 0 -10 5 -18 10 -18 6 0 10 28 10
65 0 67 -8 81 -25 43 -21 -46 -35 -32 -35 36 0 36 3 66 8 66 17 0 54 -33 62
-56 15 -39 31 -28 28 18 l-3 42 -75 12 c-41 7 -82 13 -90 13 -13 1 -15 -23
-15 -154z"/>
<path d="M6516 5033 c-3 -10 -21 -76 -41 -148 -20 -71 -40 -134 -46 -139 -22
-23 6 -35 45 -20 15 6 15 8 2 18 -23 17 -9 63 21 71 30 7 38 1 47 -37 4 -17 2
-28 -7 -31 -6 -2 -9 -7 -6 -11 9 -9 119 5 119 15 0 5 -6 9 -13 9 -8 0 -25 51
-48 142 -26 106 -39 144 -51 146 -9 2 -19 -5 -22 -15z"/>
<path d="M3970 5031 c0 -6 5 -11 10 -11 16 0 13 -280 -2 -281 -7 0 -4 -4 7 -9
28 -12 105 -12 105 0 0 6 -4 10 -10 10 -6 0 -10 28 -10 65 0 48 3 65 14 65 14
0 26 -41 26 -89 0 -43 26 -71 66 -71 24 0 34 4 34 16 0 8 -4 13 -9 10 -12 -8
-21 18 -21 60 0 23 -8 43 -24 58 l-23 24 23 11 c44 20 44 97 0 126 -29 19
-186 33 -186 16z"/>
<path d="M6302 5014 c-108 -46 -127 -263 -27 -311 28 -13 35 -13 68 1 21 8 44
13 52 10 12 -5 15 4 15 45 0 61 -14 66 -36 12 -17 -42 -54 -67 -73 -48 -7 7
-11 55 -11 129 0 105 2 120 20 138 26 26 53 14 68 -30 15 -43 22 -37 22 18 l0
48 -35 0 c-20 0 -48 -5 -63 -12z"/>
<path d="M4241 4994 c-24 -31 -28 -100 -8 -128 7 -10 35 -30 62 -44 45 -25 50
-30 50 -62 0 -31 -3 -35 -28 -38 -36 -4 -54 11 -69 59 -16 56 -28 48 -28 -18
l0 -58 64 -3 c83 -3 107 14 113 85 7 65 -6 87 -67 118 -63 32 -78 57 -50 85
11 11 26 18 33 14 30 -17 47 -39 47 -61 0 -12 5 -23 10 -23 6 0 10 22 10 48
l0 48 -59 2 c-54 2 -61 0 -80 -24z"/>
<path d="M4408 4994 c9 -4 12 -43 12 -144 0 -102 -3 -140 -12 -143 -30 -10 5
-16 135 -23 192 -10 217 7 217 148 0 78 -19 126 -59 148 -11 5 -85 13 -163 15
-79 3 -137 3 -130 -1z m260 -37 c13 -10 18 -210 6 -241 -3 -9 -17 -16 -30 -16
l-24 0 0 140 c0 128 1 139 18 133 9 -3 23 -10 30 -16z"/>
<path d="M4841 4923 c-11 -38 -29 -102 -41 -143 -12 -41 -26 -79 -31 -84 -16
-18 -9 -26 21 -26 29 0 41 15 18 22 -7 3 -9 14 -4 31 5 22 12 27 36 27 25 0
31 -5 38 -32 5 -18 5 -34 0 -36 -25 -11 -1 -22 47 -22 30 0 55 5 55 10 0 6 -4
10 -8 10 -5 0 -23 62 -41 138 -42 179 -40 172 -56 172 -9 0 -22 -26 -34 -67z"/>
<path d="M5933 4983 c-29 -4 -48 -23 -23 -23 16 0 13 -277 -2 -284 -7 -3 30
-4 82 -1 52 4 96 8 98 9 2 2 2 26 0 52 l-3 49 -17 -38 c-14 -31 -48 -57 -74
-57 -2 0 -4 63 -4 140 0 118 2 140 15 140 8 0 15 5 15 10 0 10 -24 11 -87 3z"/>
<path d="M5023 4973 c15 -4 17 -20 17 -144 0 -117 -2 -139 -15 -139 -8 0 -15
-4 -15 -10 0 -14 153 -13 184 1 37 17 56 67 56 144 0 123 -34 156 -160 154
-47 -1 -77 -3 -67 -6z m135 -25 c8 -8 12 -50 12 -124 0 -105 -1 -114 -22 -128
-12 -9 -26 -16 -30 -16 -5 0 -8 63 -8 140 0 128 2 140 18 140 10 0 23 -5 30
-12z"/>
<path d="M5733 4973 c-24 -2 -43 -8 -43 -14 0 -5 5 -9 10 -9 16 0 13 -277 -2
-283 -7 -3 25 -6 72 -6 47 0 91 3 98 8 9 5 12 25 10 57 l-3 49 -17 -37 c-15
-34 -43 -58 -67 -58 -12 0 -15 70 -5 108 8 28 28 24 32 -6 7 -48 22 -18 22 43
0 37 -4 65 -10 65 -5 0 -10 -8 -10 -18 0 -19 -18 -42 -32 -42 -4 0 -8 29 -8
65 0 36 4 65 9 65 28 0 61 -22 67 -45 10 -40 24 -29 24 20 l0 45 -52 -2 c-29
-1 -72 -3 -95 -5z"/>
<path d="M5428 4963 c15 -6 18 -283 2 -283 -5 0 -10 -4 -10 -10 0 -18 162 -12
189 6 73 52 67 243 -9 281 -14 7 -60 12 -105 12 -44 0 -74 -3 -67 -6z m142
-32 c5 -11 10 -64 10 -118 0 -101 -7 -124 -42 -136 -17 -6 -18 5 -18 133 0
132 1 140 20 140 10 0 24 -9 30 -19z"/>
<path d="M4730 5590 c-19 -11 -45 -25 -57 -32 -37 -18 -29 -41 12 -36 27 3 34
1 30 -10 -3 -7 -5 -47 -5 -88 0 -70 -1 -74 -25 -80 -14 -3 -25 -12 -25 -20 0
-11 21 -14 95 -14 78 0 95 3 95 15 0 9 -9 15 -25 15 l-25 0 0 135 c0 152 -2
154 -70 115z"/>
<path d="M4933 5586 c-45 -20 -50 -81 -12 -122 l21 -22 -21 -7 c-18 -5 -21
-14 -21 -55 0 -45 3 -51 32 -66 37 -19 109 -14 157 11 27 14 31 21 31 59 0 30
-6 48 -20 61 l-20 18 20 22 c23 25 26 63 6 90 -18 25 -127 32 -173 11z"/>
<path d="M5190 5580 c-20 -20 -37 -67 -27 -77 4 -3 20 6 37 21 35 29 43 31 71
16 41 -23 21 -72 -62 -151 -33 -31 -59 -61 -59 -67 0 -9 35 -12 115 -12 l115
0 0 41 c0 40 -1 41 -27 34 -16 -3 -45 -9 -66 -12 l-39 -5 55 53 c60 58 76 96
58 135 -13 30 -48 44 -107 44 -30 0 -50 -6 -64 -20z"/>
<path d="M5424 5558 c8 -51 9 -52 34 -39 12 6 43 11 71 11 l51 0 -61 -115 -61
-115 35 0 c34 0 36 3 75 83 51 105 92 197 92 208 0 5 -55 9 -121 9 l-122 0 7
-42z"/>
<path d="M7632 3569 c-13 -5 -64 -16 -113 -25 -73 -14 -89 -20 -89 -35 0 -13
14 -22 54 -33 104 -31 101 -21 104 -276 3 -212 3 -222 -15 -215 -83 35 -104
39 -208 39 -127 0 -186 -18 -270 -82 -83 -63 -124 -139 -145 -267 -28 -171 62
-352 208 -418 90 -41 230 -24 415 48 14 6 17 1 17 -34 0 -38 2 -41 28 -41 15
0 75 10 135 21 100 20 107 23 107 45 0 22 -4 24 -48 24 -84 0 -80 -19 -86 365
-3 187 -6 465 -6 618 l0 277 -32 -1 c-18 0 -43 -4 -56 -10z m-137 -636 c87
-56 89 -63 93 -329 l4 -231 -54 -23 c-42 -19 -71 -24 -143 -25 -82 0 -95 3
-144 30 -109 60 -157 163 -149 320 6 101 26 159 77 217 52 59 103 80 191 76
65 -3 82 -7 125 -35z"/>
<path d="M9390 3559 c-41 -10 -92 -21 -112 -24 -61 -9 -51 -38 22 -64 91 -33
90 -31 90 -277 l0 -212 -52 20 c-68 26 -199 34 -269 18 -213 -50 -332 -216
-316 -442 6 -88 42 -179 95 -239 39 -45 133 -95 192 -104 58 -8 166 9 255 41
114 41 105 42 105 -5 0 -50 2 -50 152 -21 57 11 104 20 106 20 1 0 2 11 2 25
0 23 -3 25 -49 25 -87 0 -81 -49 -81 646 l0 614 -32 -1 c-18 -1 -67 -10 -108
-20z m-95 -624 c91 -57 90 -52 90 -328 l0 -242 -65 -23 c-90 -31 -198 -27
-263 11 -106 62 -153 156 -151 302 2 147 57 249 159 297 63 29 168 22 230 -17z"/>
<path d="M3045 3515 c-31 -30 -33 -82 -4 -119 17 -21 29 -26 65 -26 57 0 94
33 94 83 0 77 -101 117 -155 62z"/>
<path d="M6593 3520 c-12 -10 -24 -29 -28 -40 -9 -28 12 -88 35 -100 65 -35
159 19 146 83 -13 68 -105 103 -153 57z"/>
<path d="M1395 3510 c-9 -15 7 -40 24 -40 34 0 109 -31 131 -55 18 -19 23 -41
31 -127 16 -192 22 -598 10 -683 -29 -206 -146 -299 -381 -300 -162 0 -276 49
-320 139 -34 71 -39 149 -40 572 0 466 -8 436 114 442 72 4 76 5 76 28 l0 24
-270 0 -270 0 0 -24 c0 -30 16 -36 95 -36 40 0 67 -5 72 -12 4 -7 11 -215 14
-463 4 -308 9 -462 18 -487 32 -99 136 -194 256 -233 86 -28 333 -29 418 -1
85 28 157 75 198 130 79 105 93 214 84 672 -5 236 -4 347 3 361 10 18 41 30
125 48 20 4 27 11 27 28 l0 22 -205 1 c-113 1 -208 -2 -210 -6z"/>
<path d="M3092 3074 c-36 -36 -69 -58 -103 -69 -63 -21 -65 -50 -5 -70 71 -25
71 -24 74 -238 4 -195 -3 -322 -17 -346 -5 -7 -42 -21 -82 -30 -63 -14 -74
-20 -77 -39 l-3 -22 183 1 c101 0 202 -3 226 -7 38 -6 42 -5 42 14 0 15 -14
25 -67 43 l-68 24 -3 398 -2 397 -23 -2 c-12 -1 -46 -25 -75 -54z"/>
<path d="M6640 3076 c-37 -35 -74 -60 -108 -72 -65 -23 -70 -48 -12 -65 82
-25 80 -17 80 -309 0 -301 4 -288 -98 -310 -62 -13 -89 -30 -77 -49 4 -7 76
-11 193 -12 103 0 203 -2 222 -2 25 -2 35 3 38 15 2 13 -10 21 -49 32 -29 9
-63 23 -76 31 l-23 15 0 390 c0 448 5 429 -90 336z"/>
<path d="M5284 3053 c-31 -45 -54 -65 -108 -94 -62 -34 -95 -63 -84 -75 3 -2
29 -8 59 -14 86 -17 84 -8 88 -274 2 -154 -1 -240 -8 -254 -8 -14 -29 -23 -78
-32 -37 -7 -71 -18 -75 -24 -23 -35 -13 -36 260 -30 147 4 271 10 275 14 5 4
1 14 -7 23 -11 10 -46 17 -111 22 -52 4 -99 12 -104 19 -5 6 -11 108 -13 226
l-3 215 35 59 c52 87 63 92 147 66 79 -24 111 -18 139 25 35 53 -19 145 -84
145 -66 0 -162 -69 -219 -156 l-18 -28 -7 44 c-3 25 -7 75 -7 113 -1 58 -3 67
-19 67 -11 0 -34 -23 -58 -57z"/>
<path d="M2106 3044 c-32 -51 -89 -97 -142 -114 -49 -16 -44 -51 8 -63 72 -17
73 -21 73 -282 0 -174 -3 -236 -13 -247 -7 -9 -33 -19 -59 -23 -63 -9 -73 -14
-73 -36 0 -18 11 -19 221 -19 199 0 220 2 217 16 -4 21 -18 29 -93 51 l-60 18
-8 250 -8 250 40 36 c132 118 303 115 369 -6 23 -41 31 -500 10 -528 -8 -10
-36 -21 -72 -27 -60 -10 -78 -22 -69 -47 4 -10 49 -13 214 -13 201 0 209 1
209 20 0 23 -21 35 -77 45 -24 4 -46 12 -50 18 -5 7 -10 140 -13 297 -6 318
-5 316 -78 382 -52 47 -130 65 -211 49 -56 -11 -168 -61 -228 -101 l-33 -22 0
71 c0 67 -1 71 -22 71 -16 0 -32 -14 -52 -46z"/>
<path d="M5967 3056 c-98 -36 -149 -97 -155 -186 -9 -118 40 -178 203 -249
133 -59 178 -90 205 -146 27 -55 22 -105 -12 -142 -57 -62 -133 -70 -215 -23
-57 33 -81 62 -119 144 -19 42 -31 56 -46 56 -20 0 -21 -4 -14 -82 13 -155 12
-155 65 -173 62 -23 215 -31 280 -15 151 36 227 192 161 333 -31 65 -85 108
-199 158 -53 23 -111 52 -128 63 -123 79 -40 254 101 215 48 -13 117 -76 141
-129 14 -31 24 -40 43 -40 25 0 25 1 19 68 -4 37 -7 79 -7 93 0 22 -8 30 -42
44 -58 24 -229 31 -281 11z"/>
<path d="M4546 3045 c-51 -18 -137 -77 -163 -113 -98 -133 -128 -327 -73 -475
30 -79 103 -156 182 -193 55 -25 75 -28 159 -28 93 -1 99 1 181 41 101 50 173
120 162 156 -3 12 -8 24 -10 26 -2 2 -27 -15 -57 -37 -95 -74 -170 -93 -269
-67 -113 29 -176 90 -217 213 -22 65 -28 176 -10 187 10 7 127 10 417 14 l132
1 0 38 c0 83 -79 190 -170 231 -54 25 -202 28 -264 6z m200 -54 c47 -21 80
-59 89 -103 12 -51 -2 -56 -203 -69 -101 -6 -185 -9 -188 -7 -7 8 15 59 43
101 58 85 170 118 259 78z"/>
<path d="M8153 3031 c-34 -16 -80 -49 -103 -72 -51 -53 -113 -161 -108 -191 4
-33 45 -44 90 -25 34 14 39 22 58 88 12 40 28 82 36 94 23 35 87 65 137 65 88
0 127 -64 127 -211 l0 -59 -42 -17 c-124 -49 -223 -108 -283 -167 -95 -95
-125 -178 -91 -245 19 -36 55 -51 124 -51 73 1 141 25 218 77 l62 42 17 -45
c21 -54 54 -74 127 -74 62 0 86 14 129 73 29 40 39 87 18 87 -6 0 -27 -13 -46
-30 -38 -34 -50 -36 -81 -14 -22 15 -22 18 -22 287 0 308 -5 329 -76 383 -34
27 -45 29 -133 32 -89 3 -100 1 -158 -27z m235 -487 l-5 -115 -34 -29 c-43
-37 -126 -80 -155 -80 -37 0 -84 47 -84 84 0 41 48 115 102 157 40 33 156 98
172 99 5 0 7 -51 4 -116z"/>
<path d="M3302 3018 c2 -16 18 -25 66 -40 l64 -19 33 -73 c18 -40 69 -158 113
-262 44 -104 103 -238 131 -297 69 -147 74 -146 153 38 33 77 100 239 149 359
48 121 93 224 98 229 6 6 43 16 83 22 62 9 73 14 73 30 0 19 -9 20 -203 23
l-203 2 3 -22 c2 -19 13 -25 63 -36 80 -17 89 -26 81 -79 -6 -49 -90 -278
-146 -398 l-37 -80 -18 35 c-43 79 -212 496 -205 503 4 5 40 13 79 19 70 10
97 27 75 47 -5 5 -109 11 -232 14 -222 6 -223 6 -220 -15z"/>
<path d="M2095 1841 c-11 -5 -51 -14 -90 -20 -113 -20 -115 -20 -115 -39 0
-13 15 -23 54 -35 105 -33 101 -23 104 -276 l3 -221 -53 21 c-68 27 -205 36
-279 19 -171 -40 -282 -161 -309 -336 -28 -181 60 -361 207 -425 70 -30 219
-23 323 15 119 44 110 44 110 -3 0 -50 -1 -50 157 -19 105 21 113 24 113 45 0
21 -5 23 -48 23 -88 0 -86 -5 -87 256 -1 126 -2 403 -3 617 l-2 387 -32 -1
c-18 0 -42 -4 -53 -8z m-217 -604 c63 -17 121 -56 147 -99 18 -30 20 -56 23
-260 l4 -226 -24 -16 c-40 -26 -148 -49 -209 -43 -99 9 -190 74 -233 166 -18
38 -21 65 -21 161 0 99 3 122 23 166 31 68 88 122 154 145 64 22 70 23 136 6z"/>
<path d="M3308 1796 c-66 -21 -98 -36 -98 -46 0 -9 27 -28 63 -45 l62 -30 3
-512 c1 -306 -2 -521 -7 -536 -8 -21 -20 -27 -68 -37 -68 -13 -88 -22 -88 -41
0 -12 40 -14 225 -14 185 0 225 2 225 14 0 19 -21 29 -77 36 -84 11 -78 -38
-78 641 l0 604 -32 -1 c-18 -1 -77 -15 -130 -33z"/>
<path d="M4732 1799 c-311 -55 -550 -371 -528 -699 18 -277 148 -454 404 -551
l87 -34 210 0 c177 0 221 3 283 19 81 22 70 4 114 177 33 127 11 155 -47 58
-38 -64 -113 -135 -168 -159 -199 -88 -419 -55 -543 83 -91 102 -136 243 -138
437 -1 141 20 243 74 356 67 139 197 240 342 266 73 13 176 -1 246 -34 58 -27
131 -101 156 -156 15 -33 24 -42 44 -42 l25 0 -7 103 c-7 119 -5 116 -121 154
-69 22 -101 26 -230 29 -82 1 -174 -1 -203 -7z"/>
<path d="M2730 1331 c-153 -28 -263 -146 -306 -327 -20 -87 -14 -198 16 -276
26 -71 97 -150 164 -186 47 -25 60 -27 171 -27 116 0 123 1 187 33 37 18 88
52 113 75 42 38 46 46 43 79 l-3 38 -45 -36 c-103 -82 -201 -106 -306 -74
-116 35 -202 159 -212 307 -4 66 -2 78 13 90 15 10 78 13 282 13 l263 0 0 38
c0 86 -99 214 -186 240 -56 16 -142 22 -194 13z m137 -62 c64 -24 116 -106 94
-147 -9 -17 -26 -20 -128 -26 -65 -4 -151 -9 -192 -13 l-74 -6 7 28 c10 38 60
109 94 133 56 40 141 53 199 31z"/>
<path d="M5719 1327 c-107 -30 -193 -106 -249 -221 l-34 -69 24 -19 c16 -13
32 -17 49 -13 51 12 66 31 88 107 25 86 65 130 132 148 62 16 111 -4 139 -60
19 -38 22 -58 20 -129 l-3 -83 -96 -42 c-146 -65 -228 -128 -290 -225 -39 -60
-41 -136 -5 -178 23 -26 29 -28 103 -28 95 1 133 13 217 71 36 24 67 44 69 44
3 0 8 -15 11 -33 10 -55 46 -80 120 -85 59 -4 65 -2 100 28 41 36 66 78 66
110 0 28 -17 25 -57 -10 -41 -36 -53 -37 -81 -7 -21 23 -22 30 -22 297 l0 273
-25 44 c-16 25 -41 51 -63 62 -50 25 -155 34 -213 18z m169 -514 l-3 -117 -50
-38 c-27 -21 -69 -45 -93 -55 -40 -15 -46 -15 -78 0 -76 37 -63 119 35 209 49
46 160 117 184 118 4 0 6 -53 5 -117z"/>
<path d="M7580 1329 c-287 -40 -426 -351 -284 -632 56 -110 167 -183 291 -194
126 -10 235 25 319 101 41 37 45 45 42 79 l-3 39 -48 -37 c-138 -106 -285
-111 -385 -14 -82 79 -117 195 -101 334 18 150 107 255 214 255 44 0 81 -18
120 -60 62 -66 137 -80 174 -34 57 72 -9 144 -151 165 -73 10 -99 10 -188 -2z"/>
<path d="M8329 1327 c-102 -29 -183 -99 -241 -210 -35 -65 -36 -94 -4 -108 19
-9 32 -8 62 7 35 17 41 27 65 99 31 90 65 128 133 146 48 13 100 -4 127 -41
21 -29 39 -110 39 -180 l0 -48 -92 -38 c-114 -48 -189 -96 -250 -161 -59 -64
-88 -121 -88 -173 0 -85 45 -116 156 -107 76 6 125 25 207 83 26 19 49 34 50
34 2 0 9 -18 16 -40 16 -53 58 -80 124 -80 26 0 61 7 76 15 29 15 91 98 91
122 0 24 -32 28 -49 6 -40 -48 -86 -49 -111 -3 -7 13 -9 116 -8 289 l3 269
-30 43 c-16 23 -46 50 -65 60 -47 24 -153 32 -211 16z m175 -414 c4 -9 4 -61
0 -115 -7 -97 -7 -99 -42 -130 -50 -43 -137 -81 -168 -74 -68 18 -85 94 -35
162 16 21 41 51 57 66 28 25 161 108 175 108 4 0 10 -8 13 -17z"/>
<path d="M6220 1281 c0 -20 10 -26 72 -37 21 -3 42 -11 47 -18 5 -6 11 -126
13 -272 l3 -260 30 -59 c42 -83 100 -119 193 -119 75 -1 131 22 239 94 l58 40
3 -57 c4 -81 6 -85 39 -72 15 6 75 23 133 38 90 24 105 31 108 49 3 20 -1 22
-57 22 -100 0 -95 -18 -87 352 l8 318 -161 0 c-88 0 -162 -4 -166 -9 -11 -19
25 -38 83 -44 75 -8 90 -14 98 -40 4 -12 7 -125 6 -251 -2 -223 -3 -229 -25
-247 -101 -83 -251 -107 -326 -51 -46 34 -51 66 -50 352 0 146 0 271 0 278 -1
9 -34 12 -131 12 -122 0 -130 -1 -130 -19z"/>
</g>
</svg>
